<?xml version="1.0" encoding="UTF-8" standalone="no"?>
<!-- Created with Inkscape (http://www.inkscape.org/) -->

<svg
   xmlns:svg="http://www.w3.org/2000/svg"
   xmlns="http://www.w3.org/2000/svg"
   version="1.1"
   width="294.57001"
   height="351.01199"
   viewBox="0 0 294.57 351.012"
   id="Layer_1"
   xml:space="preserve"
   style="overflow:visible"><defs
   id="defs253" />
<g
   id="Color_Fields">
	<path
   d="m 38.028,27.133 c 2.5,-1.75 10,-6.062 12.875,-7.625 2.875,-1.563 5.875,-3.438 8.312,-4.562 2.437,-1.123 3.375,-1.75 4.938,-2.75 1.563,-1 3.938,-2.688 6.812,-4 2.874,-1.312 5,-2.625 8.938,-3.25 3.938,-0.625 9.062,-1.188 12.125,-1.375 3.063,-0.187 5.062,-0.188 8.75,-0.688 3.688,-0.5 5.25,-0.438 7.75,-1.188 2.5,-0.75 6.5,-1.688 8.438,-1.438 1.938,0.25 6,0.625 7.625,0.938 1.625,0.313 6.125,1.375 6.125,1.375 0,0 2.062,-0.375 3.125,-0.5 1.062,-0.125 4.125,-0.375 5,-0.312 0.875,0.062 3.375,0.5 4.938,0.812 1.563,0.312 3.375,1.125 4.688,1.188 1.312,0.062 4,0 5.625,-0.125 1.625,-0.125 4.938,-0.188 6.812,0.125 1.874,0.312 4.208,0.958 4.729,1.354 0.521,0.396 1.396,0.458 1.396,0.458 0,0 1.438,-0.438 2.312,-0.875 0.874,-0.437 2.375,-0.875 3.75,-0.875 1.375,0 3.75,0.188 5.625,0.688 1.875,0.5 4.25,1.688 5.812,2.562 1.562,0.874 4,2.562 5.562,3.188 1.562,0.626 3.938,0.938 5.312,1.062 1.374,0.124 4.125,0.375 5.25,0.688 1.125,0.312 4.688,1.438 6.25,2.312 1.562,0.874 5.625,3.75 8.188,4.938 2.562,1.188 4.75,3 6.375,3.688 1.625,0.688 2.688,1.312 3.812,1.625 1.124,0.313 7.75,2.188 9.375,2.938 1.625,0.75 6.438,3.812 7.938,5.188 1.5,1.376 5.438,5.562 6.188,7.188 0.75,1.626 2,4.375 2.312,5.188 0.312,0.812 0.75,1.812 0.75,1.812 0,0 1.75,1.188 2.938,1.938 1.188,0.75 4.188,2.938 5.688,4.875 1.5,1.937 3,4 4.938,6.688 1.938,2.688 4.75,7.812 5.5,9.812 0.75,2 2.125,7.812 2.25,8.688 0.125,0.876 0.875,1.438 0.875,1.438 0,0 1.75,1.938 2.562,2.312 0.812,0.374 3.188,2.188 4.312,3.312 1.124,1.124 2.438,2.812 3.188,4.312 0.75,1.5 1.729,3.979 1.938,5.562 0.209,1.582 0.312,4.625 0.188,5.438 -0.124,0.813 0.562,2.688 0.562,2.688 0,0 1,1.812 1.625,2.812 0.625,1 1.938,2.938 2.562,4.188 0.624,1.25 2.312,5.25 2.688,7.125 0.376,1.875 0.625,6.562 0.375,8.438 -0.25,1.876 -0.875,6.625 -1.375,8.375 -0.5,1.75 -1.312,5.125 -1.688,5.812 -0.376,0.687 -0.5,3.312 -0.562,4.688 -0.062,1.376 -0.688,6.75 -1.25,8.375 -0.562,1.625 -1.562,4.438 -2.375,5.688 -0.812,1.25 -3.438,4.125 -4.5,4.938 -1.062,0.813 -4.625,2.5 -6.938,2.688 -2.313,0.188 -7.25,-0.375 -9,-0.812 0,0 -6,-1.562 -7.375,-1.75 -1.375,-0.188 -7.125,-0.188 -8.812,0.125 -1.687,0.313 -9.312,2.25 -11.062,2.938 -1.75,0.688 -7.688,3.125 -9.938,3.938 -2.25,0.813 -8.438,3.125 -9.875,3.688 -1.437,0.562 -6.5,2.5 -8.688,3 -2.188,0.5 -6.062,1.5 -8,1.812 -1.938,0.312 -8.125,1.188 -9.688,1.188 -1.562,0 -5.938,0.188 -7.75,0.375 -1.812,0.187 -5.5,0.938 -7.312,1.562 -1.812,0.624 -6.75,2 -8.188,2.625 -1.438,0.625 -8.062,2.812 -10.25,3.25 -2.188,0.438 -8.875,2.125 -11.125,2.125 -2.25,0 -8.188,-0.438 -9.812,-0.312 -1.624,0.126 -7.125,0.75 -9.25,0.938 -2.125,0.188 -7.438,1.062 -9.875,1.062 -2.438,0 -5.875,-0.5 -7.812,-0.938 -1.937,-0.438 -5.125,-1.5 -8.188,-2.438 0,0 -5.5,-2.25 -8.25,-3.188 -2.75,-0.938 -9.125,-2.375 -10.938,-3.5 -1.812,-1.125 -5.938,-2.875 -7.125,-4.125 0,0 -3.25,-3.688 -4,-5.125 -0.75,-1.437 -2.188,-5.188 -2.25,-6.812 -0.062,-1.624 0.375,-5.625 0.625,-6.812 0.25,-1.187 1.062,-4 1.688,-5.188 0.626,-1.188 2.438,-3.625 2.438,-3.625 0,0 -1.5,1.125 -2.25,1.188 -0.75,0.063 -4.062,0.062 -5.75,-0.688 -1.688,-0.75 -9.688,-3.938 -11.25,-4.812 -1.562,-0.874 -7.5,-3.5 -9.875,-4.5 -2.375,-1 -5.688,-2.562 -8.062,-3.375 -2.374,-0.812 -6,-2.062 -8.125,-2.5 -2.125,-0.438 -5.188,-1.875 -7.125,-3.062 -1.938,-1.188 -4.188,-2.688 -5.25,-3.938 -1.062,-1.25 -3.625,-4.062 -4.312,-5.125 -0.687,-1.062 -2.312,-3.25 -3.125,-4 -0.812,-0.75 -3.312,-3.75 -4.312,-5.938 -1,-2.188 -2.25,-5.25 -2.812,-7.312 -0.562,-2.062 -0.75,-4.5 -0.875,-5.5 -0.125,-1 -0.316,-2.444 -0.316,-2.444 0,0 -0.75,-1.75 -1.125,-3 -0.375,-1.25 -0.688,-5.25 -0.5,-7.125 0.188,-1.875 0.75,-4.938 1.188,-6.625 0.438,-1.687 2.625,-8.25 2.625,-8.25 0,0 0.188,-2.938 0.438,-4.125 0.25,-1.187 1.062,-4.375 1.75,-5.625 0.688,-1.25 3,-4.688 3.875,-6 0.875,-1.312 4.875,-6.625 4.875,-6.625 0,0 2.312,-4.375 3.125,-5.625 0.812,-1.25 3.688,-5.438 5.375,-7 1.687,-1.562 6.438,-6.188 7.938,-7.312 1.5,-1.124 6.374,-4.625 6.374,-4.625 z"
   id="path4"
   style="fill:#f0e1df" />
	<path
   d="m 88.649,183.855 c 0.773,0.146 1.422,0.613 2.168,0.845 2.188,0.684 4.216,1.569 6.281,2.465 0.06,0.026 0.129,0 0.156,-0.062 0.022,-0.059 -0.004,-0.129 -0.062,-0.156 -1.414,-0.573 -2.496,-1.715 -3.957,-2.215 -0.688,-0.237 -1.336,-0.491 -2.069,-0.633 -0.849,-0.168 -1.648,-0.242 -2.461,-0.438 l 0,0 c -0.052,-0.017 -0.105,0.016 -0.121,0.069 -0.017,0.054 0.014,0.11 0.065,0.125 l 0,0 z"
   id="path6"
   style="fill:#8f5946" />
	<path
   d="m 164.965,187.508 c 0,0 8.125,-3.125 10.5,-3.75 2.375,-0.625 7.375,-2.125 9.688,-2.188 2.313,-0.062 9.938,-0.438 12.312,-0.688 2.374,-0.25 8.75,-1.625 11.375,-2.375 2.625,-0.75 8.5,-2.625 11.25,-3.625 2.75,-1 9.875,-3.75 12.25,-4.625 2.375,-0.875 6.875,-2.75 9.25,-3.5 2.375,-0.75 7.375,-2.25 9.75,-2.25 2.375,0 6,-0.5 7.625,0 1.625,0.5 4,1.75 4.5,3.5 0.5,1.75 1.625,4.125 1.375,6.125 -0.25,2 -0.375,5.125 -1.875,6.875 -1.5,1.75 -1.625,2 -2.875,3.375 -1.25,1.375 -2.125,2.625 -3.5,3.75 -1.375,1.125 -2.5,2.5 -3.375,3.5 -0.875,1 -1.5,1.875 -2.375,2.375 -0.875,0.5 -2.25,1.125 -2.25,1.125 0,0 0,1 -0.5,2 -0.5,1 -2.875,2.625 -2.875,2.625 l -0.75,1.875 c 0,0 -0.375,1.125 -1.5,2.125 -1.125,1 -3.5,2.625 -3.5,2.625 l -2,1.625 c 0,0 -1.75,1.625 -3.25,2.25 -1.5,0.625 -2.5,1.25 -3.625,1.875 -1.125,0.625 -3.125,2.25 -5,2.625 -1.875,0.375 -7.5,1 -10.25,0.875 -2.75,-0.125 -10,-0.5 -12.5,-1.125 -2.5,-0.625 -8.125,-3.125 -10.125,-4.375 -2,-1.25 -7.75,-5.625 -10,-7 -2.25,-1.375 -5.125,-3.5 -7.25,-4.625 -2.125,-1.125 -3.5,-2 -5.5,-3.375 -2,-1.375 -3.25,-2.25 -3.625,-3.375 -0.375,-1.125 -1.375,-4.249 -1.375,-4.249 z"
   id="path8"
   style="fill:#e0cbbd" />
	<path
   d="m 138.59,191.133 c 0,0 7.625,0.125 9.688,0 2.063,-0.125 16.688,-3.625 16.688,-3.625 0,0 0.75,2 1.125,2.875 0.375,0.875 1.625,2.625 2.375,3.5 0.75,0.875 7.125,4.625 8.25,5.375 1.125,0.75 9,6 9,6 l 3.75,3 c 0,0 -2.25,8.5 -3.25,10.75 -1,2.25 -4.75,13.25 -5.75,15.375 -1,2.125 -5.75,16.75 -6.5,20 -0.75,3.25 -3.25,14.625 -3.5,17.125 -0.25,2.5 -1.5,13.5 -1.5,15.625 0,2.125 0.125,10.625 0.125,12.375 0,1.75 0.875,17.75 1.25,20.375 0.375,2.625 2.125,15.75 2.625,17.625 0.5,1.875 3,12.875 3,12.875 h -18.5 c 0,0 -3.75,-17.375 -4,-19.875 -0.25,-2.5 -1.75,-13.375 -2,-16 -0.25,-2.625 -1.375,-13.375 -1.5,-16.625 -0.125,-3.25 -0.5,-21.5 -0.375,-25.125 0.125,-3.625 0.5,-11.125 0.5,-13.625 0,-2.5 1,-10.5 0.625,-13.25 -0.375,-2.75 -1.375,-14.625 -2.125,-17.25 -0.75,-2.625 -1.5,-8.25 -1.625,-10.625 -0.125,-2.375 0.875,-13 0.875,-13 0,0 -3,-1.5 -4,-2.625 -1,-1.125 -3.5,-3 -4,-4.5 -0.5,-1.5 -1.251,-6.75 -1.251,-6.75 z"
   id="path10"
   style="fill:#f1eed4" />
</g>
<g
   id="Outlines">
	<path
   d="m 119.569,6.612 c 0.47,0.073 0.887,-0.113 1.333,-0.208 5.281,-1.208 9.729,-4.011 15.115,-4.239 4.073,-0.178 8.073,0.572 11.917,1.822 4.812,0.595 9.625,-0.875 14.479,0.479 2.489,0.688 4.822,1.76 6.405,3.864 2.553,3.396 2.803,7.614 2.72,11.604 -0.095,4.854 -2.261,9.239 -4.281,13.635 -0.76,1.646 -1.031,3.417 -0.739,5.22 0.042,0.208 0.239,0.354 0.448,0.322 0.219,-0.042 0.365,-0.238 0.323,-0.447 -0.489,-3.104 1.167,-5.906 2.438,-8.656 1.448,-3.115 2.448,-6.354 2.604,-9.75 0.155,-3.646 -0.208,-7.365 -1.865,-10.688 -3.562,-7.197 -12.708,-6.76 -19.646,-6.208 -2.822,0.22 -5.344,-1.135 -8.155,-1.5 -3.521,-0.447 -6.833,-0.447 -10.428,0.198 -4.197,0.75 -7.292,3.208 -11.405,4.156 -0.417,0.094 -0.823,0.292 -1.262,0.188 -0.052,0 -0.094,0.053 -0.094,0.104 0,0.051 0.042,0.104 0.093,0.104 l 0,0 z"
   id="path13"
   style="fill:#8f5946" />
	<path
   d="m 165.569,22.56 c -0.604,2.969 -0.104,6.042 0.74,8.927 -0.49,2.875 -0.188,5.762 -0.448,8.656 -0.208,2.469 -1.197,4.729 -2.739,6.771 -2.812,3.708 -5.5,7.104 -9.198,9.708 -4.698,5.458 -4.125,12.979 -5.979,19.688 -0.51,1.844 -1.604,3.364 -2.542,4.979 l 0,0 c -0.094,0.197 0,0.438 0.198,0.521 0.198,0.094 0.427,0 0.521,-0.198 2.677,-3.792 3.458,-8.333 4.072,-12.927 0.595,-4.333 1.583,-8.938 4.845,-12.031 3.614,-2.375 6.042,-5.833 8.739,-9.333 1.656,-2.135 2.615,-4.552 2.896,-7.167 0.208,-2.021 -0.083,-4.03 0.135,-6.052 0.052,-0.531 0.062,-1.073 0.219,-1.615 0.095,-0.322 0.073,-0.688 -0.01,-1.021 -0.74,-2.99 -1.875,-5.865 -1.24,-8.875 0,-0.062 -0.042,-0.104 -0.094,-0.115 -0.052,-0.011 -0.104,0.032 -0.115,0.084 l 0,0 z"
   id="path15"
   style="fill:#8f5946" />
	<path
   d="m 151.08,48.06 c -0.604,2.594 0.594,5.177 1.396,7.646 0.271,0.833 0.281,1.708 0.261,2.583 0,0.239 0.198,0.438 0.438,0.438 0.239,0 0.438,-0.198 0.448,-0.438 0.094,-0.979 0.03,-1.958 -0.261,-2.906 -0.739,-2.448 -2.219,-4.719 -2.094,-7.292 0.01,-0.052 -0.021,-0.104 -0.083,-0.115 -0.053,-0.01 -0.105,0.032 -0.105,0.084 l 0,0 z"
   id="path17"
   style="fill:#8f5946" />
	<path
   d="m 86.736,29.612 c 3.698,-0.479 7.364,-0.988 11.146,-0.438 3.125,0.458 6.104,0.979 8.865,2.688 2.802,1.729 4.864,4.073 7.125,6.312 0.104,0.125 0.292,0.136 0.405,0.031 0.125,-0.104 0.136,-0.281 0.031,-0.406 -2.573,-2.906 -5.219,-6.01 -8.917,-7.521 -3.427,-1.405 -7.062,-1.802 -10.698,-1.771 -2.667,0.021 -5.292,0.719 -7.958,0.896 -0.052,0 -0.094,0.053 -0.094,0.104 0,0.051 0.043,0.105 0.095,0.105 l 0,0 z"
   id="path19"
   style="fill:#8f5946" />
	<path
   d="m 112.715,22.268 c -1.271,1.229 -2.688,2.115 -4.24,3.073 -2.469,1.521 -2.854,4.792 -1.25,6.989 0.125,0.188 0.365,0.25 0.552,0.125 0.188,-0.114 0.25,-0.354 0.125,-0.542 -1.427,-2.011 -0.958,-4.771 1.115,-6.261 1.427,-1.03 2.583,-2.104 3.823,-3.239 0.042,-0.031 0.042,-0.095 0.01,-0.136 -0.031,-0.04 -0.093,-0.05 -0.135,-0.009 l 0,0 z"
   id="path21"
   style="fill:#8f5946" />
	<path
   d="m 103.299,29.768 c 0.562,0.354 1.125,0.698 1.917,0.458 l 0.271,0.01 c 0.125,-0.021 0.239,-0.104 0.303,-0.229 l -0.156,0.125 c 0.302,-0.24 0.625,-0.448 0.74,-0.906 l 0.155,-0.271 -0.75,-0.167 0.031,-0.062 c -0.198,0.438 -0.188,0.917 -0.365,1.354 -0.03,0.104 -0.146,0.219 -0.238,0.229 -0.146,0 -0.281,-0.115 -0.428,-0.188 l -0.03,0.78 -0.345,-0.197 0.042,0.062 c 0.073,0.125 0.208,0.198 0.345,0.198 l 0.261,-0.011 c 0.896,-0.136 1.729,-0.833 1.667,-1.803 l -0.01,-0.011 c 0,-0.114 -0.052,-0.229 -0.146,-0.302 -0.155,-0.125 -0.385,-0.094 -0.51,0.062 l -0.125,0.198 c -0.042,0.302 -0.25,0.51 -0.386,0.771 l -0.146,0.427 0.167,-0.198 -0.083,0.042 0,0 -0.094,0.073 0.458,0.25 -0.01,-0.062 0,0 -0.012,-0.03 -0.052,0.208 0.104,-0.178 c 0.427,-0.822 0.26,-1.896 0.969,-2.572 l 0.073,-0.136 -0.198,0.146 0.125,-0.031 c 0.094,-0.021 0.177,-0.083 0.208,-0.177 l 0.062,-0.167 c 0.011,-0.021 0.011,-0.031 0.021,-0.042 v -0.01 l -0.583,0.021 0.042,0.104 0.021,-0.25 -0.167,0.322 c -0.363,1.375 -1.271,2.887 -0.197,4.188 0.072,0.136 0.25,0.188 0.396,0.115 0.135,-0.083 0.188,-0.261 0.114,-0.396 -0.823,-1.094 -0.177,-2.364 0.229,-3.469 l 0.146,-0.448 c 0.042,-0.073 0.052,-0.167 0.031,-0.24 l -0.031,-0.113 c -0.031,-0.095 -0.114,-0.178 -0.219,-0.198 -0.167,-0.042 -0.333,0.062 -0.364,0.219 v 0.021 l 0.01,-0.042 -0.062,0.167 0.208,-0.178 -0.125,0.021 c -0.083,0.021 -0.156,0.083 -0.198,0.156 l -0.344,0.438 c -0.292,0.781 -0.792,1.5 -0.198,2.542 l -0.573,-0.177 c -0.052,0.062 -0.073,0.135 -0.062,0.208 v 0.042 l 0,0 v 0.062 c 0,0.042 0.01,0.073 0.03,0.114 0.083,0.156 0.271,0.219 0.428,0.146 l 0.114,-0.042 0,0 0.083,-0.031 c 0.073,-0.042 0.136,-0.115 0.167,-0.198 l 0.271,-0.583 c 0.073,-0.146 0.156,-0.281 0.239,-0.417 -0.22,-0.073 -0.438,-0.146 -0.656,-0.219 l 0.74,0.052 c 0.052,-0.062 0.083,-0.146 0.083,-0.229 l -0.75,0.354 c 0,-0.021 0,-0.031 0,-0.052 -0.083,0.292 -0.303,0.458 -0.553,0.594 l -0.625,0.167 0.345,0.198 -0.042,-0.073 c -0.062,-0.115 -0.198,-0.198 -0.345,-0.188 l 0.22,0.863 c 0.927,0.323 1.344,-0.738 1.447,-1.447 l 0.167,-0.761 0,0 -0.896,0.229 c -0.156,0.031 -0.177,0.188 -0.261,0.281 l -0.345,0.385 0.345,-0.229 -0.281,0.031 c -0.5,0.385 -1.177,0.26 -1.729,0.042 l 0,0 c -0.083,-0.031 -0.188,0.011 -0.219,0.094 -0.031,0.083 0.01,0.188 0.094,0.22 l 0.02,-0.059 z"
   id="path23"
   style="fill:#8f5946" />
	<path
   d="m 132.486,13.799 c 1.031,1.219 1.531,2.698 1.928,4.271 0.405,1.646 0.719,3.25 0.583,4.896 -0.115,1.344 0.052,2.646 -0.115,3.979 -0.458,3.761 -2.135,7.042 -3.771,10.406 -1.822,3.781 -4.261,6.802 -6.697,10.406 -2.614,3.844 -5.562,7.573 -10.239,8.156 -3.136,0.396 -5.99,-1.136 -8.688,-2.708 -4.312,-2.531 -7.604,-5.573 -11.833,-8.428 -1.572,-1.062 -3.25,-1.646 -5.052,-1.969 -0.073,-0.021 -0.135,0.021 -0.156,0.083 -0.021,0.073 0.021,0.136 0.083,0.156 3.312,0.802 6,2.865 8.636,5.104 4.28,3.646 8.438,7.125 14.052,8.511 1.635,0.405 3.219,0.447 4.76,-0.146 6.781,-2.625 9.854,-9.656 13.969,-15.094 2.083,-3.646 4.012,-7.323 5.146,-11.458 1.042,-3.792 1.125,-7.573 0.208,-11.438 -0.438,-1.875 -1.594,-3.333 -2.646,-4.844 -0.03,-0.042 -0.094,-0.062 -0.135,-0.031 -0.043,0.034 -0.064,0.097 -0.033,0.148 l 0,0 z"
   id="path25"
   style="fill:#8f5946" />
	<path
   d="m 145.247,16.206 c -0.479,2.155 -2.125,3.572 -3.72,5.011 -2.208,1.989 -4.385,3.656 -6.094,6.219 -0.604,0.906 -0.76,1.875 -1.042,2.854 l 0,0 c -0.073,0.208 0.042,0.438 0.26,0.5 0.208,0.072 0.438,-0.042 0.5,-0.25 0.333,-0.928 0.542,-1.854 1.115,-2.729 2.823,-4.333 7.875,-6.542 9.167,-11.542 0.021,-0.052 -0.01,-0.104 -0.062,-0.125 -0.052,-0.011 -0.114,0.01 -0.124,0.062 l 0,0 z"
   id="path27"
   style="fill:#8f5946" />
	<path
   d="m 114.861,56.435 c 0.771,-0.031 1.511,-0.365 2.271,-0.177 l 0.021,0.01 -0.28,-0.104 0.072,0.062 c 1.396,2.49 1.22,5.49 1.262,8.271 -1.031,6.438 -4.365,12.042 -8.5,17.292 -0.573,0.729 -1.24,1.667 -0.875,2.667 0.072,0.239 0.333,0.386 0.583,0.312 0.25,-0.073 0.386,-0.333 0.312,-0.583 -0.208,-0.698 0.312,-1.292 0.698,-1.781 3.583,-4.583 6.458,-9.177 8.021,-14.697 1.115,-3.917 1.229,-8.428 -0.802,-12 l -0.219,-0.188 c -0.073,-0.062 -0.177,-0.104 -0.271,-0.104 h -0.396 c -0.635,0.312 -1.281,0.562 -1.948,0.78 -0.083,0.011 -0.135,0.095 -0.115,0.178 0.012,0.083 0.095,0.135 0.178,0.113 l -0.012,-0.051 z"
   id="path29"
   style="fill:#8f5946" />
	<path
   d="m 118.538,59.695 c -0.239,-2.03 0.094,-4.155 1.489,-5.719 l 0.271,-0.333 c 0.01,-0.031 0.021,-0.062 0.021,-0.094 0.012,-0.188 -0.125,-0.354 -0.312,-0.364 l -0.104,-0.021 c -0.177,-0.011 -0.322,0.104 -0.364,0.271 l -0.011,0.073 0.011,-0.042 -0.073,0.208 c -0.865,1.625 -1.365,3.396 -1.698,5.198 l -0.062,0.083 0.613,0.271 0.083,-0.24 c 0.303,-1.78 0.886,-3.5 1.928,-4.988 l 0.28,-0.406 c 0.021,-0.031 0.031,-0.062 0.031,-0.094 l 0.042,-0.167 c 0.031,-0.188 -0.073,-0.364 -0.25,-0.428 -0.188,-0.052 -0.396,0.053 -0.448,0.25 l -0.062,0.188 0.104,-0.167 -0.28,0.281 c -0.595,0.896 -1.125,1.875 -2,2.53 l -0.042,-0.062 0.521,0.323 v -0.021 c 0.031,-0.115 0.052,-0.229 0.083,-0.344 0.042,0.01 0.073,0.021 0.115,0.031 0.125,-0.146 0.114,-0.375 -0.031,-0.511 -0.146,-0.125 -0.375,-0.114 -0.511,0.031 -0.26,0.052 -0.448,0.188 -0.01,0.958 l -0.406,-0.094 c 0,0.011 0.01,0.031 0.01,0.042 l 0.906,0.114 c 0.688,-0.656 1.219,-1.428 1.729,-2.22 l 0.406,-0.521 c 0.042,-0.052 0.083,-0.104 0.104,-0.167 l 0.052,-0.198 -0.698,-0.177 -0.031,0.177 0.083,-0.167 -0.302,0.406 c -1.062,1.489 -1.614,3.239 -1.938,5.021 l -0.095,0.375 c -0.021,0.042 -0.021,0.083 -0.021,0.125 l 0.854,-0.26 c 0,0.01 0.011,0.021 0.011,0.031 0.271,-1.542 0.688,-3.073 1.375,-4.479 l 0.271,-0.719 c 0.01,-0.011 0.01,-0.031 0.01,-0.042 l 0.012,-0.062 -0.354,0.271 h 0.104 l -0.104,-0.646 -0.521,0.521 c -1.5,1.688 -1.354,3.927 -0.99,6 0.01,0.052 0.062,0.094 0.115,0.083 0.053,-0.005 0.095,-0.056 0.084,-0.109 l 0,0 z"
   id="path31"
   style="fill:#8f5946" />
	<path
   d="m 71.09,77.299 c 1.594,2.594 4.021,4.375 6.729,5.74 6.521,3.292 13.24,0.292 20.021,-0.938 3.375,-0.615 7,-0.677 9.719,1.646 2.042,1.738 3.698,3.708 4.906,6.072 1.292,2.511 2.271,5.031 3,7.803 0.552,2.094 0.854,4.125 1.885,6.042 0.833,1.53 1.708,3.01 2.969,4.197 0.062,0.053 0.156,0.062 0.208,0 0.062,-0.052 0.062,-0.146 0.011,-0.208 -3.928,-5.427 -3.886,-12.405 -7.271,-18.292 -1.677,-2.917 -3.594,-5.812 -6.615,-7.271 -6.938,-3.333 -14.021,1.083 -21.072,1.594 -5.448,0.396 -11.053,-2.042 -14.323,-6.5 -0.031,-0.042 -0.094,-0.062 -0.135,-0.031 -0.053,0.032 -0.063,0.095 -0.032,0.146 l 0,0 z"
   id="path33"
   style="fill:#8f5946" />
	<path
   d="m 59.663,71.31 c 0.719,-3.125 2.458,-5.844 4.052,-8.583 2.583,-2.844 5.49,-5.104 8.844,-7.333 3.312,-2.198 6.958,-2.177 10.635,-2.458 1.833,-0.136 3.178,-1.542 4.928,-2.073 1.854,-0.562 3.792,0 5.344,1.073 0.073,0.042 0.156,0.021 0.198,-0.052 0.042,-0.073 0.021,-0.167 -0.053,-0.208 -1.938,-1.521 -4.511,-2.417 -6.844,-1.219 -1.417,0.719 -2.781,1.458 -4.333,1.75 -7.771,-0.781 -14.24,4.542 -19.312,9.78 -1.531,2.948 -3.062,5.958 -3.646,9.25 l 0,0 c -0.01,0.053 0.011,0.115 0.062,0.137 0.052,0.009 0.115,-0.012 0.125,-0.064 l 0,0 z"
   id="path35"
   style="fill:#8f5946" />
	<path
   d="m 129.018,78.924 c -4.896,7.562 0.208,16.386 3.771,23.375 1.188,3.917 1.114,9.812 -3.521,11.261 -0.24,0.073 -0.386,0.333 -0.312,0.583 0.072,0.24 0.333,0.386 0.583,0.312 2.229,-0.688 4.083,-2.583 4.562,-4.958 0.302,-1.512 0.271,-2.948 0.177,-4.448 -0.177,-3.01 -1.854,-5.489 -3.167,-8.146 -1.155,-2.354 -2.197,-4.625 -2.792,-7.25 -0.812,-3.636 -1.385,-7.489 0.875,-10.625 0.031,-0.052 0.012,-0.114 -0.042,-0.146 -0.041,-0.02 -0.103,-0.009 -0.134,0.042 l 0,0 z"
   id="path37"
   style="fill:#8f5946" />
	<path
   d="m 72.09,93.227 c 2.552,-3.99 7.438,-5.552 12.052,-4.917 5.302,0.739 9.667,4.281 11.562,9.167 2.613,6.76 2.322,14.698 7.917,20.115 2.947,2.844 7.114,3.656 10.896,2.385 0.25,-0.021 0.448,-0.24 0.438,-0.5 -0.021,-0.25 -0.24,-0.448 -0.5,-0.438 -3.062,1.052 -6.375,0.812 -9.095,-1.24 -1.53,-1.146 -2.636,-2.489 -3.614,-4.125 -3.115,-5.26 -2.896,-11.219 -5.198,-16.614 -1.323,-3.104 -3.458,-5.802 -6.438,-7.615 -5.886,-3.562 -15.28,-3.271 -18.25,3.636 -0.052,0.083 -0.021,0.197 0.053,0.239 0.083,0.053 0.197,0.021 0.239,-0.052 L 72.09,93.227 z"
   id="path39"
   style="fill:#8f5946" />
	<path
   d="m 60.611,103.258 c -0.552,-3.188 -0.03,-6.906 2.573,-9.146 2.156,-1.863 5.094,-2.155 7.656,-1.042 2.656,1.156 4.531,3.271 6.052,5.74 2.281,3.708 3.698,7.479 5.375,11.364 2.021,4.677 5.646,8.562 10.312,10.573 0.094,0.062 0.229,0.03 0.28,-0.062 0.062,-0.094 0.031,-0.229 -0.062,-0.281 -4.354,-2.344 -7.74,-6.229 -9.75,-10.771 -1.583,-3.573 -2.958,-7.062 -4.865,-10.531 -2.51,-4.542 -7.271,-8.969 -12.698,-7.219 -1.636,0.531 -3.114,1.458 -4.072,3 -0.896,1.427 -1.333,2.917 -1.521,4.531 -0.156,1.333 0.333,2.572 0.51,3.875 0.011,0.052 0.062,0.094 0.115,0.083 0.064,-0.01 0.095,-0.052 0.095,-0.114 l 0,0 z"
   id="path41"
   style="fill:#8f5946" />
	<path
   d="m 51.955,116.195 c 4.76,-2.28 10.113,-0.625 14.417,2.417 3.729,2.625 6.719,5.208 10.542,7.646 4.812,3.073 10.333,4.177 15.729,3.01 0.094,-0.01 0.146,-0.094 0.135,-0.188 -0.021,-0.083 -0.104,-0.146 -0.197,-0.125 -4.74,0.364 -9.604,-0.198 -13.906,-2.636 -4.979,-2.812 -8.729,-6.646 -13.677,-9.572 -4.062,-2.387 -8.99,-2.823 -13.136,-0.729 l 0,0 c -0.052,0.021 -0.072,0.083 -0.042,0.136 0.02,0.052 0.083,0.073 0.135,0.041 l 0,0 z"
   id="path43"
   style="fill:#8f5946" />
	<path
   d="m 59.986,115.268 c 1.833,0.365 3.739,-0.333 5.542,0.229 l 0.229,0.021 -0.312,-0.198 0.031,0.062 c 0.031,0.073 0.094,0.135 0.167,0.177 l 0.167,0.083 -0.198,-0.239 0.031,0.125 c 0.031,0.114 0.114,0.208 0.219,0.25 l 0.073,0.031 0,0 0.042,0.021 -0.208,-0.229 0.021,0.052 c 0.208,1.333 0.447,2.708 1.438,3.72 l -0.01,-0.104 c 0.062,0.104 0.167,0.167 0.281,0.177 0.188,0 0.344,-0.146 0.344,-0.333 v -0.042 l 0,0 -0.01,-0.021 c 0.01,-0.156 -0.104,-0.292 -0.262,-0.323 l -0.062,-0.01 0,0 -0.083,-0.011 0.146,0.072 -0.073,-0.062 c -1.219,-1.396 -2.01,-3.896 -4.25,-3.708 h -0.188 c -0.083,0 -0.155,0.031 -0.219,0.083 l -0.167,0.135 c -0.042,0.031 -0.062,0.073 -0.083,0.104 -0.083,0.167 -0.021,0.364 0.146,0.447 l 0.031,0.021 c 0.042,0.021 0.094,0.031 0.146,0.031 h 0.104 c 0.802,0.083 1.635,-0.229 2.417,0.167 l 0.188,0.094 -0.135,-0.125 0.072,0.135 0.198,-0.458 -0.104,0.031 c -0.438,0.052 -0.845,-0.188 -1.281,-0.135 l -0.292,-0.011 c -0.073,0 -0.146,0.021 -0.198,0.053 l -0.146,0.114 0,0 c -0.146,0.095 -0.178,0.293 -0.073,0.438 l 0.271,0.365 c 0.345,0.406 0.812,0.573 1.303,0.708 l 0.438,0.021 c 0.062,0.011 0.125,0 0.188,-0.03 0.146,-0.062 0.219,-0.25 0.146,-0.406 l -0.177,-0.323 c -0.594,-0.542 -1.292,-0.948 -2.073,-1.136 l -0.292,-0.114 0.198,0.281 -0.01,-0.073 -0.386,0.323 0,0 0.229,0.042 c 3.031,0.271 6.031,-1.208 7.865,-3.594 0.094,-0.073 0.104,-0.208 0.03,-0.303 -0.072,-0.094 -0.208,-0.104 -0.302,-0.03 -1.969,1.697 -4.323,3.114 -6.979,3.322 l -0.698,-0.042 c -0.031,-0.01 -0.073,-0.01 -0.104,0 -0.167,0.012 -0.292,0.167 -0.271,0.333 v -0.021 0.073 c 0,0.125 0.083,0.229 0.198,0.271 l 0.312,0.136 c 0.573,0.156 1.135,0.333 1.594,0.729 l 0.312,0.385 0.229,-0.427 -0.479,-0.052 h 0.01 c -0.104,-0.042 -0.208,-0.083 -0.312,-0.125 l -0.72,-0.678 -0.072,0.438 0.146,-0.104 -0.198,0.062 0.511,0.021 v -0.011 c 0.322,0.011 0.625,0.062 0.938,0.136 l 0.396,-0.062 c 0.03,-0.011 0.052,-0.021 0.083,-0.031 0.146,-0.083 0.197,-0.271 0.113,-0.427 l -0.072,-0.125 c -0.031,-0.052 -0.083,-0.104 -0.136,-0.125 l -0.417,-0.208 c -0.708,-0.281 -1.447,-0.073 -2.177,-0.146 -0.011,0.208 -0.021,0.417 -0.031,0.625 l -0.344,-0.636 0.146,0.031 -0.031,-0.021 0.062,0.553 0.167,-0.136 -0.208,0.073 h 0.49 l -0.011,0.011 c 1.761,0.136 2.271,2.198 3.365,3.281 l 0.25,0.281 c 0.042,0.031 0.094,0.062 0.146,0.073 l 0.073,0.03 0,0 0.062,0.011 -0.25,-0.323 -0.01,0.021 0,0 v 0.042 l 0,0 0.312,-0.552 c 0.01,0 0.01,-0.01 0.021,-0.01 -0.729,-0.76 -0.739,-1.76 -0.969,-2.719 l -0.083,-0.458 c -0.042,-0.104 -0.115,-0.188 -0.219,-0.22 l -0.042,-0.021 0,0 -0.083,-0.021 0.229,0.25 -0.031,-0.114 c -0.03,-0.104 -0.094,-0.198 -0.197,-0.239 l -0.167,-0.073 0.167,0.167 -0.031,-0.062 c -0.052,-0.125 -0.177,-0.198 -0.312,-0.208 L 65.542,114.8 c -1.854,-0.364 -3.656,0.406 -5.51,0.281 l 0,0 c -0.053,-0.01 -0.104,0.021 -0.115,0.073 -0.014,0.052 0.017,0.104 0.069,0.114 l 0,0 z"
   id="path45"
   style="fill:#8f5946" />
	<path
   d="m 53.424,115.435 c 2.458,-0.719 4.948,-0.542 7.51,-0.198 4.688,0.604 9.521,-1.552 12.438,-5.219 0.052,-0.052 0.052,-0.146 0,-0.208 -0.062,-0.052 -0.156,-0.052 -0.208,0 -2.583,3.01 -6.364,4.552 -10.22,5.125 -3.208,-0.136 -6.427,-0.729 -9.552,0.312 l 0,0 c -0.052,0 -0.094,0.052 -0.083,0.113 0.01,0.054 0.063,0.085 0.115,0.075 l 0,0 z"
   id="path47"
   style="fill:#8f5946" />
	<path
   d="m 43.569,128.612 c 3.979,0.104 7.812,1.208 11.531,2.646 5.052,1.958 9.292,5.094 14.104,7.667 5.771,3.073 12.688,3.229 18.625,0.562 6.844,-3.072 10.667,-9.312 16.302,-14.094 1.104,-0.948 2.261,-1.583 3.458,-2.469 0.26,-0.188 0.594,-0.219 0.865,-0.417 1.5,-1.104 3.083,-1.74 4.78,-2.24 2.479,-0.729 4.958,-1 7.239,-2.354 3.406,-2.031 6.927,-3.146 10.708,-3.729 7.531,-2.302 15.365,-3.281 22.542,-6.969 0.615,-0.312 1.281,-0.542 1.823,-0.979 0.219,-0.113 0.302,-0.396 0.188,-0.613 -0.125,-0.22 -0.396,-0.303 -0.614,-0.178 -4.095,2.271 -8.386,3.803 -13.053,4.917 -5.583,1.333 -10.594,2.762 -16.177,4.083 -3.261,0.781 -5.74,2.917 -8.865,3.958 -1.364,0.448 -2.792,0.438 -4.146,0.917 -2.094,0.74 -3.948,1.708 -5.885,2.906 -4.281,2.646 -7.396,6.062 -10.708,9.771 -3.678,4.125 -8.167,7.094 -13.698,8.146 -2.062,0.396 -4.021,0.375 -6.052,0.136 -7.271,-0.844 -12.573,-6.188 -19.104,-8.947 -4.406,-1.854 -9.083,-2.958 -13.865,-2.928 -0.052,0 -0.094,0.053 -0.094,0.104 0,0.051 0.045,0.104 0.096,0.104 l 0,0 z"
   id="path49"
   style="fill:#8f5946" />
	<path
   d="m 9.944,120.581 c 1.823,1.458 3.062,3.292 4.458,5.292 2.771,3.969 6.188,6.905 10.345,9.062 3.75,1.948 7.958,1.448 12.01,1.604 2.365,0.094 4.656,0.312 7.062,0.822 4.75,1.012 9.25,1.531 13.573,3.417 0.062,0.031 0.135,0 0.156,-0.062 0.021,-0.062 -0.011,-0.136 -0.073,-0.156 -2.427,-1.011 -4.729,-2.438 -7.406,-2.646 -3.688,-1.156 -7.458,-1.823 -11.333,-2.188 -5.136,-0.49 -10.489,0.823 -15.146,-2.479 -4.135,-2.928 -7.323,-5.99 -10.344,-10.031 -0.886,-1.167 -2.104,-1.865 -3.178,-2.781 -0.042,-0.042 -0.104,-0.03 -0.135,0.01 -0.04,0.042 -0.03,0.104 0.011,0.136 l 0,0 z"
   id="path51"
   style="fill:#8f5946" />
	<path
   d="m 23.018,133.424 c 1.01,0.729 1.948,1.521 3.052,2.156 2.708,1.552 5.781,1.469 8.656,2.458 3.5,1.219 6.823,2.572 10.177,4.155 4.198,1.979 8.562,3.354 12.542,5.688 4.458,1.667 8.49,4.167 13.365,5.042 1.417,0.25 2.792,-0.114 4.021,-0.781 0.229,-0.114 0.312,-0.406 0.188,-0.625 -0.115,-0.229 -0.406,-0.312 -0.625,-0.198 -1.396,0.854 -3.115,0.948 -4.636,0.47 -8.594,-2.698 -16.135,-7.25 -24.438,-10.354 -3.28,-1.792 -6.738,-3.094 -10.322,-4.271 -4,-1.312 -8.406,-1.417 -11.875,-3.906 -0.042,-0.031 -0.104,-0.021 -0.136,0.031 -0.032,0.042 -0.011,0.104 0.031,0.135 l 0,0 z"
   id="path53"
   style="fill:#8f5946" />
	<path
   d="m 70.903,166.445 c -0.01,-2.5 0.292,-4.188 0.562,-6.688 0.354,-3.167 2.375,-5.573 4.031,-8.219 3.219,-3.417 6.447,-6.823 10,-9.896 5,-3.25 9.312,-7.188 13.552,-11.552 3.26,-3.344 6.667,-6.177 10.739,-8.573 4.552,-2.677 9.458,-3.781 14.125,-5.906 0.114,-0.062 0.167,-0.197 0.114,-0.312 -0.052,-0.114 -0.188,-0.167 -0.302,-0.114 -2.198,0.896 -4.312,1.917 -6.614,2.614 -2.729,0.823 -5.364,1.365 -7.854,2.906 -4.042,2.489 -7.406,5.261 -10.698,8.552 -2.719,2.708 -5.198,5.292 -8.198,7.729 -2.386,1.948 -4.938,3.271 -7.136,5.396 -3.052,2.969 -6.073,5.51 -8.656,9 -1.938,2.594 -2.927,5.583 -3.125,8.698 -0.167,2.521 -0.896,4.958 -0.688,7.489 0,0.053 -0.031,-3.5 0.021,-3.5 0.053,0 0.688,-4.26 0.688,-4.312 l -0.561,6.688 z"
   id="path55"
   style="fill:#8f5946" />
	<path
   d="m 26.413,97.393 c -0.979,3.604 -0.178,7.49 2.197,10.438 3.562,4.396 8.531,6.979 11.542,11.708 0.031,0.052 0.095,0.072 0.146,0.042 0.052,-0.031 0.062,-0.104 0.031,-0.156 -1.208,-1.698 -2.053,-3.583 -3.479,-5.167 -2.406,-2.677 -5.562,-4.073 -7.677,-7.167 -2,-2.948 -3.333,-6.229 -2.573,-9.667 0.011,-0.052 -0.021,-0.104 -0.073,-0.114 -0.062,-0.011 -0.114,0.031 -0.114,0.083 l 0,0 z"
   id="path57"
   style="fill:#8f5946" />
	<path
   d="m 27.58,105.445 c 0.688,1.406 1.363,2.854 2.771,3.72 1.719,1.052 3.812,0.792 5.49,-0.292 3.25,-2.095 4.438,-5.792 7.76,-7.637 3.875,-2.146 8.136,-1.104 12.323,-1.613 3.052,-0.375 4.958,-2.875 6.521,-5.25 0.042,-0.062 0.031,-0.146 -0.03,-0.188 -0.062,-0.052 -0.146,-0.031 -0.188,0.031 -1.875,2.489 -4.469,4.646 -7.729,4.656 -3.845,0.01 -7.854,-0.333 -11.396,1.583 -2.896,1.562 -4.26,4.53 -6.604,6.75 -1.312,1.239 -2.928,2 -4.75,1.729 -1.938,-0.281 -3.188,-1.948 -3.979,-3.573 l 0,0 c -0.031,-0.042 -0.083,-0.072 -0.136,-0.042 -0.053,0.022 -0.074,0.085 -0.053,0.126 l 0,0 z"
   id="path59"
   style="fill:#8f5946" />
	<path
   d="m 3.903,72.018 c 0.115,0.938 0.042,1.906 -0.25,2.75 -2.167,6.323 -4.219,12.625 -3.51,19.354 0.75,7.167 7.573,11.438 14.021,12.875 0.104,0.042 0.208,-0.021 0.239,-0.115 0.042,-0.104 -0.021,-0.208 -0.114,-0.25 C 9.956,104.788 5.236,103.08 2.569,98.747 0.59,95.539 0.747,92.018 0.975,88.527 1.256,84.298 2.694,80.36 4.006,76.319 4.454,74.914 4.194,73.444 4.11,71.997 l 0,0 C 4.099,71.944 4.048,71.902 3.996,71.902 3.944,71.914 3.903,71.966 3.903,72.018 l 0,0 z"
   id="path61"
   style="fill:#8f5946" />
	<path
   d="m 11.747,99.758 c 0.114,6.344 5.188,10.74 10.104,13.927 0.052,0.031 0.125,0.021 0.167,-0.031 0.042,-0.052 0.031,-0.136 -0.021,-0.177 -4.406,-3.562 -9.406,-7.75 -10.062,-13.75 l 0,0 c 0,-0.052 -0.052,-0.094 -0.115,-0.083 -0.052,0.01 -0.084,0.062 -0.073,0.114 l 0,0 z"
   id="path63"
   style="fill:#8f5946" />
	<path
   d="m 0.913,95.695 c 0.094,1.5 0.771,2.886 0.896,4.354 0.177,2.261 0.385,4.396 0.917,6.646 1,4.303 2.594,7.97 5.177,11.646 2.303,3.26 5.553,5.042 9.198,6.135 3.958,1.177 7.761,2.188 11.636,3.51 1.303,0.438 2.323,1.312 3.5,1.958 0.053,0.031 0.114,0.011 0.146,-0.042 0.031,-0.052 0.011,-0.114 -0.031,-0.136 -3.052,-2.177 -6.323,-3.812 -10.042,-4.792 -2.75,-0.719 -5.396,-1.323 -7.917,-2.562 C 5.757,118.183 3.653,108.058 2.424,99.234 2.299,98.317 1.663,97.526 1.341,96.621 1.226,96.309 1.195,95.975 1.112,95.651 1.101,95.599 1.04,95.557 0.987,95.568 0.935,95.579 0.893,95.641 0.904,95.693 l 0.009,0.002 0,0 z"
   id="path65"
   style="fill:#8f5946" />
	<path
   d="m 42.018,77.029 c -0.5,0.938 -0.875,1.928 -1.75,2.604 -2.886,2.219 -5.5,4.073 -7.573,7.177 -1.958,2.927 -2.738,6.219 -2.385,9.573 0,0.104 0.094,0.188 0.198,0.188 0.104,0 0.198,-0.083 0.198,-0.188 -0.188,-5.885 3.197,-11.156 8.167,-14.604 1.697,-1.188 2.667,-2.812 3.322,-4.655 0.031,-0.053 0.012,-0.115 -0.042,-0.137 -0.052,-0.031 -0.104,-0.01 -0.135,0.042 l 0,0 z"
   id="path67"
   style="fill:#8f5946" />
	<path
   d="m 38.778,88.612 c 0.428,-3.447 1.99,-6.688 3.095,-9.979 2.25,-3.729 5.76,-6.396 9.552,-8.635 3.094,-1.812 6.364,-2.625 9.469,-4.458 2.438,-1.428 3.833,-3.781 5.625,-5.792 0.062,-0.073 0.062,-0.167 0,-0.229 -0.062,-0.062 -0.167,-0.062 -0.229,0 -1.864,1.833 -3.489,3.875 -5.845,5.219 -3.155,1.803 -6.458,2.646 -9.572,4.512 -3.917,2.344 -7.521,5.155 -9.792,9.052 -1.062,3.375 -2.062,6.812 -2.512,10.312 0,0.053 0.053,0.095 0.104,0.095 0.053,-0.003 0.105,-0.045 0.105,-0.097 l 0,0 z"
   id="path69"
   style="fill:#8f5946" />
	<path
   d="m 34.84,71.904 c 1.042,-5.146 3.875,-9.854 8.438,-12.583 0.178,-0.155 0.188,-0.417 0.031,-0.594 -0.156,-0.167 -0.417,-0.177 -0.583,-0.021 -2.489,1.646 -4.802,3.625 -6.104,6.405 -1.021,2.156 -1.323,4.49 -1.979,6.74 -0.011,0.052 0.021,0.104 0.073,0.115 0.052,0.021 0.103,-0.01 0.124,-0.062 l 0,0 z"
   id="path71"
   style="fill:#8f5946" />
	<path
   d="m 41.934,66.32 c 0.229,-0.53 0.542,-1.03 0.646,-1.614 0.385,-2.011 0.572,-3.845 1.042,-5.812 0.635,-2.719 2.604,-4.594 4.572,-6.417 2.365,-2.167 5.323,-2.938 7.803,-4.948 1.447,-1.188 2.427,-2.655 3.792,-3.927 1.989,-1.865 4.53,-2.479 7.125,-3.125 5.021,-1.25 9.75,-2.135 14.688,-3.552 1.115,-0.323 2.198,-0.646 3.271,-1.073 0.062,-0.031 0.083,-0.104 0.062,-0.156 -0.031,-0.062 -0.094,-0.083 -0.156,-0.062 -2.905,1.094 -5.875,1.438 -9.021,2.021 -3.156,0.595 -6.031,1.178 -9.135,1.948 -3.906,0.969 -7.386,2.479 -9.906,5.906 -0.76,1.031 -1.677,1.865 -2.833,2.396 -3.958,1.854 -7.396,4.239 -9.927,8.031 -1.823,2.739 -1.5,5.906 -1.72,8.927 -0.03,0.47 -0.25,0.938 -0.489,1.365 -0.021,0.052 0,0.115 0.052,0.135 0.051,0.03 0.103,0.01 0.134,-0.043 l 0,0 z"
   id="path73"
   style="fill:#8f5946" />
	<path
   d="M 6.601,81.081 C 5.934,79.57 5.612,78.019 5.205,76.383 4.757,74.56 4.622,72.862 4.934,71.018 c 0.604,-3.562 1.792,-6.677 3.792,-9.771 2.094,-3.25 4.656,-5.771 6.5,-9 0.125,-0.156 0.094,-0.387 -0.073,-0.512 -0.155,-0.113 -0.385,-0.083 -0.5,0.073 -4.417,5.76 -9.26,11.458 -10.447,19 -0.271,1.688 -0.137,3.26 0.188,4.979 0.375,1.969 1.354,3.562 2.021,5.354 0.011,0.052 0.072,0.073 0.125,0.062 0.05,-0.018 0.082,-0.07 0.061,-0.122 l 0,0 z"
   id="path75"
   style="fill:#8f5946" />
	<path
   d="m 19.601,72.31 c 1.094,-5.625 5.511,-9.438 9.104,-13.542 2.229,-4.135 4.802,-8.062 7.697,-11.771 4.812,-4.823 10.553,-8.604 16.375,-12.104 0.198,-0.104 0.271,-0.354 0.167,-0.552 -0.104,-0.198 -0.354,-0.271 -0.552,-0.167 -0.49,0.104 -0.906,0.344 -1.333,0.615 -5.677,3.625 -11,6.75 -15.385,11.78 -3.125,3.604 -5.583,7.47 -7.646,11.667 -1.688,2.198 -3.708,3.928 -5.405,6.271 -1.74,2.417 -2.604,5 -3.208,7.74 -0.021,0.052 0.011,0.104 0.062,0.125 0.051,0.011 0.103,-0.01 0.124,-0.062 l 0,0 z"
   id="path77"
   style="fill:#8f5946" />
	<path
   d="m 19.278,59.174 c 5.345,2.073 9.781,-2.427 12.812,-6.469 1.083,-1.448 1.969,-2.864 3,-4.261 0.052,-0.072 0.031,-0.167 -0.031,-0.219 -0.073,-0.042 -0.167,-0.031 -0.208,0.042 -2.521,2.927 -4.823,5.927 -7.812,8.542 -1.417,1.229 -2.97,2 -4.803,2.427 -0.989,0.229 -1.958,0.031 -2.896,-0.26 l 0,0 c -0.062,-0.01 -0.115,0.021 -0.125,0.073 -0.021,0.053 0.011,0.105 0.063,0.125 l 0,0 z"
   id="path79"
   style="fill:#8f5946" />
	<path
   d="m 36.903,115.091 c -1.292,-1.323 -2.302,-3.219 -1.688,-5.104 1.688,-1.833 3.292,-3.635 4.583,-5.875 0.396,-0.677 0.875,-1.26 1.354,-1.863 0.053,-0.053 0.042,-0.146 -0.01,-0.188 -0.052,-0.052 -0.136,-0.042 -0.188,0.01 -0.896,1.136 -1.74,2.261 -2.656,3.438 -0.938,1.229 -1.886,2.271 -3.052,3.281 -1.375,1.197 -1.178,3.167 -0.386,4.625 0.438,0.792 1.25,1.25 1.875,1.885 0.073,0.062 0.178,0.052 0.229,-0.021 0.062,-0.072 0.052,-0.177 -0.021,-0.229 l -0.04,0.041 z"
   id="path81"
   style="fill:#8f5946" />
	<path
   d="m 15.934,61.737 c -0.635,-0.896 -0.708,-1.938 -0.771,-2.988 -0.156,-2.573 0.094,-5.146 0.75,-7.637 3.511,-7.135 8.917,-12.875 15.042,-18.135 9.646,-8.271 20.562,-12.927 31.51,-19.208 0.542,-0.302 1.083,-0.677 1.531,-1.135 0.094,-0.062 0.125,-0.198 0.062,-0.292 -0.073,-0.104 -0.208,-0.125 -0.302,-0.062 -1.979,1.229 -4.114,2.073 -6.198,3.208 -6.792,3.708 -13.115,6.823 -19.75,11.262 -9.301,6.216 -16.718,13.268 -22.093,22.81 -1.781,3.188 -1.323,6.771 -0.917,10.229 0.083,0.78 0.594,1.364 0.948,2.03 0.03,0.042 0.083,0.073 0.135,0.042 0.053,-0.02 0.074,-0.082 0.053,-0.124 l 0,0 z"
   id="path83"
   style="fill:#8f5946" />
	<path
   d="m 57.413,20.237 c 2.28,-2.833 4.405,-5.613 7.511,-7.875 3.167,-2.312 6.396,-3.854 9.885,-5.26 5.479,-2.198 11.302,-2.719 17.125,-3.052 3.896,-0.219 7.635,-0.219 11.615,-1.052 2.667,-0.562 5.031,-1.012 7.698,-1.542 3.802,-0.75 7.322,-0.761 11.083,-0.073 2.292,0.417 4.405,0.667 6.655,1.26 0.938,0.25 1.948,0.448 2.896,0.146 0.24,-0.104 0.354,-0.375 0.261,-0.615 -0.104,-0.239 -0.375,-0.354 -0.615,-0.25 -0.76,0.156 -1.51,0 -2.26,-0.156 C 127.392,1.383 125.725,1.049 123.861,0.716 122.997,0.56 122.194,0.32 121.35,0.237 117.975,-0.085 114.736,-0.148 111.298,0.499 107.256,1.259 103.59,2.228 99.59,2.654 94.975,3.143 90.475,3.102 85.85,3.612 81.048,4.154 76.475,5.258 72.058,7.216 65.881,9.955 60.631,14.278 57.246,20.101 l 0,0 c -0.042,0.052 -0.042,0.125 0.021,0.167 0.052,0.042 0.125,0.042 0.167,-0.021 l -0.021,-0.01 z"
   id="path85"
   style="fill:#8f5946" />
	<path
   d="m 41.028,34.331 c 1.854,1.021 4.011,1.167 6.062,1.197 2.083,0.042 4.115,-0.521 6.104,-1.146 4.137,-1.302 6.845,-4.75 10.646,-6.688 4.938,-2.521 10.417,-2.78 15.688,-4.438 5.323,-1.656 9.406,-5.083 13.636,-8.688 2.822,-2.405 4.969,-5.188 7.386,-7.844 0.073,-0.073 0.073,-0.188 0,-0.271 -0.073,-0.073 -0.188,-0.073 -0.261,0 -3.021,2.197 -5.083,5.261 -8.053,7.697 -3.125,2.553 -5.958,5.095 -9.552,6.845 -7.76,3.771 -17.156,2.719 -23.844,8.958 -1.844,1.729 -3.958,3 -6.396,3.677 -1.78,0.49 -3.521,0.948 -5.354,1.083 -1.271,0.094 -2.51,0 -3.781,0.042 -0.76,0.021 -1.51,-0.24 -2.188,-0.604 -0.053,-0.03 -0.115,-0.011 -0.136,0.042 -0.03,0.055 -0.009,0.117 0.043,0.138 l 0,0 z"
   id="path87"
   style="fill:#8f5946" />
	<path
   d="m 101.309,5.779 c 0,0.053 0.042,0.095 0.094,0.095 0.062,0 0.104,-0.042 0.104,-0.095 l 0,0 c 0,-0.062 -0.042,-0.104 -0.104,-0.104 -0.052,-10e-4 -0.094,0.041 -0.094,0.104 l 0,0 z"
   id="path89"
   style="fill:#8f5946" />
	<path
   d="m 85.132,20.529 c 6.844,-5.072 15.552,-5.854 23.854,-6.614 2.281,-0.208 4.479,-0.792 6.521,-1.948 1.427,-0.812 2.594,-1.875 4,-2.646 0.052,-0.03 0.073,-0.094 0.042,-0.146 -0.031,-0.052 -0.094,-0.062 -0.146,-0.031 -7.375,5.469 -16.947,3.386 -25.396,6.094 -3.375,1.073 -6.427,2.729 -8.989,5.125 l 0,0 c -0.042,0.031 -0.062,0.095 -0.031,0.137 0.031,0.039 0.093,0.06 0.145,0.029 l 0,0 z"
   id="path91"
   style="fill:#8f5946" />
	<path
   d="m 159.768,93.987 c -0.448,-1.635 0.354,-3.094 1.677,-4.03 2.417,-1.72 3.99,-3.792 5.812,-5.979 0.688,-0.833 1.458,-1.542 2.479,-1.865 3.803,-1.197 8.042,-0.635 11.261,-3.292 0.062,-0.03 0.083,-0.114 0.042,-0.177 -0.031,-0.062 -0.114,-0.083 -0.167,-0.042 -1.386,0.812 -2.886,1.51 -4.49,1.677 -2.01,0.22 -3.958,0.104 -5.989,0.573 -1.625,0.375 -2.886,1.302 -3.865,2.594 -2.155,2.845 -4.625,4.833 -6.75,7.678 -0.646,0.854 -0.469,1.927 -0.208,2.905 0.012,0.053 0.073,0.095 0.125,0.083 0.053,-0.01 0.095,-0.072 0.083,-0.125 l -0.01,0 0,0 z"
   id="path93"
   style="fill:#8f5946" />
	<path
   d="m 163.799,86.924 c 1.833,-1.25 2.885,-3.604 2.719,-5.76 -0.146,-1.854 -1.458,-3.312 -2.125,-5.031 -2.406,-6.177 1.698,-12.646 7,-16.333 2.375,-1.656 4.948,-2.229 7.698,-1.854 3.938,0.542 7.323,2.948 11.292,2.823 5.844,-0.177 11.354,-3.03 15.156,-7.469 0.062,-0.062 0.052,-0.177 -0.011,-0.239 -0.072,-0.062 -0.177,-0.052 -0.239,0.021 -4.354,4.021 -9.979,7.156 -16.053,6.708 -3.53,-0.25 -6.604,-2.24 -10.155,-2.656 -8.49,-1.01 -15.5,7 -16.24,14.948 -0.25,2.667 0.896,5.052 2.292,7.396 1.448,2.428 0.396,5.438 -1.448,7.281 l 0,0 c -0.052,0.042 -0.052,0.104 -0.021,0.146 0.03,0.04 0.093,0.051 0.135,0.019 l 0,0 z"
   id="path95"
   style="fill:#8f5946" />
	<path
   d="m 186.715,59.935 c 3.25,1.239 6.104,2.781 9.125,4.875 1.052,0.739 2.188,1.114 3.438,1.271 2,0.25 3.906,-0.25 5.886,-0.073 2.114,0.198 3.938,1.208 5.989,1.812 2.542,0.74 5.073,0.053 7.323,-1.417 2.521,-1.646 4,-4.155 4.656,-6.947 0.031,-0.095 -0.01,-0.188 -0.104,-0.22 -0.094,-0.03 -0.188,0.012 -0.219,0.104 -1.24,4.646 -6.01,8.646 -11.083,7.635 -1.989,-0.406 -3.552,-1.396 -5.552,-1.771 -2.438,-0.458 -4.677,0.302 -7.073,-0.083 -2.125,-0.345 -3.771,-1.448 -5.552,-2.72 -2.104,-1.5 -4.469,-1.905 -6.781,-2.655 l 0,0 c -0.052,-0.021 -0.104,0.01 -0.125,0.062 -0.011,0.054 0.01,0.116 0.072,0.127 l 0,0 z"
   id="path97"
   style="fill:#8f5946" />
	<path
   d="m 208.944,66.654 c 1.292,1.167 3.115,1.489 4.365,2.688 4.875,4.688 4.458,11.739 3.083,18.021 -0.844,3.832 -2.812,6.886 -5.531,9.655 -1.792,1.833 -2.417,4.375 -4.239,6.198 -3.031,3.042 -6.928,4.677 -10.573,6.708 l 0,0 c -0.052,0.031 -0.073,0.094 -0.042,0.146 0.031,0.053 0.094,0.073 0.146,0.043 4.25,-2.386 9.095,-3.823 12.25,-7.979 1.167,-1.552 1.958,-3.188 3.053,-4.708 4.562,-3.667 6.197,-9.542 6.613,-15.146 0.365,-4.887 -0.177,-10.312 -4.405,-13.595 -1.386,-1.073 -3.114,-1.323 -4.595,-2.188 -0.042,-0.031 -0.104,-0.031 -0.135,0.01 -0.041,0.042 -0.031,0.105 0.01,0.147 l 0,0 z"
   id="path99"
   style="fill:#8f5946" />
	<path
   d="m 216.903,86.498 c -0.219,2.219 -1.062,4.344 -0.905,6.594 0.052,0.76 0.572,1.375 1.239,1.792 2.573,1.615 5.479,1.729 8.333,1.521 0.095,-0.012 0.156,-0.083 0.146,-0.178 0,-0.094 -0.083,-0.155 -0.177,-0.155 -2.739,-0.053 -5.489,-0.417 -7.938,-1.886 -0.396,-0.239 -0.75,-0.594 -0.844,-1.072 -0.438,-2.271 0.208,-4.386 0.354,-6.595 0,-0.052 -0.042,-0.104 -0.094,-0.113 -0.052,-0.002 -0.104,0.039 -0.114,0.092 l 0,0 z"
   id="path101"
   style="fill:#8f5946" />
	<path
   d="m 208.257,102.06 c 0.886,-1.552 2.198,-2.719 3.771,-3.636 2.115,-1.229 4.22,-2.427 6.646,-2.656 0.229,-0.01 0.417,-0.208 0.406,-0.438 0,-0.239 -0.198,-0.417 -0.428,-0.417 -4.271,0.635 -8.614,3.072 -10.572,7.03 -0.042,0.062 -0.021,0.125 0.03,0.156 0.062,0.042 0.125,0.021 0.156,-0.031 l -0.009,-0.008 z"
   id="path103"
   style="fill:#8f5946" />
	<path
   d="m 190.903,79.643 c -0.104,1.74 -0.021,3.698 1.406,4.875 2.312,1.917 4.583,3.75 7.594,4.406 2.073,0.458 4.062,0.094 6.021,-0.438 0.094,-0.021 0.156,-0.104 0.135,-0.197 -0.021,-0.095 -0.115,-0.146 -0.208,-0.125 -3.052,0.875 -6.344,0.521 -8.938,-1.5 -0.345,-0.261 -0.667,-0.553 -1.031,-0.74 -2.5,-1.219 -5.239,-3.198 -4.771,-6.281 l 0,0 c 0,-0.062 -0.052,-0.104 -0.104,-0.104 -0.052,0 -0.104,0.042 -0.104,0.104 l 0,0 z"
   id="path105"
   style="fill:#8f5946" />
	<path
   d="m 141.528,111.102 c 4.47,-0.625 8.615,-2.354 12.729,-4.312 5.136,-2.438 10.636,-3.365 15.969,-5.26 3.031,-1.083 5.75,-2.72 8.833,-3.698 4.417,-1.406 8.75,-2.72 12.344,-5.845 2.49,-2.155 2.917,-5.812 1.167,-8.488 -0.083,-0.229 -0.354,-0.354 -0.583,-0.262 -0.239,0.083 -0.364,0.354 -0.271,0.595 1.01,1.74 1.51,3.875 0.385,5.677 -3.364,5.365 -9.844,5.958 -15.156,8.104 -3.5,1.417 -6.667,3.229 -10.427,4.167 -4.438,1.094 -8.583,2.271 -12.656,4.167 -4.062,1.896 -7.958,4.135 -12.375,4.969 l 0,0 c -0.052,0 -0.083,0.052 -0.072,0.115 -0.002,0.05 0.05,0.081 0.113,0.071 l 0,0 z"
   id="path107"
   style="fill:#8f5946" />
	<path
   d="m 191.486,91.331 c 0.97,-0.979 1.312,-2.375 2.375,-3.239 1.021,-0.833 2.625,-0.458 3.833,-0.073 0.188,0.083 0.417,-0.01 0.49,-0.198 0.083,-0.197 -0.01,-0.417 -0.198,-0.5 -1.572,-0.594 -3.905,-0.822 -4.896,0.793 -0.635,1.052 -1.01,2.155 -1.76,3.104 -0.031,0.042 -0.031,0.104 0.021,0.135 0.042,0.03 0.104,0.03 0.135,-0.022 l 0,0 z"
   id="path109"
   style="fill:#8f5946" />
	<path
   d="m 192.663,88.893 c 0.625,-0.75 0.636,-1.75 1.062,-2.583 l 0.031,-0.219 -0.062,0.156 0.073,-0.083 c 0.031,-0.031 0.042,-0.053 0.052,-0.083 l 0.178,-0.261 -0.354,0.167 0.146,0.042 -0.042,-0.021 0.26,0.125 -0.125,-0.125 0.125,0.26 -0.021,-0.177 -0.042,0.229 c -0.052,0.188 -0.113,0.365 -0.167,0.553 l -0.104,0.125 c -0.042,0.062 -0.052,0.125 -0.052,0.188 l 0.01,0.135 c 0.011,0.104 0.073,0.208 0.177,0.25 l 0.031,0.011 c 0.083,0.042 0.177,0.03 0.25,-0.011 l 0.219,-0.114 c 0.042,-0.031 0.083,-0.062 0.104,-0.114 l 0.114,-0.188 c 0.021,-0.03 0.031,-0.062 0.042,-0.094 l 0.021,-0.125 c 0.021,-0.083 0,-0.156 -0.042,-0.219 l -0.042,-0.083 c -0.052,-0.083 -0.146,-0.135 -0.239,-0.135 h -0.354 c -0.438,0.03 -0.698,0.438 -0.875,0.792 v 0.271 c 0.011,0.125 0.114,0.219 0.229,0.239 l 0.188,0.031 c 0.072,0.011 0.146,0 0.197,-0.042 l 0.208,-0.146 c 0.114,-0.135 0.22,-0.281 0.312,-0.438 l 0.177,-0.333 c 0.031,-0.062 0.042,-0.125 0.031,-0.198 l -0.062,-0.229 c -0.072,-0.208 -0.238,-0.344 -0.385,-0.5 l -0.49,-0.312 c -0.03,-0.01 -0.052,-0.021 -0.083,-0.021 -0.167,-0.03 -0.322,0.083 -0.354,0.25 l -0.021,0.208 c 0.053,0.292 0.239,0.5 0.448,0.688 l 0.438,0.156 c 0.094,0.021 0.197,0 0.271,-0.073 l 0.281,-0.302 c 0.156,-0.312 0.073,-0.678 -0.136,-1.053 l -0.396,-0.405 c -0.062,-0.083 -0.167,-0.125 -0.271,-0.125 l -0.083,0.011 c -0.042,0 -0.083,0.01 -0.125,0.031 -0.156,0.083 -0.208,0.271 -0.136,0.417 l 0.053,0.094 c 0.385,0.917 1.238,1.5 2.219,1.625 0.167,0.052 0.333,-0.042 0.375,-0.198 0.042,-0.156 -0.042,-0.323 -0.208,-0.375 -0.604,-0.156 -1.188,-0.365 -1.667,-0.844 -0.062,-0.073 -0.323,0.052 -0.511,0.104 l 0.292,-0.688 -0.262,0.448 h 0.083 l -0.197,-0.053 0.292,0.261 c 0,-0.011 -0.011,-0.021 -0.011,-0.031 0.083,0.104 0.178,0.208 0.261,0.312 l -0.261,0.354 0.281,-0.073 -0.386,-0.177 c 0.156,0.312 -0.167,0.24 -0.271,0.344 l 0.25,-0.552 -0.479,0.198 0.406,0.239 c -0.011,-0.011 -0.031,-0.021 -0.042,-0.03 l 0.302,0.427 0.031,-0.188 -0.271,0.49 c 0.01,-0.01 0.021,-0.01 0.031,-0.021 l -0.24,0.229 0.198,-0.042 -0.188,-0.031 0.239,0.24 0.136,-0.312 0.011,0.01 0.489,-0.083 -0.239,-0.136 0.062,0.083 -0.042,-0.22 -0.021,0.136 0.03,-0.083 -0.104,0.188 0.104,-0.104 -0.208,0.114 0.25,-0.01 -0.03,-0.021 0.177,0.25 -0.01,-0.136 -0.053,0.188 0.24,-0.49 c 0,-0.01 0.01,-0.031 0.01,-0.042 l 0.146,-0.625 c 0.01,-0.062 0,-0.125 -0.031,-0.188 l -0.136,-0.25 c -0.031,-0.053 -0.083,-0.104 -0.135,-0.125 l -0.261,-0.125 c -0.011,0 -0.03,-0.012 -0.042,-0.012 l -0.135,-0.052 c -0.115,-0.031 -0.229,0.01 -0.302,0.094 l -0.167,0.261 0,0 -0.073,0.083 c -0.042,0.042 -0.062,0.094 -0.073,0.155 l -0.072,0.303 c -0.24,0.812 -0.261,1.677 -0.636,2.458 l 0,0 c -0.03,0.052 -0.011,0.114 0.042,0.135 0.048,0.034 0.111,0.013 0.142,-0.029 l 0,0 z"
   id="path111"
   style="fill:#8f5946" />
	<path
   d="m 176.059,36.258 c 3.656,-1.823 7.781,-2.312 11.844,-1.781 2.542,0.333 4.938,0.99 7.479,1.24 3.25,0.323 6.438,0.333 9.698,0.625 6.488,0.583 11.146,5.01 15.905,9.135 2.72,2.344 5.167,4.51 8.042,6.719 3.479,2.668 7.428,4.021 10.104,7.636 3,4.042 4.271,8.333 7.219,12.458 2.188,3.042 5.386,4.28 7.854,6.844 0.78,0.812 1.667,1.552 1.905,2.698 0.595,2.917 -0.375,5.511 -1.094,8.208 l 0,0 c -0.042,0.177 0.083,0.354 0.26,0.385 0.188,0.031 0.354,-0.083 0.396,-0.271 1.188,-2.739 1.844,-5.708 1.354,-8.708 -1.312,-2.802 -3.78,-4.5 -6.396,-6.28 -0.864,-0.595 -1.542,-1.22 -2.239,-1.958 -4.688,-4.989 -5.823,-12.073 -10.938,-16.521 -3.979,-2.729 -8.115,-5.021 -11.781,-8.344 -3.896,-3.542 -7.479,-6.677 -11.906,-9.781 -2.333,-1.625 -4.74,-2.5 -7.479,-2.958 -3.553,-0.594 -6.97,-0.479 -10.489,-0.78 -3.886,-0.333 -7.615,-1.521 -11.521,-1.293 -2.917,0.178 -5.822,0.979 -8.322,2.553 l 0,0 c -0.053,0.03 -0.062,0.094 -0.042,0.146 0.03,0.052 0.094,0.062 0.146,0.042 v -0.014 l 0.001,0 z"
   id="path113"
   style="fill:#8f5946" />
	<path
   d="m 187.913,20.654 c 0.604,0.521 1.167,1.042 1.792,1.553 2.25,1.833 4.905,2.636 7.01,4.636 2.542,2.396 4.604,4.927 7.385,7.125 2.198,1.729 4.292,3.604 7.042,4.083 0.177,0.031 0.344,-0.083 0.375,-0.26 0.031,-0.178 -0.083,-0.354 -0.261,-0.385 -6.135,-2.323 -9.864,-7.75 -14.969,-11.887 -1.97,-1.594 -4.229,-2.198 -6.364,-3.552 -0.688,-0.438 -1.281,-0.948 -1.886,-1.469 -0.042,-0.031 -0.104,-0.031 -0.146,0.01 -0.03,0.041 -0.019,0.104 0.022,0.146 l 0,0 z"
   id="path115"
   style="fill:#8f5946" />
	<path
   d="m 218.819,49.299 c 3.053,4.917 9.053,5.802 14.137,7.604 1.708,0.604 3.26,1.386 4.771,2.521 2.594,1.958 3.875,4.761 5.656,7.271 0.062,0.104 0.208,0.146 0.312,0.073 0.115,-0.062 0.146,-0.208 0.083,-0.312 -1.604,-3.656 -3.905,-7.104 -7.572,-9.062 -5.708,-3.062 -13.208,-2.635 -17.22,-8.208 l 0,0 c -0.03,-0.042 -0.083,-0.062 -0.136,-0.03 -0.041,0.029 -0.062,0.092 -0.031,0.143 l 0,0 z"
   id="path117"
   style="fill:#8f5946" />
	<path
   d="m 236.33,82.039 c 3.613,3.375 3.979,8.697 3.562,13.354 0.604,4.75 5.104,7.906 9.344,9.354 0.083,0.03 0.167,-0.021 0.198,-0.104 0.031,-0.083 -0.01,-0.167 -0.094,-0.198 -3.427,-1.125 -6.135,-3.76 -7.906,-6.896 -0.802,-1.427 -0.719,-3.104 -0.552,-4.781 0.396,-4.125 -1.26,-8.167 -4.396,-10.854 -0.042,-0.042 -0.104,-0.053 -0.146,-0.021 -0.041,0.042 -0.041,0.105 -0.01,0.146 l 0,0 z"
   id="path119"
   style="fill:#8f5946" />
	<path
   d="m 223.955,24.091 c 0.363,0.573 0.958,0.864 1.542,0.969 10.094,1.854 18.562,7.667 23.552,16.479 1.229,2.177 2.167,4.53 2.125,7 -0.031,1.614 -0.521,3.188 -0.74,4.792 l 0,0 c -0.021,0.146 0.073,0.292 0.229,0.312 0.146,0.031 0.292,-0.073 0.312,-0.219 0.386,-2.354 1.562,-4.583 0.948,-7.073 -1.417,-5.75 -4.865,-10.25 -9.261,-14.021 -3.604,-3.073 -7.511,-5.438 -11.958,-6.928 -1.875,-0.625 -3.75,-0.78 -5.729,-1.208 -0.312,-0.072 -0.583,-0.219 -0.854,-0.375 -0.104,-0.062 -0.24,-0.03 -0.303,0.073 -0.062,0.104 -0.03,0.24 0.073,0.302 l 0.064,-0.103 z"
   id="path121"
   style="fill:#8f5946" />
	<path
   d="m 250.069,43.945 c 0.531,2.845 3.042,4.312 5.387,5.845 4.583,3.01 6.969,7.239 10.146,11.572 3.448,4.708 5.656,9.688 6.75,15.178 0.136,3.385 0.875,6.958 -0.364,10.197 -0.021,0.062 0.011,0.125 0.073,0.146 0.063,0.021 0.125,-0.01 0.146,-0.073 3.155,-8.219 0.125,-16.948 -4.698,-24.281 -2.198,-3.344 -4.323,-6.155 -6.792,-9.239 -2.656,-3.312 -6.292,-4.958 -9.417,-7.708 -0.49,-0.438 -0.761,-1.083 -1.021,-1.708 l 0,0 c -0.021,-0.053 -0.083,-0.083 -0.135,-0.062 -0.064,0.019 -0.085,0.071 -0.075,0.133 l 0,0 z"
   id="path123"
   style="fill:#8f5946" />
	<path
   d="m 256.08,80.789 c 0.229,2.75 2.958,3.812 4.604,5.646 1.365,1.51 1.969,3.479 2.646,5.385 1.25,3.562 0.469,7.198 -0.262,10.74 -1.155,2.583 -2.104,5.125 -3.822,7.583 -1.833,2.625 -4.229,4.438 -7.042,5.531 -3.49,1.365 -7.387,2.083 -9.845,5.146 l 0,0 c -0.042,0.042 -0.042,0.115 0,0.156 0.042,0.052 0.114,0.052 0.167,0 1.24,-1.458 2.781,-2.604 4.595,-3.167 2.385,-0.729 4.812,-1.062 7.042,-2.125 2.917,-1.375 5.28,-3.625 6.833,-6.542 1.125,-2.114 2.271,-4.114 2.896,-6.427 0.531,-1.917 0.938,-3.812 1.052,-5.771 0.208,-3.76 -1.146,-7.219 -2.988,-10.51 -0.833,-1.479 -2.428,-2.042 -3.625,-3.167 -0.823,-0.771 -1.229,-1.823 -2.062,-2.573 l 0,0 c -0.021,-0.052 -0.083,-0.072 -0.136,-0.052 -0.064,0.022 -0.084,0.095 -0.053,0.147 l 0,0 z"
   id="path125"
   style="fill:#8f5946" />
	<path
   d="m 160.226,134.768 c 0.771,-0.302 1.344,-0.927 2.198,-1.042 0.896,-0.115 1.771,-0.052 2.656,-0.135 3.51,-0.323 6.083,-2.844 9.229,-4.136 2.854,-1.178 5.938,-1.083 9.031,-1.5 4.375,-0.595 8.188,-2.604 12.188,-4.281 4.845,-2.01 9.97,-2.906 14.761,-5.062 3.03,-1.363 5.552,-3.458 7.905,-5.875 1.637,-1.667 2.865,-3.51 4.562,-5.125 0.386,-0.363 0.886,-0.521 1.365,-0.613 6.208,-1.115 12.989,-3.031 15.469,-9.198 0.604,-1.51 0.885,-3.146 0.969,-4.792 0.01,-0.094 -0.042,-0.167 -0.135,-0.177 -0.083,-0.011 -0.167,0.042 -0.177,0.136 -0.115,2.177 -1.146,4.042 -2.281,5.917 -3.021,5.021 -8.667,6.083 -14.094,7.219 -1.083,0.22 -1.958,0.792 -2.656,1.678 -3.167,4.072 -6.635,7.51 -11.021,9.947 -4.688,1.823 -9.572,2.948 -14.28,4.803 -2.823,1.104 -5.489,2.396 -8.333,3.438 -2.656,0.969 -5.428,1.239 -8.229,1.479 -1.698,0.146 -3.354,0.385 -4.979,0.947 -2.188,0.74 -3.875,2.292 -5.958,3.24 -1.573,0.708 -3.229,1.104 -4.958,1.156 -1.323,0.042 -2.354,0.948 -3.375,1.729 l 0,0 c -0.083,0.053 -0.115,0.167 -0.062,0.25 0.052,0.083 0.167,0.115 0.25,0.062 l -0.045,-0.065 z"
   id="path127"
   style="fill:#8f5946" />
	<path
   d="m 153.59,154.727 c 2.552,-3.792 6.135,-6.521 10.156,-8.896 4.167,-2.479 8.614,-1.781 13.177,-0.885 3.771,0.739 7.385,0.155 11.042,-0.396 0.073,-0.01 0.125,-0.073 0.115,-0.146 -0.012,-0.073 -0.073,-0.125 -0.146,-0.125 -5.656,0.875 -11.292,-0.25 -16.854,-1.24 -7.5,0.072 -13.833,5.51 -17.656,11.583 l 0,0 c -0.031,0.042 -0.021,0.104 0.031,0.135 0.042,0.032 0.104,0.022 0.135,-0.03 l 0,0 z"
   id="path129"
   style="fill:#8f5946" />
	<path
   d="m 165.924,144.445 c 2.042,-0.219 4.385,-0.188 5.729,-2.01 1.448,-1.969 1.303,-4.417 2.312,-6.542 1.531,-3.25 3.677,-6.396 7,-7.979 -0.021,0.021 -0.031,0.03 -0.052,0.052 0.208,-0.062 0.333,-0.281 0.271,-0.49 -0.052,-0.208 -0.271,-0.333 -0.479,-0.271 -3.156,0.927 -5.042,3.917 -6.762,6.655 -1.219,1.938 -1.719,3.948 -2.177,6.198 -0.562,2.802 -3.438,3.781 -5.875,4.177 -0.052,0.012 -0.094,0.062 -0.083,0.115 0.011,0.064 0.053,0.095 0.116,0.095 l 0,0 z"
   id="path131"
   style="fill:#8f5946" />
	<path
   d="m 194.278,130.914 c 3.428,3.667 8.375,4.697 13.229,5.333 5.396,0.708 10.604,0.135 15.917,0.072 2.885,-0.042 5.364,1.396 7.917,2.531 0.229,0.115 0.5,0.021 0.615,-0.198 0.113,-0.229 0.03,-0.5 -0.198,-0.614 -1.604,-0.708 -3.104,-1.615 -4.812,-2.104 -4.917,-1.396 -9.833,0.052 -14.792,-0.25 -3.021,-0.177 -5.896,-0.521 -8.947,-1.083 -3.25,-0.604 -6.375,-1.635 -8.803,-3.833 -0.042,-0.042 -0.104,-0.031 -0.135,0.012 -0.043,0.04 -0.033,0.103 0.009,0.134 l 0,0 z"
   id="path133"
   style="fill:#8f5946" />
	<path
   d="m 223.08,127.268 c 1.26,4.979 4.125,9.99 9.104,11.906 2.917,1.125 5.802,2.052 8.969,2.573 3.854,0.625 7.531,0.188 11.345,0.604 3.021,0.323 5.947,1.094 8.969,0.698 4.427,-0.594 8.448,-2.656 11.458,-6.042 2.604,-2.938 4.969,-5.823 6.531,-9.385 1.697,-3.865 3.229,-7.781 3.938,-11.938 0.021,-0.062 -0.021,-0.136 -0.083,-0.146 -0.073,-0.021 -0.135,0.021 -0.156,0.083 -0.697,4.135 -2.719,7.76 -4.489,11.542 -1.667,3.562 -3.948,6.552 -6.656,9.417 -3.146,3.344 -7.479,5.604 -12,5.604 -3.26,0 -6.479,-0.792 -9.739,-0.927 -2.99,-0.115 -5.906,0.01 -8.927,-0.427 -3.062,-0.448 -5.823,-1.448 -8.688,-2.448 -1.802,-0.625 -3.292,-1.812 -4.604,-3.229 -1.792,-1.927 -2.979,-4.083 -4.333,-6.354 -0.292,-0.479 -0.281,-1.052 -0.448,-1.583 l 0,0 c -0.011,-0.052 -0.062,-0.083 -0.115,-0.073 -0.066,0.011 -0.097,0.073 -0.076,0.125 l 0,0 z"
   id="path135"
   style="fill:#8f5946" />
	<path
   d="m 275.569,113.654 c 0.031,1.989 0.99,3.688 1.646,5.542 0.708,2.021 0.938,4.156 0.823,6.292 -0.104,1.812 -0.833,3.49 -1.136,5.262 -0.021,0.198 0.115,0.385 0.312,0.406 0.198,0.021 0.385,-0.115 0.406,-0.312 0.062,-0.677 0.427,-1.25 0.635,-1.886 1.396,-4.333 0.781,-9 -1.896,-12.979 -0.458,-0.677 -0.542,-1.521 -0.583,-2.344 l 0,0 c -0.01,-0.062 -0.062,-0.094 -0.114,-0.094 -0.051,0.008 -0.093,0.061 -0.093,0.113 l 0,0 z"
   id="path137"
   style="fill:#8f5946" />
	<path
   d="m 261.59,106.623 c -1.604,2.958 -4.604,6 -3.094,9.604 0.719,1.729 2.155,2.948 3.01,4.604 1.698,3.271 1.781,7.146 0.5,10.53 -0.021,0.062 0.011,0.137 0.073,0.156 0.062,0.021 0.125,-0.01 0.146,-0.073 1.229,-3.312 1.906,-7.094 0.333,-10.447 -0.833,-1.771 -2.26,-3.083 -3.125,-4.812 -1.656,-3.344 0.865,-6.53 2.323,-9.458 0.031,-0.052 0.011,-0.114 -0.031,-0.135 -0.051,-0.032 -0.114,-0.011 -0.135,0.031 l 0,0 z"
   id="path139"
   style="fill:#8f5946" />
	<path
   d="m 249.268,116.935 c 2.646,-0.688 5.302,-1.854 8.156,-1.312 0.552,0.104 1.021,0.396 1.333,0.863 1.177,1.762 2.208,3.375 3.458,4.958 0.052,0.073 0.167,0.095 0.24,0.031 0.083,-0.052 0.094,-0.156 0.042,-0.24 -1.75,-2.072 -1.875,-5.655 -4.845,-6.427 -2.375,-0.615 -4.583,0.604 -6.812,1.385 -0.542,0.188 -1.052,0.47 -1.635,0.553 l 0,0 c -0.053,0.01 -0.073,0.072 -0.062,0.125 0.02,0.053 0.072,0.085 0.125,0.064 l 0,0 z"
   id="path141"
   style="fill:#8f5946" />
	<path
   d="m 176.049,154.602 c 3.75,-1.854 7.979,-2.688 12.177,-2.135 4.458,0.583 8.552,2.188 13,2.583 7.24,0.636 14.323,0.511 21.573,1.344 9.688,1.104 19.01,3.073 28.114,6.262 7.438,1.457 14.5,4.896 22.125,5.062 2.427,0.062 4.875,-0.333 7.125,-1.417 3.167,-1.531 5.386,-4.135 7.239,-7.167 1.136,-1.854 1.823,-3.823 2.22,-5.906 0.042,-0.219 -0.104,-0.427 -0.323,-0.469 -0.229,-0.042 -0.438,0.104 -0.479,0.323 -1.292,5.208 -4.438,10.229 -9.438,12.5 -4.031,1.822 -8.417,1.479 -12.708,0.354 -3.344,-0.865 -6.365,-1.906 -9.74,-2.708 -7.583,-1.812 -14.198,-4.562 -21.875,-5.833 -4.188,-0.688 -8.073,-1.604 -12.229,-2 -3.188,-0.302 -6.312,-0.417 -9.49,-0.635 -4.927,-0.323 -9.698,-0.104 -14.708,-1.021 -3.656,-0.656 -6.979,-1.739 -10.594,-2.021 -4.178,-0.344 -8.323,0.896 -12.073,2.698 -0.052,0.031 -0.073,0.094 -0.052,0.135 0.031,0.051 0.094,0.072 0.136,0.051 l 0,0 z"
   id="path143"
   style="fill:#8f5946" />
	<path
   d="m 253.674,156.174 c 2.489,0.844 5.021,1.781 7.698,1.573 2.312,-0.188 4.614,-0.25 6.78,-1.24 3.011,-1.385 5.303,-3.479 8.062,-5.458 1.115,-0.802 1.76,-1.927 2.688,-2.854 0.062,-0.062 0.062,-0.177 0,-0.239 -0.072,-0.062 -0.177,-0.062 -0.239,0 -1.062,0.927 -1.803,2.114 -3.053,2.896 -2.489,1.552 -4.625,3.188 -7.188,4.479 -1.208,0.614 -2.448,1.021 -3.802,1.208 -3.688,0.521 -7.406,0.708 -10.886,-0.562 -0.052,-0.01 -0.104,0.01 -0.125,0.062 -0.019,0.052 0.013,0.115 0.065,0.135 l 0,0 z"
   id="path145"
   style="fill:#8f5946" />
	<path
   d="m 204.049,170.362 c 2.75,-1.375 5.26,-3.03 8.438,-3.677 2.104,-0.427 3.97,-0.99 6.042,-1.261 4.167,-0.531 8.271,-0.948 12.062,-2.719 0.073,-0.021 0.115,-0.104 0.083,-0.188 -0.021,-0.073 -0.115,-0.114 -0.188,-0.083 -4.146,1.708 -8.542,1.292 -13.021,2.25 -2.552,0.552 -4.865,1.167 -7.229,2.083 -2.271,0.865 -4.114,2.386 -6.271,3.417 l 0,0 c -0.052,0.021 -0.073,0.083 -0.052,0.135 0.031,0.054 0.094,0.074 0.136,0.043 l 0,0 z"
   id="path147"
   style="fill:#8f5946" />
	<path
   d="m 121.528,161.206 c 3.646,-0.708 7.583,-0.25 11,1.271 3.188,1.427 5.948,3.5 9.146,4.917 4.896,2.167 10.114,3.333 15.448,2.854 6.135,-0.553 12,-2.053 17.489,-5.042 4.198,-2.292 8.448,-3.875 12.771,-5.739 4.479,-1.927 9.083,-2.448 13.938,-3.281 3.667,-0.636 7.167,-0.302 10.74,-0.812 0.115,0 0.198,-0.094 0.198,-0.198 0,-0.104 -0.083,-0.198 -0.198,-0.198 -2.75,-0.302 -5.51,-0.219 -8.26,0 -3.448,0.271 -6.708,0.854 -10.188,1.615 -5.521,1.219 -10.28,3.521 -15.292,5.646 -8.988,5.125 -19.302,8.812 -30.062,6.405 -3.333,-0.738 -6.208,-2.021 -9.167,-3.594 -2.927,-1.562 -5.396,-3.594 -8.76,-4.312 -3.021,-0.656 -5.958,-0.5 -8.845,0.271 l 0,0 c -0.062,0.021 -0.094,0.073 -0.072,0.125 0.01,0.051 0.062,0.082 0.114,0.072 l 0,0 z"
   id="path149"
   style="fill:#8f5946" />
	<path
   d="m 107.694,175.498 c 9.49,3.688 18.823,-2.229 27.375,-5.75 2.823,-0.646 5.698,-0.792 8.583,-0.531 2.615,0.229 5.115,0.812 7.729,1.094 2.771,0.302 5.511,-0.073 8.229,-0.594 0.083,0 0.156,-0.083 0.146,-0.177 -0.01,-0.083 -0.083,-0.156 -0.177,-0.146 -2.667,0.333 -5.303,0.512 -8.012,0.094 -2.697,-0.405 -5.238,-1.021 -7.905,-1.219 -4.095,-0.292 -8.271,-0.167 -12.021,1.865 -4.021,2.188 -8,3.74 -12.406,4.927 -3.761,1 -7.771,1.51 -11.447,0.26 -0.053,-0.03 -0.114,-0.01 -0.136,0.043 -0.03,0.05 -0.009,0.113 0.042,0.134 l 0,0 z"
   id="path151"
   style="fill:#8f5946" />
	<path
   d="m 168.361,186.268 c 6.458,-1.781 12.75,-3.667 19.292,-5.583 3.97,-1.167 7.896,-1.625 11.886,-2.771 2.938,-0.845 5.655,-1.886 8.083,-3.803 3.052,-2.417 5.625,-4.75 8.938,-6.822 2.74,-1.698 5.667,-2.365 8.677,-3.021 0.104,-0.021 0.178,-0.135 0.146,-0.239 -0.021,-0.104 -0.125,-0.167 -0.229,-0.146 -3.104,0.698 -6.354,0.771 -9.188,2.74 -1.594,1.104 -3.167,1.844 -4.552,3.125 -1.396,1.292 -2.729,2.417 -4.281,3.562 -5.969,4.406 -13.01,4.854 -19.771,6.396 -6.364,2.104 -12.854,3.802 -19.042,6.375 -0.052,0.011 -0.083,0.062 -0.072,0.115 0.008,0.053 0.061,0.083 0.113,0.072 l 0,0 z"
   id="path153"
   style="fill:#8f5946" />
	<path
   d="m 109.882,140.602 c 2.083,-0.885 4.031,-1.802 6.354,-2.281 1.864,-0.385 3.595,-0.082 5.396,-0.03 2.854,0.083 5.188,-2.135 5.677,-4.938 0.385,-2.208 0.177,-4.354 -0.438,-6.448 l 0,0 c -0.021,-0.083 -0.104,-0.146 -0.188,-0.125 -0.083,0.021 -0.135,0.095 -0.125,0.188 0.719,3.281 0.625,7.292 -2.312,9.573 -1.928,1.5 -4.312,0.51 -6.5,0.667 -2.958,0.219 -5.458,1.792 -7.948,3.198 -0.062,0.021 -0.083,0.094 -0.062,0.146 0.021,0.062 0.095,0.083 0.146,0.062 v -0.012 z"
   id="path155"
   style="fill:#8f5946" />
	<path
   d="m 123.934,137.07 c 0.917,3.104 3.354,5.72 6.656,6.136 5.094,0.646 9.677,-1.698 14.156,-3.781 0.438,-0.198 0.896,-0.292 1.364,-0.396 4.636,-1.021 9.239,-0.302 13.375,-2.927 3.781,-2.417 5.479,-6.531 6.989,-10.51 1.917,-5.042 7.562,-6.604 12.365,-7.354 0.156,-0.01 0.271,-0.155 0.25,-0.302 -0.021,-0.156 -0.156,-0.271 -0.312,-0.25 -3.114,0.323 -6.146,0.938 -8.969,2.521 -3.219,1.812 -4.208,5.322 -5.646,8.417 -1.198,2.604 -2.667,5.219 -5.239,6.78 -1.271,0.771 -2.573,1.208 -4.031,1.47 -3.219,0.572 -6.281,0.488 -9.365,1.396 -3.583,1.052 -6.542,3.083 -10.322,3.792 -1.615,0.302 -3.125,0.458 -4.75,0.208 -3.125,-0.479 -4.521,-3.229 -6.208,-5.448 l 0,0 c -0.104,-0.135 -0.303,-0.155 -0.428,-0.052 -0.135,0.104 -0.155,0.302 -0.052,0.427 l 0.167,-0.127 z"
   id="path157"
   style="fill:#8f5946" />
	<path
   d="m 126.528,191.935 c 2.698,-0.469 5.47,-0.521 8.22,-0.292 5.271,0.438 10.458,0.323 15.76,-0.364 5.125,-0.667 9.823,-2.114 14.792,-3.511 5.927,-1.667 11.156,-4.323 17.312,-5.26 5.688,-0.875 11.073,-0.583 16.739,-1.438 6.854,-1.03 13.281,-2.614 19.615,-5.188 7.479,-3.042 15.01,-5.552 22.427,-8.583 7.198,-2.177 14.969,-3.302 22.333,-1.239 4.542,0.208 9.062,1.802 13.594,1 0.062,0 0.104,-0.062 0.104,-0.136 -0.011,-0.062 -0.073,-0.104 -0.136,-0.104 -3.5,0.47 -6.823,-0.572 -10.345,-1.188 -3.125,-0.542 -6.01,-1.302 -9.083,-1.542 -5.739,-0.438 -11.396,0.479 -16.792,2.438 -7.405,2.698 -14.635,5.303 -21.927,8.303 -5.406,2.219 -10.761,3.594 -16.667,4.739 -9.938,1.948 -19.583,0.667 -28.927,4.312 -8.375,3.26 -16.99,5.708 -25.865,6.823 -4.823,0.011 -9.615,0.438 -14.479,-0.095 -2.312,-0.238 -4.562,0.333 -6.72,1.115 -0.062,0.01 -0.104,0.073 -0.094,0.135 0.01,0.062 0.073,0.104 0.135,0.095 v -0.021 h 0.004 z"
   id="path159"
   style="fill:#8f5946" />
	<path
   d="m 159.757,188.935 c 2.021,-0.375 4.219,-1.448 6.156,-0.386 3.447,1.886 6.844,3.667 10.739,4.011 4.5,0.396 8.938,0.552 13.438,0.75 3.271,0.146 6.479,0.667 9.781,1.031 2.333,0.26 4.625,0.219 6.927,0.198 4.489,-0.021 8.917,-1.104 13.104,-2.823 2.99,-1.229 5.636,-2.75 8.417,-4.708 4.615,-3.271 8.865,-6.156 14.021,-7.99 4.333,-1.552 8.479,-3.125 12.969,-4.375 2.979,-0.823 5.969,-1.031 8.844,-2.062 1.406,-0.511 0.521,-2.095 0.062,-3.021 -0.01,-0.062 -0.073,-0.094 -0.135,-0.083 -0.062,0.021 -0.095,0.083 -0.083,0.135 0.271,0.865 1.01,2.188 -0.156,2.637 -2.25,0.863 -4.583,0.917 -7.01,1.427 -5.208,1.094 -9.812,2.677 -14.667,4.417 -6.928,2.489 -12.312,7.114 -18.729,10.896 -4.167,2.457 -8.521,3.562 -13.26,4.364 -3.365,0.573 -6.562,0.25 -9.865,0.115 -3.417,-0.156 -6.792,-0.677 -10.219,-0.938 -2.5,-0.188 -4.979,-0.146 -7.479,-0.312 -2.812,-0.177 -5.542,-0.146 -8.396,-0.781 -3.26,-0.729 -5.781,-2.594 -8.854,-3.594 -1.886,-0.615 -3.771,0.479 -5.636,0.906 l 0,0 c -0.052,0 -0.094,0.052 -0.083,0.104 0.01,0.061 0.062,0.092 0.114,0.082 l 0,0 z"
   id="path161"
   style="fill:#8f5946" />
	<path
   d="m 155.934,189.935 c 2.74,-0.448 5.385,-1.542 8.167,-1.562 0.542,0 0.927,0.613 1.125,1.155 0.281,0.771 0.229,1.614 0.636,2.354 0.656,1.177 1.553,2.073 2.667,2.844 4.553,3.146 8.781,5.24 13.323,8.406 4.198,2.927 7.74,5.542 12.011,8.25 5.323,3.375 11.095,4.333 17.062,4.688 5.438,0.322 10.906,0.229 16.198,-1.448 1.594,-0.5 2.76,-1.646 4.208,-2.406 2.917,-1.531 5.905,-2.896 7.979,-5.479 2.646,-0.928 4.948,-2.918 5.573,-5.72 0.802,-0.802 1.833,-1.28 2.646,-2.094 0.958,-0.938 1.073,-2.25 1.542,-3.417 2.531,-0.854 4.375,-2.885 5.729,-5.115 2.844,-2.396 5.042,-5.292 7.646,-8.042 1.833,-1.927 2.677,-4.458 2.938,-7.062 0.281,-2.958 -0.802,-5.803 -1.906,-8.531 -1.78,-2.469 -5.052,-2.667 -7.822,-3.042 l 0,0 c -0.073,0 -0.136,0.052 -0.136,0.125 0,0.073 0.053,0.135 0.125,0.135 2.095,0.406 3.938,1.542 5.979,2.104 2.208,2.354 2.656,5.917 2.917,9.03 -0.375,2.387 -1.146,4.708 -2.729,6.595 -1.739,2.042 -3.5,3.802 -5.344,5.739 -1.615,1.688 -2.969,3.323 -4.49,5.104 -0.552,0.636 -1.188,1.188 -1.969,1.521 -0.646,0.271 -1.333,0.49 -1.729,1.073 -0.688,1.042 -0.542,2.354 -1.5,3.208 -0.719,0.667 -1.521,1.115 -2.302,1.729 -0.219,0.167 -0.396,0.375 -0.458,0.646 -0.604,2.719 -2.771,4.312 -5.155,5.219 -2.25,2.636 -5.312,4.062 -8.375,5.678 -0.521,0.271 -0.99,0.677 -1.512,0.988 -5.458,3.281 -11.833,2.75 -17.802,2.512 -5.854,-0.229 -11.542,-1.25 -16.792,-4.5 -4.896,-3.031 -8.864,-6.24 -13.719,-9.406 -4.053,-2.646 -7.781,-4.583 -11.761,-7.386 -0.969,-0.678 -1.822,-1.448 -2.239,-2.511 -0.458,-1.167 -0.448,-2.583 -1.521,-3.479 -0.906,-0.75 -2.011,-0.427 -3.031,-0.177 -2.188,0.542 -4.136,1.417 -6.229,2.083 -0.052,0.01 -0.083,0.062 -0.073,0.113 0.019,0.067 0.071,0.099 0.123,0.078 l 0,0 z"
   id="path163"
   style="fill:#8f5946" />
	<path
   d="m 200.299,193.831 c 1.198,0.479 2.489,0.604 3.739,0.447 2.917,-0.364 5.719,-1.042 8.636,-0.802 2.208,0.844 4.25,2 6.438,2.938 1.854,0.802 3.72,1.125 5.739,1.521 3.594,0.708 6.938,1.052 10.511,0.562 0.667,-0.083 1.323,0.021 1.989,-0.053 3.677,-0.438 7.24,-1.01 10.636,-2.51 2.073,-0.927 3.595,-2.636 5.345,-4.011 0.042,-0.042 0.042,-0.104 0,-0.146 -0.031,-0.042 -0.104,-0.052 -0.146,-0.011 -5.583,4.948 -13.312,5.708 -20.417,6.042 -6.458,0.302 -12.74,-1.365 -18.531,-4.5 -0.479,-0.261 -0.989,-0.323 -1.5,-0.406 -4.28,-0.667 -8.239,2 -12.354,0.75 -0.052,-0.03 -0.104,0 -0.135,0.042 -0.023,0.054 -0.002,0.116 0.05,0.137 l 0,0 z"
   id="path165"
   style="fill:#8f5946" />
	<path
   d="m 169.059,187.435 c 12.802,0.979 25.531,3.021 38.417,2.51 5.542,-0.219 10.979,-0.812 16.427,-2.364 4.75,-1.364 8.854,-3.739 13.021,-6.114 0.062,-0.031 0.083,-0.115 0.052,-0.177 -0.031,-0.062 -0.104,-0.083 -0.167,-0.053 -4.219,2.188 -8.438,4.24 -13.062,5.637 -5.448,1.646 -10.948,2.167 -16.521,2.405 -4.271,0.188 -8.5,0.208 -12.781,-0.114 -8.5,-0.656 -16.905,-1.271 -25.354,-1.917 -0.052,-0.012 -0.104,0.021 -0.115,0.083 -0.011,0.052 0.031,0.104 0.083,0.104 l 0,0 z"
   id="path167"
   style="fill:#8f5946" />
	<path
   d="m 173.143,186.779 c 8.625,0.114 17.25,0.073 25.875,0.114 3.656,0.021 7.229,-0.198 10.938,-0.76 7.375,-1.125 14.417,-2.198 21.469,-4.062 6.125,-2.261 12.531,-3.625 18.625,-5.979 0.062,-0.031 0.094,-0.104 0.062,-0.167 -0.021,-0.073 -0.104,-0.094 -0.167,-0.073 -6.613,2 -13.322,3.573 -19.854,5.844 -6.646,1.615 -13.26,2.823 -20.146,3.72 -5.875,0.76 -11.613,1.155 -17.479,0.885 -6.448,-0.292 -12.875,0.365 -19.323,0.271 -0.062,0 -0.104,0.053 -0.104,0.104 -10e-4,0.051 0.041,0.103 0.104,0.103 l 0,0 z"
   id="path169"
   style="fill:#8f5946" />
	<path
   d="m 177.768,185.206 c 0.781,-0.292 1.604,-0.281 2.406,-0.312 6.469,-0.302 12.875,-0.344 19.354,-0.802 8.375,-0.583 16.323,-1.927 24.688,-3.927 8.062,-1.938 15.344,-4.553 23.021,-7.229 5.417,-1.875 11.083,-2.49 16.771,-2.396 0.198,0 0.365,-0.167 0.365,-0.365 0,-0.198 -0.167,-0.364 -0.365,-0.364 -5.573,-0.062 -11.125,0.781 -16.521,2.177 -7.854,3.031 -15.583,5.625 -24.03,7.604 -8.137,1.917 -15.803,3.188 -23.938,3.917 -7.323,0.656 -14.583,0.594 -21.812,1.5 -0.053,0.021 -0.073,0.083 -0.062,0.135 0.018,0.051 0.07,0.072 0.123,0.062 l 0,0 z"
   id="path171"
   style="fill:#8f5946" />
	<path
   d="m 197.674,181.039 c 6.281,-0.97 12.542,-1.417 18.938,-2.167 6.323,-0.74 12.167,-2.656 18.011,-4.99 6.155,-2.469 12.188,-4.458 18.875,-5.583 3.188,-0.531 6.208,-0.76 9.396,-0.021 0.239,0.053 0.542,0.156 0.625,0.479 0.125,0.156 0.354,0.177 0.51,0.052 0.156,-0.125 0.178,-0.354 0.042,-0.511 -0.312,-0.729 -1.135,-0.896 -1.833,-0.989 -6.739,-0.938 -13.062,0.844 -19.417,2.792 -5.427,1.656 -10.363,3.979 -15.771,5.688 -9.677,3.042 -19.656,3.146 -29.438,5.052 l 0,0 c -0.052,0.021 -0.083,0.073 -0.062,0.125 0.009,0.052 0.061,0.083 0.124,0.073 l 0,0 z"
   id="path173"
   style="fill:#8f5946" />
	<path
   d="m 212.694,193.373 c 1.104,-0.167 2.178,-0.542 3.312,-0.49 5.219,2.156 10.938,2.073 16.479,1.938 2.97,-0.072 5.896,-0.25 8.886,-0.635 4.697,-0.604 9.688,-0.927 13.594,-3.719 0.115,-0.115 0.115,-0.302 0,-0.427 -0.115,-0.115 -0.302,-0.125 -0.427,-0.01 -6.864,3.542 -14.803,3.28 -22.292,4.094 -5.49,0.01 -10.906,-0.094 -16.386,-1.552 -1.072,-0.292 -2.114,0.427 -3.208,0.604 -0.062,0.021 -0.094,0.073 -0.072,0.125 0.01,0.051 0.063,0.082 0.114,0.072 l 0,0 z"
   id="path175"
   style="fill:#8f5946" />
	<path
   d="m 216.768,192.602 c 1.354,-0.5 2.719,-1.208 4.167,-0.938 6.76,1.239 13.094,0.927 19.719,0.114 6.854,-0.822 13.906,-2.197 19.417,-6.469 0.137,-0.104 0.146,-0.302 0.031,-0.438 -0.104,-0.125 -0.302,-0.137 -0.427,-0.031 -5.583,3.885 -12.302,5.448 -19.031,6.239 -6.625,0.78 -13.021,1.167 -19.729,0.167 -1.489,-0.229 -2.803,0.719 -4.208,1.167 l 0,0 c -0.053,0.01 -0.073,0.072 -0.062,0.125 0.018,0.053 0.07,0.085 0.123,0.064 l 0,0 z"
   id="path177"
   style="fill:#8f5946" />
	<path
   d="m 222.194,190.362 c 0.917,-0.542 1.845,-1.146 2.896,-1.229 3.177,-0.219 6.302,0.49 9.5,0.198 1.99,-0.188 3.896,-0.479 5.917,-0.781 2.886,-0.417 5.604,-0.896 8.365,-1.76 4.802,-1.5 9.76,-2.604 13.864,-5.521 0.104,-0.094 0.114,-0.25 0.021,-0.354 -0.083,-0.104 -0.239,-0.115 -0.344,-0.021 -5.771,2.938 -11.739,4.906 -18.345,6.25 -3.322,0.677 -6.385,1.125 -9.655,1.427 -2.948,0.293 -5.875,-0.021 -8.823,0.125 -1.312,0.062 -2.365,0.928 -3.5,1.49 -0.052,0.031 -0.062,0.095 -0.042,0.135 0.032,0.052 0.095,0.072 0.146,0.041 l 0,0 z"
   id="path179"
   style="fill:#8f5946" />
	<path
   d="m 226.632,188.018 c 2.448,-2.104 5.771,-1.927 8.833,-2.344 3.167,-0.438 6.115,-1.052 9.177,-1.938 6.542,-1.917 12.823,-4.083 19.51,-4.738 0.178,0 0.312,-0.146 0.312,-0.323 0,-0.177 -0.146,-0.323 -0.323,-0.323 -6.75,0.458 -13.062,2.719 -19.625,4.635 -1.865,0.553 -3.636,1 -5.552,1.458 -4.302,1.042 -8.948,0.583 -12.448,3.417 -0.052,0.031 -0.052,0.095 -0.021,0.137 0.033,0.05 0.095,0.05 0.137,0.019 l 0,0 z"
   id="path181"
   style="fill:#8f5946" />
	<path
   d="m 230.455,185.362 c 6.042,-3.146 12.655,-4.542 19.271,-6.479 4.938,-1.448 9.792,-2.531 14.812,-3.188 0.197,0 0.354,-0.155 0.354,-0.354 0,-0.199 -0.156,-0.354 -0.354,-0.354 -5.114,0.625 -10.073,1.74 -15.073,3.25 -6.583,2 -13.135,3.678 -19.104,6.948 l 0,0 c -0.052,0.021 -0.072,0.083 -0.042,0.135 0.021,0.053 0.084,0.073 0.136,0.042 l 0,0 z"
   id="path183"
   style="fill:#8f5946" />
	<path
   d="m 184.059,192.935 c 2.521,0.364 5.031,0.312 7.552,1 3.75,1.01 7.156,2.094 11.011,2.917 4.646,1 9.062,1.094 13.646,1.312 2.917,0.135 5.844,0.083 8.739,-0.354 0.167,0 0.302,-0.136 0.292,-0.312 0,-0.167 -0.136,-0.303 -0.312,-0.292 -7.405,0.489 -14.636,0.292 -22.167,-1.073 -3.635,-0.667 -6.896,-1.594 -10.447,-2.531 -2.771,-0.74 -5.511,-0.573 -8.281,-0.854 -0.052,-0.012 -0.104,0.021 -0.115,0.072 -0.012,0.063 0.03,0.115 0.082,0.115 l 0,0 z"
   id="path185"
   style="fill:#8f5946" />
	<path
   d="m 170.507,192.154 c 1.812,1.543 4.208,1.823 6.521,2.354 6.573,1.5 12.428,2.938 19.083,4.292 3.667,0.75 6.979,1.354 10.625,1.927 6.948,1.073 13.646,0.896 20.479,1.303 7.344,-0.47 15.135,-1.458 21.146,-6.104 0.053,-0.042 0.053,-0.114 0.011,-0.156 -0.042,-0.052 -0.104,-0.052 -0.156,-0.01 -6.156,4.083 -13.76,5.021 -20.969,5.542 -5.833,-0.406 -11.615,-0.146 -17.511,-0.802 -6.78,-0.761 -13.042,-2.104 -19.864,-3.604 -4.511,-0.988 -8.521,-1.802 -13.053,-2.75 -2.208,-0.458 -4.458,-0.667 -6.177,-2.146 l 0,0 c -0.042,-0.031 -0.115,-0.031 -0.146,0.01 -0.031,0.04 -0.031,0.102 0.011,0.144 l 0,0 z"
   id="path187"
   style="fill:#8f5946" />
	<path
   d="m 173.934,195.498 c 5.927,2.302 11.958,3.363 18.396,4.738 6.28,1.345 12,2.708 18.208,3.333 7.03,0.72 13.864,1.271 20.947,0.345 6.042,-0.781 11.938,-2.458 16.542,-6.448 0.053,-0.052 0.062,-0.125 0.021,-0.188 -0.052,-0.052 -0.136,-0.062 -0.188,-0.011 -6.125,4.511 -13.78,5.875 -21.188,6.292 -6.729,0.375 -13.292,-0.177 -20.073,-1.198 -7.719,-1.155 -14.729,-2.738 -22.51,-4.26 -3.552,-0.688 -6.833,-1.448 -10.073,-2.781 -0.052,-0.03 -0.115,0 -0.136,0.053 -0.019,0.041 0.002,0.104 0.054,0.125 l 0,0 z"
   id="path189"
   style="fill:#8f5946" />
	<path
   d="m 183.33,200.904 c 10.78,3.438 22,4.583 33.322,5.668 3.74,0.354 7.406,0.25 11.146,-0.073 5.073,-0.448 10.052,-1.219 14.812,-3.137 0.833,-0.332 1.542,-0.885 2.229,-1.457 0.146,-0.073 0.208,-0.262 0.125,-0.406 -0.073,-0.146 -0.26,-0.208 -0.406,-0.125 -5.833,3.271 -12.615,4.156 -19.198,4.531 -4.677,0.26 -9.25,0.207 -13.979,-0.479 -9.552,-1.396 -18.948,-1.646 -27.969,-4.708 -0.053,-0.021 -0.104,0 -0.136,0.052 -0.019,0.05 0.002,0.103 0.054,0.134 l 0,0 z"
   id="path191"
   style="fill:#8f5946" />
	<path
   d="m 191.33,205.998 c 2.521,1.167 5.188,1.792 7.979,2.197 6.365,0.928 12.469,2.125 18.792,1.938 7.854,-0.229 16.031,-0.677 23.24,-4.146 0.219,-0.114 0.302,-0.386 0.188,-0.595 -0.114,-0.219 -0.385,-0.302 -0.604,-0.188 -7.938,3.469 -16.792,4.28 -25.365,4.208 -5.26,-0.053 -10.375,-0.812 -15.688,-1.531 -2.928,-0.396 -5.792,-0.812 -8.458,-2.062 l 0,0 c -0.053,-0.03 -0.104,0 -0.136,0.043 -0.021,0.052 0,0.115 0.052,0.136 l 0,0 z"
   id="path193"
   style="fill:#8f5946" />
	<path
   d="m 196.955,209.841 c 6.552,1.562 13.219,3.062 19.988,2.781 3.948,-0.156 7.833,-0.573 11.803,-0.99 2.989,-0.312 5.697,-1.354 8.083,-3.115 0.094,-0.052 0.125,-0.167 0.072,-0.26 -0.052,-0.083 -0.167,-0.115 -0.26,-0.062 -6.073,3.375 -13.292,2.823 -19.969,3.781 -6.625,0.062 -13.219,-0.938 -19.677,-2.333 l 0,0 c -0.053,-0.01 -0.104,0.021 -0.125,0.073 -0.009,0.052 0.033,0.115 0.085,0.125 l 0,0 z"
   id="path195"
   style="fill:#8f5946" />
	<path
   d="m 83.268,142.768 c -3.854,4.25 -9.115,7.583 -11.146,13.177 -0.698,1.928 -1.292,3.833 -1.636,5.896 -0.292,1.688 -0.219,3.323 -0.052,4.979 0.271,2.75 1.229,5.261 2.604,7.698 3.177,5.667 8.646,9.021 14.792,10.636 6.78,1.793 12.917,4.25 19.447,6.511 5.604,1.938 11.386,2.354 17.292,1.375 6.448,-1.073 12.615,-1 18.948,-0.99 3.052,0.011 6.021,-0.052 9.104,-0.781 3.771,-0.885 7.26,-1.656 10.938,-2.719 4.719,-1.354 9.062,-3.25 13.49,-5.135 0.125,-0.042 0.188,-0.178 0.146,-0.303 -0.042,-0.113 -0.167,-0.188 -0.292,-0.146 -8.594,3.385 -17.177,6.167 -26.542,7.688 -5.802,0.948 -11.375,0.178 -17.094,0.458 -4.24,0.22 -8.344,1.178 -12.583,1.396 -2.917,0.146 -5.719,0.01 -8.698,-0.583 -6.917,-1.396 -12.552,-4.562 -19.25,-6.323 -5.333,-1.406 -10.427,-2.802 -14.677,-6.458 -5.24,-4.51 -8.021,-11.197 -6.479,-18.104 0.427,-1.896 0.771,-3.698 1.542,-5.438 1.833,-4.094 5.458,-6.635 8.25,-10.198 0.677,-0.875 1.25,-1.75 2.042,-2.489 0.042,-0.042 0.042,-0.104 0,-0.146 -0.042,-0.042 -0.105,-0.042 -0.146,-0.001 l 0,0 z"
   id="path197"
   style="fill:#8f5946" />
	<path
   d="m 71.486,171.352 c 1.095,2.26 1.989,4.698 3.917,6.417 5.345,4.781 12.354,5.637 18.886,7.47 8.146,3.729 16.521,8.062 25.729,7.667 5.042,-0.22 9.958,-1.062 15.031,-1.583 4.031,-0.417 7.948,0.333 11.948,0.094 4.677,-0.281 9.312,-0.698 13.78,-2.24 6.542,-2.25 12.823,-4.823 19.406,-6.771 0.083,-0.031 0.125,-0.125 0.104,-0.208 -0.031,-0.083 -0.125,-0.136 -0.208,-0.104 -5.146,1.26 -10.083,3.219 -15.188,4.604 -5.708,2.729 -12.042,3.302 -18.292,3.802 -3.062,0.25 -6.031,-0.479 -9.094,-0.271 -2.594,0.178 -5.114,0.428 -7.719,0.729 -3.292,0.365 -6.489,0.875 -9.771,1.042 -5.302,0.271 -10.438,-1.25 -15.354,-3.136 -3.771,-1.448 -7.25,-3.428 -11.011,-4.845 -6.177,-1.447 -12.417,-2.646 -17.677,-6.792 -2.021,-1.583 -3.333,-3.677 -4.312,-5.958 -0.021,-0.052 -0.083,-0.072 -0.136,-0.052 -0.049,0.031 -0.07,0.082 -0.039,0.135 l 0,0 z"
   id="path199"
   style="fill:#8f5946" />
	<path
   d="m 80.778,181.331 c 4.156,2.021 8.25,3.864 12.99,4.864 2.448,0.511 4.364,1.928 6.739,2.562 1.427,0.385 2.761,0.708 4.25,1.01 0.438,0.094 0.761,0.354 1.156,0.511 0.062,0.031 0.136,0 0.167,-0.062 0.021,-0.062 0,-0.136 -0.062,-0.156 -3.906,-1.677 -7.802,-3.302 -11.844,-4.74 -1.042,-0.375 -2.177,-0.417 -3.208,-0.78 -3.396,-1.22 -6.885,-1.854 -10.125,-3.396 -0.052,-0.01 -0.104,0.011 -0.125,0.062 -0.022,0.052 0.01,0.114 0.062,0.125 l 0,0 z"
   id="path201"
   style="fill:#8f5946" />
	<path
   d="m 81.715,164.841 c 3.417,1.302 7.25,1.896 10.75,0.5 2.625,-1.031 5.198,-2.083 7.375,-3.99 2.01,-1.771 3.417,-3.823 5.646,-5.406 1.803,-1.28 3.803,-1.78 5.812,-2.5 3.344,-1.197 5.427,-4.208 7.989,-6.5 4.167,-2.417 9.104,-3.417 13.917,-3.333 1.155,0.012 2.25,-0.594 3.396,-0.854 0.083,-0.021 0.146,-0.094 0.136,-0.177 -0.011,-0.095 -0.094,-0.146 -0.177,-0.136 -1.083,0.156 -2.146,0.625 -3.219,0.47 -2.802,-0.417 -5.385,-0.042 -8.094,0.635 -2.354,0.583 -4.595,1.177 -6.521,2.719 -2.646,2.136 -4.469,5.042 -7.646,6.261 -2.125,0.812 -4.333,1.303 -6.229,2.729 -2.833,2.146 -4.583,5.01 -7.646,6.844 -4.72,2.833 -10.198,4.531 -15.438,2.542 l 0,0 c -0.052,-0.01 -0.104,0.021 -0.125,0.073 -0.009,0.05 0.022,0.102 0.074,0.123 l 0,0 z"
   id="path203"
   style="fill:#8f5946" />
	<path
   d="m 97.09,175.008 c 0.854,-0.844 1.417,-1.875 1.812,-2.99 1.115,-3.177 1.167,-6.427 1.729,-9.792 0.198,-1.198 0.573,-2.24 1.292,-3.229 1.76,-2.448 4.208,-3.938 6.802,-5.156 0.052,-0.011 0.083,-0.073 0.062,-0.125 -0.021,-0.052 -0.073,-0.073 -0.125,-0.062 -3.104,1.583 -6.292,3.303 -8.178,6.448 -0.729,1.219 -0.958,2.573 -1.062,3.938 -0.198,2.625 -0.5,5.083 -1.042,7.739 -0.239,1.168 -0.604,2.261 -1.458,3.104 -0.031,0.042 -0.021,0.104 0.021,0.135 0.043,0.031 0.106,0.031 0.147,-0.01 l 0,0 z"
   id="path205"
   style="fill:#8f5946" />
	<path
   d="m 135.028,191.268 c 1,-0.135 2.521,-0.229 2.865,0.927 0.5,1.708 0.229,3.5 1.156,5.104 1.667,2.844 3.833,5.062 6.677,6.771 2.333,1.406 4.74,2.115 7.261,2.948 2.281,0.74 4.354,1.74 6.489,2.906 2.177,1.188 3.562,3.104 5.688,4.458 1.447,0.927 3.03,1.125 4.646,1.562 1.25,0.345 2.25,1.188 2.688,2.448 0.03,0.052 0.094,0.073 0.135,0.042 0.052,-0.021 0.073,-0.083 0.052,-0.136 -0.562,-1.438 -1.781,-2.406 -3.115,-3.052 -1.146,-0.553 -2.375,-0.833 -3.5,-1.438 -2.354,-1.261 -3.822,-3.49 -6.197,-4.761 -1.146,-0.614 -2.292,-1.104 -3.458,-1.667 -2.542,-1.229 -5.25,-1.781 -7.812,-2.906 -4.25,-1.865 -8.479,-5.042 -9.396,-9.927 -0.22,-1.177 0.021,-2.698 -1.073,-3.344 -0.927,-0.542 -2.104,-0.428 -3.146,-0.146 -0.062,0.01 -0.104,0.073 -0.094,0.135 0.01,0.062 0.073,0.104 0.135,0.095 v -0.019 l -0.001,0 z"
   id="path207"
   style="fill:#8f5946" />
	<path
   d="m 161.757,211.299 c 1.188,1.552 2.469,3.021 3.865,4.396 1.646,3.688 2.708,7.72 2.322,11.761 -0.396,4.219 -0.896,8.364 -2.427,12.333 -3.281,8.53 -5.615,17.094 -6.719,26.229 -0.438,3.625 -0.427,7.188 -0.396,10.802 0,0.062 0.053,0.104 0.104,0.104 0.051,0 0.104,-0.042 0.104,-0.104 -0.239,-7.062 1.511,-13.677 2.854,-20.812 1.135,-6.073 3.479,-11.271 5.312,-17.01 1.208,-3.803 1.74,-7.604 2.125,-11.542 0.386,-3.958 -0.667,-7.803 -2.146,-11.458 -0.885,-2.208 -3.26,-3.167 -4.833,-4.823 l 0,0 c -0.042,-0.042 -0.104,-0.042 -0.146,-0.01 -0.041,0.031 -0.05,0.093 -0.019,0.134 l 0,0 z"
   id="path209"
   style="fill:#8f5946" />
	<path
   d="m 157.944,249.779 c 0,-0.312 -0.052,-0.614 0.012,-0.927 0.396,-2.021 1.01,-3.771 1.396,-5.781 0.583,-3.042 0.375,-5.854 -0.292,-8.885 -1.042,-4.74 -2.365,-9.125 -2.312,-13.822 0.03,-3.604 1.469,-7.178 4.042,-9.812 0.177,-0.188 0.167,-0.479 -0.021,-0.656 -0.198,-0.177 -0.49,-0.167 -0.667,0.031 -2.729,2.833 -4.229,6.625 -4.292,10.49 -0.052,2.719 0.302,5.385 0.99,8.104 0.656,2.604 1.302,4.979 1.76,7.637 0.385,2.229 0.542,4.292 0.25,6.51 -0.312,2.417 -1.042,4.698 -1.073,7.115 0,0.052 0.053,0.094 0.104,0.094 0.051,0 0.103,-0.046 0.103,-0.098 l 0,0 z"
   id="path211"
   style="fill:#8f5946" />
	<path
   d="m 144.663,202.591 c -2.261,-1.833 -4.583,-3.958 -5.333,-6.906 -0.24,-0.917 -0.365,-2.115 0.5,-2.656 1.135,-0.697 2.396,-1.125 3.708,-1.208 0.229,0.011 0.417,-0.167 0.427,-0.396 0.01,-0.229 -0.177,-0.417 -0.396,-0.427 -1.5,0.01 -2.947,0.542 -4.28,1.26 -0.521,0.281 -0.761,0.865 -0.845,1.406 -0.613,4.135 3.156,6.969 6.115,9.094 0.042,0.031 0.104,0.021 0.135,-0.031 0.032,-0.042 0.011,-0.104 -0.031,-0.136 l 0,0 z"
   id="path213"
   style="fill:#8f5946" />
	<path
   d="m 133.903,191.445 c 1.531,-0.167 3.053,0.656 3.636,2.115 0.989,2.469 2.261,4.833 4.239,6.635 0.053,0.042 0.136,0.031 0.178,-0.021 0.042,-0.052 0.042,-0.125 -0.012,-0.177 -0.469,-0.375 -0.833,-0.812 -1.167,-1.333 -1.438,-2.25 -1.729,-4.875 -3.542,-6.781 -0.864,-0.917 -2.188,-0.656 -3.333,-0.646 -0.052,0 -0.094,0.053 -0.094,0.104 0.001,0.052 0.043,0.104 0.095,0.104 l 0,0 z"
   id="path215"
   style="fill:#8f5946" />
	<path
   d="m 172.601,196.977 c 0.469,1.083 1.542,1.792 1.729,3.021 0.635,4.155 0.542,8.177 0.542,12.28 -0.781,4.198 -1.021,8.543 -2.823,12.489 -4.802,10.521 -9.375,20.698 -11.479,32.365 -0.322,1.802 -0.542,3.51 -0.792,5.271 0,0.062 0.031,0.114 0.095,0.114 0.052,0.011 0.104,-0.031 0.114,-0.083 0.917,-5.625 2.146,-11.177 4.22,-16.531 1.635,-4.239 3.322,-8.354 5.01,-12.572 1.51,-3.781 3.635,-7.156 4.719,-11.136 0.906,-3.322 1.344,-6.594 1.875,-9.917 -0.115,-4.427 0.438,-8.947 -0.917,-13.261 -0.302,-0.958 -1.271,-1.625 -2.146,-2.177 -0.031,-0.042 -0.104,-0.042 -0.136,-0.011 -0.043,0.044 -0.053,0.106 -0.011,0.148 l 0,0 z"
   id="path217"
   style="fill:#8f5946" />
	<path
   d="m 149.768,280.289 c 0.323,-4.25 -0.604,-8.438 -0.302,-12.688 0.323,-4.823 0.948,-9.51 1.49,-14.354 0.312,-2.771 0.28,-5.521 0.062,-8.281 -0.271,-3.438 -0.396,-6.771 -0.927,-10.229 -0.583,-3.697 -1.26,-7.062 -2.052,-10.771 -1.406,-6.594 -0.458,-12.761 0.604,-19.062 0.01,-0.261 -0.198,-0.479 -0.458,-0.489 -0.25,0 -0.469,0.197 -0.479,0.458 -0.948,5.552 -1.896,11.042 -0.938,16.812 0.771,4.594 1.656,8.771 2.427,13.354 0.573,3.375 0.708,6.594 0.958,9.927 0.573,7.479 -0.594,14.823 -1.135,22.292 -0.323,4.375 0.854,8.656 0.562,13 l 0,0 c -0.012,0.052 0.021,0.104 0.072,0.115 0.063,0.01 0.116,-0.032 0.116,-0.084 l 0,0 z"
   id="path219"
   style="fill:#8f5946" />
	<path
   d="m 144.34,202.477 c 0.802,0.969 1.906,1.708 2.469,2.823 0.531,1.031 0.74,2.271 0.458,3.448 l 0,0 c -0.031,0.125 0.052,0.26 0.177,0.292 0.137,0.021 0.262,-0.052 0.292,-0.188 0.47,-1.188 0.396,-2.51 -0.188,-3.594 -0.688,-1.271 -2.073,-1.896 -3.073,-2.917 -0.042,-0.042 -0.104,-0.042 -0.135,0 -0.041,0.032 -0.041,0.094 0,0.136 l 0,0 z"
   id="path221"
   style="fill:#8f5946" />
	<path
   d="m 168.601,294.195 c 0.271,-1.646 0.386,-3.25 0.636,-4.938 0.208,-1.396 0.323,-2.74 0.406,-4.135 0.448,-7.167 1.25,-14.24 2.312,-21.303 1.708,-6.01 2.938,-12.177 5.238,-18 1.406,-5.25 3.333,-10.25 5.125,-15.427 2.562,-7.406 6.198,-14.323 7.656,-21.979 0,-0.261 -0.208,-0.47 -0.458,-0.47 -0.261,-0.01 -0.469,0.198 -0.479,0.458 -1,5.573 -3.406,10.708 -5.47,16 -3.271,8.375 -5.988,16.636 -8.677,25.25 -2.125,6.833 -4.136,13.479 -4.812,20.595 -0.615,6.458 -1.104,12.792 -1.438,19.219 -0.031,0.531 -0.125,1.062 -0.167,1.594 -0.052,0.573 0.052,1.156 0.062,1.729 0.011,0.458 0.011,0.917 -0.125,1.364 -0.011,0.053 0.021,0.104 0.072,0.114 0.056,0.013 0.108,-0.018 0.119,-0.071 l 0,0 z"
   id="path223"
   style="fill:#8f5946" />
	<path
   d="m 182.434,228.977 c 0.792,-2.844 2.271,-5.385 3.24,-8.188 1.156,-3.345 2.062,-6.595 2.989,-10.053 0.458,-1.688 -0.178,-3.25 -1.188,-4.542 -0.062,-0.188 -0.271,-0.292 -0.458,-0.229 -0.188,0.073 -0.292,0.271 -0.229,0.458 0.239,0.875 1.062,1.458 1.072,2.375 0.062,4.052 -1.708,7.761 -2.719,11.771 -0.74,2.928 -2.083,5.5 -2.896,8.345 -0.021,0.052 0.01,0.104 0.062,0.125 0.054,0.01 0.106,-0.01 0.127,-0.062 l 0,0 z"
   id="path225"
   style="fill:#8f5946" />
	<path
   d="m 176.101,350.82 c 0.042,-0.292 0.031,-0.583 -0.042,-0.864 -0.365,-1.281 -0.74,-2.5 -0.958,-3.803 -0.854,-5.177 -2.469,-9.844 -3.021,-15 -0.542,-5.011 -1.281,-9.844 -1.688,-14.844 -0.406,-5.021 -1.136,-9.969 -0.833,-14.99 0.281,-4.562 -0.448,-9.042 -0.302,-13.572 0.229,-7.178 0.875,-14.292 1.812,-21.406 0.012,-0.052 -0.021,-0.104 -0.083,-0.115 -0.052,-0.01 -0.104,0.021 -0.114,0.073 -0.698,4.479 -1.031,8.875 -1.761,13.469 -0.427,2.698 -0.458,5.302 -0.646,7.979 -0.333,4.542 0.615,9.062 0.083,13.562 0.167,10.073 1.333,19.844 2.833,30.01 0.312,2.156 0.552,4.178 1.125,6.292 1.219,4.512 1.896,8.917 3.333,13.262 0.021,0.094 0.104,0.155 0.198,0.135 0.094,-0.021 0.155,-0.104 0.136,-0.198 l -0.072,0.01 z"
   id="path227"
   style="fill:#8f5946" />
	<path
   d="m 157.601,350.654 c -1.5,-7.833 -3.76,-15.542 -4.146,-23.583 -0.104,-2.094 -0.637,-4.125 -0.854,-6.239 -0.844,-7.823 -1.958,-15.438 -2.229,-23.229 -0.062,-1.76 -0.104,-3.521 -0.146,-5.281 -0.156,-5.219 0.094,-10.427 -0.167,-15.655 -0.26,-5.22 0.146,-10.448 0.281,-15.656 0.062,-2.719 0.083,-5.365 0.24,-8.094 0,-0.073 -0.053,-0.146 -0.125,-0.146 -0.073,-0.01 -0.137,0.042 -0.146,0.115 -0.438,4.177 -1.031,8.396 -0.969,12.625 0.062,3.5 -0.292,6.844 -0.208,10.344 0.104,4.583 0.302,9.167 0.198,13.76 -0.095,4.646 0.03,9.25 0.521,13.917 0.823,7.958 1.542,15.75 2.979,23.542 0.427,8.053 2.521,15.875 4.583,23.625 0.011,0.053 0.062,0.083 0.114,0.073 0.053,-0.014 0.084,-0.066 0.074,-0.118 l 0,0 z"
   id="path229"
   style="fill:#8f5946" />
	<path
   d="m 165.632,5.112 c 0.938,1.428 2.688,0.5 3.875,-0.072 2.49,-1.198 5.198,-0.781 7.896,-0.386 5.615,0.845 9.365,5.136 14.595,6.761 2.438,0.75 4.927,0.396 7.51,0.875 3.323,0.614 6.156,1.729 8.99,3.614 5.438,3.614 10.792,6.083 16.042,9.396 2.802,2.781 5.125,6.011 7.28,9.312 0.031,0.053 0.095,0.073 0.146,0.042 0.052,-0.03 0.073,-0.094 0.042,-0.155 -2.125,-3.323 -3.854,-6.979 -6.698,-9.781 -5.219,-3.427 -10.635,-5.823 -16.094,-9.479 -2.781,-1.863 -5.542,-3 -8.781,-3.719 -2.792,-0.625 -5.427,-0.312 -8.177,-0.988 -3.323,-0.812 -5.667,-3.198 -8.656,-4.668 -4.448,-2.177 -9.635,-3.5 -14.364,-1.655 -1.114,0.427 -2.302,1.302 -3.438,0.49 l 0,0 c -0.177,-0.073 -0.375,0.01 -0.438,0.188 -0.072,0.177 0.011,0.375 0.188,0.438 l 0.082,-0.213 z"
   id="path231"
   style="fill:#8f5946" />
	<path
   d="m 271.913,73.924 c 0.197,1.583 0.812,3.073 0.927,4.677 0.115,1.5 1.281,2.542 2.427,3.458 2.583,2.073 5.208,3.583 7.167,6.344 1.844,2.614 2.958,5.417 3.198,8.5 0.417,5.323 -0.698,10.573 -2.364,15.595 -0.031,0.083 0.01,0.177 0.083,0.197 0.083,0.031 0.167,-0.01 0.198,-0.083 3.635,-7.822 5.114,-17.521 -0.594,-25.052 -1.979,-2.615 -4.479,-4.188 -7.073,-6.177 -0.719,-0.542 -1.385,-1.115 -1.792,-1.865 -0.969,-1.771 -1.406,-3.719 -1.99,-5.625 l 0,0 c 0,-0.052 -0.052,-0.094 -0.104,-0.083 -0.062,0.01 -0.093,0.063 -0.083,0.114 l 0,0 z"
   id="path233"
   style="fill:#8f5946" />
	<path
   d="m 286.236,97.404 c -0.28,2.896 -0.739,5.864 1.062,8.542 3.239,4.781 5.875,9.438 6.281,15.011 0.396,5.458 -0.47,10.844 -2,16.177 -0.917,3.167 -2.198,5.917 -4.146,8.719 -2.562,3.688 -5.188,7.094 -9.365,8.604 -3.302,1.197 -6.78,1.53 -10.26,1.708 -1,0.052 -1.99,0.239 -2.979,0.438 l 0,0 c -0.125,0.01 -0.229,0.115 -0.22,0.24 0.011,0.125 0.114,0.219 0.239,0.219 5.979,-0.323 12.542,0.188 17.521,-4 7.146,-6.031 10.771,-14.562 11.812,-23.656 0.562,-4.958 0.719,-9.833 -0.979,-14.604 -1.365,-3.812 -3.845,-6.854 -5.625,-10.438 -1.083,-2.177 -0.99,-4.594 -1.137,-6.958 l 0,0 c 0,-0.052 -0.052,-0.094 -0.104,-0.094 -0.052,0 -0.1,0.04 -0.1,0.092 l 0,0 z"
   id="path235"
   style="fill:#8f5946" />
	<path
   d="m 284.632,162.424 c 5.396,-5.094 5.948,-12.969 6.396,-19.989 0.042,-0.688 0.083,-1.406 0.312,-2.073 0.062,-0.177 -0.031,-0.375 -0.219,-0.438 -0.178,-0.062 -0.375,0.042 -0.438,0.219 -0.333,0.729 -0.573,1.5 -0.615,2.292 -0.197,3.562 -0.552,6.948 -1.219,10.562 -0.573,3.155 -2.01,5.76 -3.573,8.51 -0.177,0.323 -0.458,0.552 -0.771,0.75 -0.042,0.042 -0.042,0.104 -0.01,0.146 0.032,0.042 0.095,0.053 0.137,0.021 l 0,0 z"
   id="path237"
   style="fill:#8f5946" />
	<path
   d="m 148.236,75.466 c -0.072,1.052 -0.594,1.927 -1.104,2.812 -1.438,2.542 -3.062,4.803 -4.094,7.5 -1.188,3.095 -1.323,6.323 -1.667,9.553 0.562,2.905 2.052,5.552 4.458,7.427 2.947,2.312 6.333,4.49 10.155,3.812 0.188,-0.042 0.312,-0.219 0.271,-0.405 -0.031,-0.188 -0.219,-0.303 -0.406,-0.271 -6.083,-0.208 -12.354,-4.552 -13.542,-10.75 0.333,-3.448 0.594,-6.875 2,-10.125 1.031,-2.375 2.51,-4.469 3.323,-6.927 0.292,-0.865 0.729,-1.677 0.812,-2.604 0,-0.052 -0.03,-0.104 -0.094,-0.113 -0.049,-0.002 -0.101,0.029 -0.112,0.091 l 0,0 z"
   id="path239"
   style="fill:#8f5946" />
	<path
   d="m 136.924,112.102 c 3.917,-0.469 7.812,-1.292 11.5,-2.771 1.083,-0.438 2.281,-1.281 2.489,-2.595 l 0.03,-0.5 c 0,-0.104 -0.03,-0.197 -0.094,-0.28 l -0.167,-0.208 c -0.49,-0.792 -1.281,-1.25 -2.021,-1.771 l 0,0 c -0.095,-0.083 -0.229,-0.083 -0.312,0.01 -0.083,0.095 -0.073,0.229 0.011,0.312 0.583,0.542 1.156,1.115 1.511,1.844 l 0.292,0.344 -0.095,-0.271 0.062,0.396 c -0.333,0.948 -1.177,1.615 -2.021,1.948 -3.636,1.469 -7.386,2.625 -11.219,3.354 -0.052,0 -0.094,0.052 -0.083,0.114 0.012,0.053 0.065,0.084 0.117,0.074 l 0,0 z"
   id="path241"
   style="fill:#8f5946" />
</g>

</svg>