<?xml version="1.0" encoding="UTF-8" standalone="no"?>
<!-- Created with Inkscape (http://www.inkscape.org/) -->

<svg
   xmlns:dc="http://purl.org/dc/elements/1.1/"
   xmlns:cc="http://creativecommons.org/ns#"
   xmlns:rdf="http://www.w3.org/1999/02/22-rdf-syntax-ns#"
   xmlns:svg="http://www.w3.org/2000/svg"
   xmlns="http://www.w3.org/2000/svg"
   xmlns:sodipodi="http://sodipodi.sourceforge.net/DTD/sodipodi-0.dtd"
   xmlns:inkscape="http://www.inkscape.org/namespaces/inkscape"
   version="1.1"
   width="518"
   height="600"
   viewBox="0 0 518 600"
   id="Layer_1"
   sodipodi:docname="side-somatosensory.svg"
   inkscape:version="0.92.2 5c3e80d, 2017-08-06"
   style="zoom: 1;"
   inkscape:export-filename="/Users/steven/work/vipassana-for-hackers/paper-two/images/side-somatosensory.png"
   inkscape:export-xdpi="100.11"
   inkscape:export-ydpi="100.11">
  <metadata
     id="metadata260">
    <rdf:RDF>
      <cc:Work
         rdf:about="">
        <dc:format>image/svg+xml</dc:format>
        <dc:type
           rdf:resource="http://purl.org/dc/dcmitype/StillImage" />
        <dc:title />
      </cc:Work>
    </rdf:RDF>
  </metadata>
  <sodipodi:namedview
     pagecolor="#ffffff"
     bordercolor="#666666"
     borderopacity="1"
     objecttolerance="10"
     gridtolerance="10"
     guidetolerance="10"
     inkscape:pageopacity="0"
     inkscape:pageshadow="2"
     inkscape:window-width="1440"
     inkscape:window-height="855"
     id="namedview258"
     showgrid="false"
     inkscape:zoom="1.9044743"
     inkscape:cx="243.48435"
     inkscape:cy="427.69355"
     inkscape:window-x="0"
     inkscape:window-y="1"
     inkscape:window-maximized="1"
     inkscape:current-layer="Layer_1"
     inkscape:snap-text-baseline="true" />
  <defs
     id="defs251" />
  <path
     inkscape:connector-curvature="0"
     style="fill:#8f5946;stroke-width:3.29999995"
     id="path7"
     d="m 162.24959,313.78465 c 1.2771,0.2376 2.3463,1.0098 3.5772,1.3893 3.6102,1.1286 6.9531,2.5905 10.3653,4.0689 0.0957,0.0429 0.2112,0 0.2574,-0.1056 0.0429,-0.0957 -0.007,-0.2112 -0.099,-0.2574 -2.3331,-0.9504 -4.1184,-2.8281 -6.5307,-3.6531 -1.1352,-0.3927 -2.2044,-0.8085 -3.4155,-1.0428 -1.3992,-0.2739 -2.7159,-0.3993 -4.0557,-0.7227 v 0 c -0.0825,-0.0297 -0.1782,0.0264 -0.2046,0.1155 -0.0264,0.0891 0.0198,0.1815 0.1056,0.2079 z" />
  <path
     inkscape:connector-curvature="0"
     style="fill:#e0cbbd;stroke-width:3.29999995"
     id="path9"
     d="m 288.17099,319.80715 c 0,0 13.4046,-5.1546 17.325,-6.1875 3.9204,-1.0329 12.1704,-3.5046 15.9852,-3.6069 3.8148,-0.1056 16.3977,-0.726 20.3148,-1.1385 3.9171,-0.4125 14.4375,-2.6796 18.7704,-3.9204 4.3329,-1.2408 14.025,-4.3296 18.5625,-5.9796 4.5375,-1.65 16.2954,-6.1875 20.2125,-7.6296 3.9204,-1.4454 11.3454,-4.5375 15.2625,-5.775 3.9204,-1.2375 12.1704,-3.7125 16.0875,-3.7125 3.9204,0 9.9,-0.825 12.5796,0 2.6796,0.825 6.6,2.8875 7.425,5.775 0.825,2.8875 2.6796,6.8046 2.2704,10.1046 -0.4092,3.3 -0.6204,8.4546 -3.0954,11.3454 -2.475,2.8908 -2.6796,3.3 -4.7454,5.5704 -2.0658,2.2704 -3.5046,4.3296 -5.775,6.1875 -2.2704,1.8579 -4.125,4.125 -5.5704,5.775 -1.4454,1.65 -2.475,3.0954 -3.9204,3.9204 -1.4454,0.825 -3.7125,1.8546 -3.7125,1.8546 0,0 0,1.65 -0.825,3.3 -0.825,1.65 -4.7454,4.3296 -4.7454,4.3296 l -1.2375,3.0954 c 0,0 -0.6204,1.8546 -2.475,3.5046 -1.8546,1.65 -5.775,4.3296 -5.775,4.3296 l -3.3,2.6796 c 0,0 -2.8875,2.6796 -5.3625,3.7125 -2.475,1.0296 -4.125,2.0625 -5.9796,3.0954 -1.8546,1.0329 -5.1546,3.7125 -8.25,4.3296 -3.0954,0.6171 -12.375,1.65 -16.9125,1.4454 -4.5375,-0.2046 -16.5,-0.825 -20.625,-1.8546 -4.125,-1.0296 -13.4046,-5.1546 -16.7046,-7.2204 -3.3,-2.0658 -12.7875,-9.2796 -16.5,-11.55 -3.7125,-2.2704 -8.4546,-5.775 -11.9625,-7.6296 -3.5079,-1.8546 -5.775,-3.3 -9.075,-5.5704 -3.3,-2.2704 -5.3625,-3.7125 -5.9796,-5.5704 -0.6171,-1.8546 -2.2671,-7.0092 -2.2671,-7.0092 z" />
  <path
     inkscape:connector-curvature="0"
     style="fill:#f1eed4;stroke-width:3.29999995"
     id="path11"
     d="m 244.65059,325.79005 c 0,0 12.5796,0.2046 15.9885,0 3.4023,-0.2046 27.5352,-5.9796 27.5352,-5.9796 0,0 1.2375,3.3 1.8546,4.7454 0.6204,1.4454 2.6796,4.3296 3.9204,5.775 1.2408,1.4454 11.7546,7.6296 13.6125,8.8704 1.8546,1.2408 14.85,9.9 14.85,9.9 l 6.1875,4.95 c 0,0 -3.7125,14.025 -5.3625,17.7375 -1.65,3.7125 -7.8375,21.8625 -9.4875,25.3704 -1.65,3.5079 -9.4875,27.6375 -10.725,33 -1.2375,5.3625 -5.3625,24.1296 -5.775,28.2546 -0.4125,4.125 -2.475,22.275 -2.475,25.7796 0,3.5046 0.2046,17.5296 0.2046,20.4204 0,2.8908 1.4454,29.2875 2.0625,33.6204 0.6204,4.3329 3.5046,25.9875 4.3296,29.0796 0.825,3.0921 4.95,21.2454 4.95,21.2454 h -30.525 c 0,0 -6.1875,-28.6704 -6.6,-32.7954 -0.4125,-4.125 -2.8875,-22.0704 -3.3,-26.4 -0.4125,-4.3296 -2.2704,-22.0704 -2.475,-27.4296 -0.2046,-5.3592 -0.825,-35.475 -0.6204,-41.4546 0.2046,-5.9796 0.825,-18.3546 0.825,-22.4796 0,-4.125 1.65,-17.325 1.0296,-21.8625 -0.6204,-4.5375 -2.2704,-24.1296 -3.5046,-28.4625 -1.2342,-4.3296 -2.475,-13.6125 -2.6796,-17.5296 -0.2046,-3.9204 1.4454,-21.45 1.4454,-21.45 0,0 -4.95,-2.475 -6.6,-4.3296 -1.65,-1.8546 -5.775,-4.95 -6.6,-7.425 -0.825,-2.475 -2.0658,-11.1507 -2.0658,-11.1507 z" />
  <path
     inkscape:connector-curvature="0"
     style="fill:#8f5946;stroke-width:2;stroke:#8f5946;stroke-opacity:1;stroke-miterlimit:4;stroke-dasharray:none"
     id="path13"
     d="m 213.26759,21.332055 c 0.7722,0.1221 1.4586,-0.1881 2.2011,-0.3432 8.7186,-1.9932 16.0545,-6.6198 24.9414,-6.996 6.7188,-0.2937 13.3188,0.9438 19.6581,3.0063 7.9398,0.9801 15.8796,-1.4454 23.892,0.7887 4.1085,1.1385 7.9563,2.904 10.5699,6.3789 4.2108,5.6001 4.6233,12.5664 4.4847,19.1466 -0.1551,8.0091 -3.729,15.246 -7.0686,22.4994 -1.254,2.7126 -1.7028,5.6364 -1.221,8.6064 0.0693,0.3432 0.396,0.5841 0.7425,0.5313 0.3564,-0.0693 0.6006,-0.396 0.5346,-0.7392 -0.8085,-5.1249 1.9239,-9.7482 4.0227,-14.2857 2.3892,-5.1414 4.0392,-10.4874 4.2966,-16.0875 0.2574,-6.0159 -0.3432,-12.1539 -3.0756,-17.6319 -5.8773,-11.88 -20.9682,-11.1573 -32.4159,-10.2432 -4.6596,0.3597 -8.8176,-1.8744 -13.4574,-2.475 -5.8113,-0.7392 -11.2761,-0.7392 -17.2062,0.3267 -6.9267,1.2375 -12.0318,5.2932 -18.8199,6.8574 -0.6864,0.1551 -1.3563,0.4818 -2.079,0.3135 -0.0825,0 -0.1551,0.0825 -0.1551,0.1716 0,0.0891 0.0693,0.1749 0.1551,0.1749 z" />
  <path
     inkscape:connector-curvature="0"
     style="fill:#8f5946;stroke-width:2;stroke:#8f5946;stroke-opacity:1;stroke-miterlimit:4;stroke-dasharray:none"
     id="path37"
     d="m 228.85679,140.64685 c -8.0784,12.4773 0.3432,27.0336 6.2238,38.5704 1.9602,6.4614 1.8381,16.1898 -5.8113,18.579 -0.396,0.1188 -0.6336,0.5511 -0.5148,0.9636 0.1221,0.396 0.5511,0.6369 0.9636,0.5148 3.6762,-1.1352 6.7386,-4.2636 7.5273,-8.1807 0.495,-2.4915 0.4455,-4.8675 0.2904,-7.3425 -0.2904,-4.9665 -3.0624,-9.0585 -5.2239,-13.4376 -1.9074,-3.8874 -3.63,-7.6296 -4.6068,-11.9625 -1.3398,-5.9994 -2.2869,-12.3585 1.4454,-17.5296 0.0528,-0.0858 0.0165,-0.1881 -0.0693,-0.2409 -0.0693,-0.0363 -0.1749,-0.0198 -0.2244,0.066 z" />
  <path
     inkscape:connector-curvature="0"
     style="fill:#8f5946;stroke-width:2;stroke:#8f5946;stroke-opacity:1;stroke-miterlimit:4;stroke-dasharray:none"
     id="path51"
     d="m 32.387986,209.37925 c 3.0063,2.4057 5.049,5.4318 7.3557,8.7318 4.5705,6.5472 10.2102,11.3949 17.0676,14.9523 6.1875,3.2142 13.1307,2.3892 19.8165,2.6466 3.9039,0.1551 7.6824,0.5148 11.6523,1.3596 7.8375,1.6665 15.262504,2.5278 22.393804,5.6364 0.1023,0.0528 0.2244,0 0.2574,-0.1023 0.0363,-0.099 -0.0165,-0.2211 -0.1188,-0.2574 -4.0062,-1.6665 -7.8045,-4.0227 -12.219904,-4.3626 -6.0852,-1.9107 -12.3057,-3.0096 -18.7011,-3.6135 -8.4678,-0.8052 -17.3085,1.3596 -24.9909,-4.0854 -6.8211,-4.8279 -12.0846,-9.8835 -17.0676,-16.5561 -1.4586,-1.9239 -3.4716,-3.0789 -5.2404,-4.5903 -0.0693,-0.0693 -0.1716,-0.0528 -0.2244,0.0165 -0.0693,0.0693 -0.0495,0.1716 0.0198,0.2244 z" />
  <path
     inkscape:connector-curvature="0"
     style="fill:#8f5946;stroke-width:2;stroke:#8f5946;stroke-opacity:1;stroke-miterlimit:4;stroke-dasharray:none"
     id="path53"
     d="m 53.956786,230.57185 c 1.6665,1.2045 3.2142,2.5113 5.0325,3.5574 4.4682,2.5575 9.5436,2.4189 14.2824,4.0557 5.775,2.0097 11.2563,4.2471 16.7904,6.8607 6.9267,3.2637 14.127304,5.5341 20.694304,9.3819 7.3557,2.7489 14.0052,6.8739 22.0506,8.3193 2.3364,0.4125 4.6068,-0.1914 6.633,-1.2936 0.3795,-0.1881 0.5148,-0.6666 0.3102,-1.0296 -0.1881,-0.3795 -0.6666,-0.5148 -1.0296,-0.3267 -2.3034,1.4091 -5.1381,1.5642 -7.6461,0.7689 -14.1801,-4.4517 -26.6211,-11.9625 -40.322704,-17.0841 -5.4153,-2.9568 -11.121,-5.1051 -17.0346,-7.0455 -6.6,-2.1681 -13.8699,-2.3364 -19.5954,-6.4482 -0.0693,-0.0561 -0.1749,-0.033 -0.2244,0.0528 -0.0429,0.0759 -0.0099,0.1782 0.0594,0.231 z" />
  <path
     inkscape:connector-curvature="0"
     style="fill:#8f5946;stroke-width:2;stroke:#8f5946;stroke-opacity:1;stroke-miterlimit:4;stroke-dasharray:none"
     id="path55"
     d="m 132.96869,285.05815 c -0.0165,-4.125 0.4818,-6.9102 0.9273,-11.0352 0.5841,-5.2239 3.9204,-9.1938 6.6528,-13.5597 5.3097,-5.6364 10.6425,-11.2563 16.5,-16.3284 8.25,-5.3625 15.3648,-11.8602 22.3608,-19.0575 5.379,-5.5176 10.9989,-10.1904 17.721,-14.1471 7.5075,-4.4154 15.6057,-6.2403 23.3046,-9.7449 0.1914,-0.1023 0.2739,-0.3267 0.1914,-0.5148 -0.0858,-0.1881 -0.3135,-0.2739 -0.4983,-0.1881 -3.6267,1.4784 -7.1148,3.1614 -10.9164,4.3131 -4.5012,1.3596 -8.8539,2.2572 -12.9624,4.7949 -6.6693,4.1085 -12.2199,8.679 -17.6517,14.1108 -4.4847,4.4682 -8.5767,8.7318 -13.5267,12.7545 -3.9336,3.2142 -8.151,5.3955 -11.7711,8.9001 -5.0358,4.8972 -10.0221,9.0915 -14.2824,14.85 -3.1977,4.2801 -4.8312,9.2136 -5.1546,14.355 -0.2739,4.158 -1.4784,8.1807 -1.1385,12.3585 0,0.0825 -0.0528,-5.775 0.0363,-5.775 0.0825,0 1.1352,-7.0323 1.1352,-7.1181 z" />
  <path
     inkscape:connector-curvature="0"
     style="fill:#8f5946;stroke-width:2;stroke:#8f5946;stroke-opacity:1;stroke-miterlimit:4;stroke-dasharray:none"
     id="path61"
     d="m 22.418686,129.25195 c 0.1914,1.5477 0.0693,3.1449 -0.4125,4.5375 -3.5739,10.4346 -6.9564,20.8296 -5.7915,31.9341 1.2375,11.8239 12.4971,18.8727 23.1363,21.2454 0.1749,0.0693 0.3432,-0.0396 0.396,-0.1947 0.0693,-0.1716 -0.033,-0.3432 -0.1881,-0.4125 -7.1511,-3.0393 -14.9358,-5.8575 -19.3347,-13.0053 -3.267,-5.2932 -3.0096,-11.1045 -2.6301,-16.8597 0.4653,-6.9795 2.8347,-13.4739 5.0028,-20.1432 0.7425,-2.3199 0.3135,-4.7454 0.1749,-7.1346 v 0 c -0.0165,-0.0858 -0.1023,-0.1551 -0.1914,-0.1551 -0.0924,0.0165 -0.1617,0.1023 -0.1617,0.1881 z" />
  <path
     inkscape:connector-curvature="0"
     style="fill:#8f5946;stroke-width:3.29999995"
     id="path63"
     d="m 35.357986,175.01965 c 0.1914,10.4676 8.5602,17.721 16.6716,22.9812 0.0858,0.0528 0.2046,0.033 0.2739,-0.0528 0.0693,-0.0858 0.0561,-0.2244 -0.033,-0.297 -7.2699,-5.874 -15.5199,-12.7875 -16.599,-22.6875 v 0 c 0,-0.0825 -0.0858,-0.1551 -0.1914,-0.1386 -0.0858,0.0264 -0.1386,0.1122 -0.1221,0.1947 z" />
  <path
     inkscape:connector-curvature="0"
     style="fill:#8f5946;stroke-width:2;stroke:#8f5946;stroke-opacity:1;stroke-miterlimit:4;stroke-dasharray:none"
     id="path65"
     d="m 17.485186,168.32065 c 0.1551,2.475 1.2705,4.7586 1.4784,7.1841 0.2904,3.729 0.6369,7.2534 1.5114,10.9659 1.65,7.0983 4.2801,13.1472 8.5404,19.2159 3.7983,5.379 9.1608,8.3193 15.1767,10.1178 6.5307,1.947 12.8073,3.6135 19.1961,5.7948 2.1483,0.7227 3.8346,2.1615 5.775,3.2307 0.0858,0.0495 0.1914,0.0165 0.2409,-0.0693 0.0528,-0.0858 0.0165,-0.1947 -0.0561,-0.2244 -5.0325,-3.5904 -10.4313,-6.2898 -16.5693,-7.9068 -4.5375,-1.1814 -8.9034,-2.178 -13.0614,-4.224 -14.2461,-6.9795 -17.721,-23.6874 -19.7472,-38.247 -0.2046,-1.5081 -1.254,-2.8182 -1.7886,-4.3131 -0.1881,-0.5148 -0.2376,-1.0659 -0.3762,-1.5939 -0.0198,-0.0858 -0.1188,-0.1584 -0.2046,-0.1386 -0.0858,0.0165 -0.1551,0.1155 -0.1386,0.2046 h 0.0231 z" />
  <path
     inkscape:connector-curvature="0"
     style="fill:#8f5946;stroke-width:2;stroke:#8f5946;stroke-opacity:1;stroke-miterlimit:4;stroke-dasharray:none"
     id="path75"
     d="m 26.870386,144.20425 c -1.0989,-2.4915 -1.6335,-5.0523 -2.3034,-7.755 -0.7425,-3.0063 -0.9636,-5.808 -0.4455,-8.8506 0.9966,-5.8773 2.9568,-11.0154 6.2568,-16.1205 3.4551,-5.3625 7.6824,-9.5271 10.725,-14.849995 0.2046,-0.2574 0.1551,-0.6369 -0.1221,-0.8415 -0.2574,-0.1914 -0.6336,-0.1386 -0.825,0.1188 -7.2864,9.507295 -15.279,18.905695 -17.2392,31.349995 -0.4455,2.7885 -0.2211,5.3823 0.3102,8.217 0.6204,3.2472 2.2341,5.8773 3.3363,8.8341 0.0165,0.0858 0.1188,0.1221 0.2046,0.1023 0.0825,-0.033 0.1353,-0.1188 0.1023,-0.2046 z" />
  <path
     inkscape:connector-curvature="0"
     style="fill:#8f5946;stroke-width:2;stroke:#8f5946;stroke-opacity:1;stroke-miterlimit:4;stroke-dasharray:none"
     id="path83"
     d="m 42.268186,112.28665 c -1.0461,-1.4784 -1.1682,-3.201 -1.2705,-4.9335 -0.2574,-4.2471 0.1551,-8.490895 1.2375,-12.599395 5.7915,-11.7744 14.7114,-21.2454 24.8193,-29.9244 15.9159,-13.6455 33.927304,-21.3279 51.991504,-31.6932 0.8943,-0.4983 1.7886,-1.1154 2.5278,-1.8744 0.1551,-0.099 0.2046,-0.3267 0.1023,-0.4818 -0.1221,-0.1716 -0.3432,-0.2046 -0.4983,-0.1023 -3.2637,2.0262 -6.7914,3.4188 -10.2267,5.2932 -11.206804,6.1182 -21.638104,11.2563 -32.587504,18.579 -15.3483,10.2564 -27.5847,21.8955 -36.4551,37.6365 -2.9436,5.2635 -2.1846,11.173795 -1.5114,16.879495 0.1386,1.2936 0.9801,2.2539 1.5642,3.3561 0.0561,0.0693 0.1386,0.1155 0.2244,0.0693 0.0825,-0.033 0.1188,-0.1353 0.0825,-0.2046 z" />
  <path
     inkscape:connector-curvature="0"
     style="fill:#8f5946;stroke-width:2;stroke:#8f5946;stroke-opacity:1;stroke-miterlimit:4;stroke-dasharray:none"
     id="path85"
     d="m 110.71019,43.811655 c 3.7686,-4.6761 7.2699,-9.2664 12.3915,-12.9954 5.2239,-3.8148 10.5534,-6.3591 16.3119,-8.679 9.042,-3.6267 18.6483,-4.4847 28.2546,-5.0358 6.4284,-0.3564 12.5994,-0.3564 19.1664,-1.7325 4.3989,-0.9273 8.3028,-1.6665 12.7017,-2.5443 6.2733,-1.2375 12.0846,-1.254 18.2886,-0.1221 3.7818,0.6864 7.2699,1.0989 10.9824,2.079 1.5477,0.4125 3.2142,0.7425 4.7784,0.2409 0.396,-0.1716 0.5841,-0.6204 0.429,-1.0164 -0.1716,-0.396 -0.6204,-0.5874 -1.0131,-0.4125 -1.254,0.2574 -2.4915,0 -3.729,-0.2574 -3.0954,-0.6369 -5.8443,-1.1847 -8.9199,-1.7358 -1.4289,-0.2574 -2.7489,-0.6534 -4.1415,-0.792 -5.5704,-0.528 -10.9197,-0.6336 -16.5858,0.4323 -6.6693,1.254 -12.7182,2.8479 -19.3182,3.5541 -7.6131,0.8085 -15.0381,0.7425 -22.6677,1.5807 -7.9233,0.8943 -15.4704,2.7159 -22.7568,5.9466 -10.1904,4.521 -18.8529,11.6523 -24.4398,21.2586 v 0 c -0.0693,0.0825 -0.0693,0.2046 0.033,0.2739 0.0858,0.0693 0.2046,0.0693 0.2739,-0.033 z" />
  <path
     inkscape:connector-curvature="0"
     style="fill:#8f5946;stroke-width:3.29999995"
     id="path89"
     d="m 183.13859,19.955955 c 0,0.0858 0.0693,0.1551 0.1551,0.1551 0.1023,0 0.1716,-0.0693 0.1716,-0.1551 v 0 c 0,-0.1023 -0.0693,-0.1716 -0.1716,-0.1716 -0.0858,0 -0.1551,0.0693 -0.1551,0.1716 z" />
  <path
     inkscape:connector-curvature="0"
     style="fill:#8f5946;stroke-width:2;stroke:#8f5946;stroke-opacity:1;stroke-miterlimit:4;stroke-dasharray:none"
     id="path91"
     d="m 156.44489,44.293455 c 11.2926,-8.3721 25.6575,-9.6591 39.3591,-10.9131 3.7686,-0.3432 7.392,-1.3068 10.7613,-3.2175 2.3529,-1.3365 4.2834,-3.0954 6.6,-4.3626 0.0858,-0.0561 0.1188,-0.1584 0.0693,-0.2409 -0.0495,-0.0858 -0.1551,-0.1023 -0.2409,-0.0561 -12.1704,9.0222 -27.9642,5.5869 -41.9034,10.0584 -5.5704,1.7688 -10.6062,4.5012 -14.8302,8.4546 v 0 c -0.0693,0.0528 -0.1023,0.1551 -0.0561,0.2244 0.0495,0.0693 0.1551,0.1056 0.2409,0.0528 z" />
  <path
     inkscape:connector-curvature="0"
     style="fill:#8f5946;stroke-width:2;stroke:#8f5946;stroke-opacity:1;stroke-miterlimit:4;stroke-dasharray:none"
     id="path105"
     d="m 330.96869,141.83155 c -0.1716,2.871 -0.033,6.105 2.3199,8.0454 3.8148,3.1614 7.5636,6.1875 12.5301,7.2699 3.4221,0.7557 6.7023,0.1551 9.933,-0.7227 0.1584,-0.0363 0.2574,-0.1749 0.2244,-0.33 -0.033,-0.1551 -0.1881,-0.2409 -0.3432,-0.2046 -5.0358,1.4454 -10.4709,0.858 -14.751,-2.475 -0.5676,-0.429 -1.0989,-0.9108 -1.7028,-1.221 -4.125,-2.0097 -8.646,-5.28 -7.8738,-10.3686 v 0 c 0,-0.099 -0.0858,-0.1716 -0.1749,-0.1716 -0.0759,0.01 -0.1617,0.0759 -0.1617,0.1782 z" />
  <path
     inkscape:connector-curvature="0"
     style="fill:#8f5946;stroke-width:2;stroke:#8f5946;stroke-opacity:1;stroke-miterlimit:4;stroke-dasharray:none"
     id="path107"
     d="m 249.49829,193.73725 c 7.3689,-1.0296 14.2131,-3.8841 21.0012,-7.1148 8.4711,-4.0227 17.5461,-5.5539 26.3472,-8.679 5.0028,-1.7886 9.4875,-4.4847 14.5761,-6.1017 7.2864,-2.3199 14.4375,-4.4847 20.3676,-9.6426 4.1085,-3.5574 4.8114,-9.5898 1.9239,-14.0085 -0.1386,-0.3795 -0.5841,-0.5874 -0.9636,-0.429 -0.396,0.1386 -0.6006,0.5841 -0.4455,0.9801 1.6665,2.871 2.4915,6.3954 0.6369,9.3654 -5.5572,8.8539 -16.2459,9.8307 -25.0074,13.3716 -5.775,2.3364 -10.9989,5.3295 -17.2095,6.8739 -7.3227,1.8051 -14.1636,3.7455 -20.8791,6.8739 -6.7023,3.1284 -13.1307,6.8211 -20.4204,8.1972 v 0 c -0.0858,0 -0.1386,0.0825 -0.1188,0.1881 0.003,0.0924 0.0891,0.1452 0.1914,0.1254 z" />
  <path
     inkscape:connector-curvature="0"
     style="fill:#8f5946;stroke-width:3.29999995"
     id="path109"
     d="m 331.92899,161.11675 c 1.5972,-1.617 2.1648,-3.9204 3.9204,-5.346 1.6863,-1.3761 4.3296,-0.7557 6.3261,-0.1221 0.3102,0.1386 0.6864,-0.0165 0.8085,-0.3267 0.1386,-0.33 -0.0198,-0.6864 -0.33,-0.825 -2.5938,-0.9834 -6.4449,-1.3596 -8.0784,1.3068 -1.0461,1.7358 -1.6665,3.5574 -2.904,5.1216 -0.0528,0.0693 -0.0528,0.1749 0.0396,0.2211 0.0627,0.0561 0.1683,0.0561 0.2178,-0.0297 z" />
  <path
     inkscape:connector-curvature="0"
     style="fill:#8f5946;stroke-width:3.29999995"
     id="path111"
     d="m 333.87269,157.09405 c 1.0296,-1.2375 1.0461,-2.8875 1.7523,-4.2636 l 0.0528,-0.3564 -0.099,0.2574 0.1188,-0.1386 c 0.0528,-0.0561 0.0693,-0.0858 0.0825,-0.1386 l 0.2904,-0.429 -0.5841,0.2739 0.2409,0.0693 -0.0693,-0.0363 0.429,0.2046 -0.2046,-0.2046 0.2046,0.429 -0.0363,-0.2904 -0.0693,0.3795 c -0.0858,0.3069 -0.1947,0.6006 -0.2739,0.9075 l -0.1749,0.2046 c -0.0693,0.099 -0.0825,0.2046 -0.0825,0.3102 l 0.0165,0.2244 c 0.0165,0.1716 0.1188,0.3432 0.2904,0.4125 l 0.0528,0.0165 c 0.1386,0.0693 0.2904,0.0528 0.4125,-0.0165 l 0.3597,-0.1947 c 0.0693,-0.0528 0.1386,-0.1023 0.1716,-0.1881 l 0.1914,-0.3102 c 0.033,-0.0561 0.0528,-0.1023 0.0693,-0.1584 l 0.033,-0.2046 c 0.0363,-0.1386 0,-0.2574 -0.0693,-0.3597 l -0.0693,-0.1386 c -0.0825,-0.1386 -0.2376,-0.2178 -0.396,-0.2178 h -0.5841 c -0.7227,0.0528 -1.1517,0.7227 -1.4454,1.3068 v 0.4455 c 0.0165,0.2046 0.1881,0.3597 0.3729,0.396 l 0.3135,0.0561 c 0.1221,0.0165 0.2376,0 0.3267,-0.0693 l 0.3432,-0.2409 c 0.1947,-0.2211 0.3597,-0.4653 0.5148,-0.7227 l 0.2937,-0.5511 c 0.0561,-0.1023 0.0693,-0.2046 0.0561,-0.3267 l -0.1023,-0.3762 c -0.1221,-0.3432 -0.396,-0.5676 -0.6369,-0.825 l -0.8085,-0.5181 c -0.0528,-0.0165 -0.0825,-0.033 -0.1386,-0.033 -0.2739,-0.0528 -0.528,0.1386 -0.5841,0.4125 l -0.0363,0.3432 c 0.0858,0.4818 0.396,0.825 0.7392,1.1319 l 0.726,0.2607 c 0.1551,0.033 0.3267,0 0.4455,-0.1221 l 0.4653,-0.4983 c 0.2574,-0.5181 0.1221,-1.1187 -0.2178,-1.7325 l -0.6534,-0.6699 c -0.1023,-0.1386 -0.2739,-0.2046 -0.4455,-0.2046 l -0.1386,0.0165 c -0.0693,0 -0.1386,0.0165 -0.2046,0.0561 -0.2574,0.1386 -0.3432,0.4455 -0.2211,0.6864 l 0.0825,0.1518 c 0.6369,1.5114 2.046,2.475 3.6597,2.6796 0.2739,0.0858 0.5511,-0.0693 0.6204,-0.3267 0.0693,-0.2574 -0.0693,-0.5346 -0.3432,-0.6204 -0.9966,-0.2574 -1.9602,-0.6006 -2.7489,-1.3926 -0.1023,-0.1221 -0.5313,0.0858 -0.8415,0.1716 l 0.4818,-1.1352 -0.429,0.7425 h 0.1386 l -0.3267,-0.0858 0.4818,0.429 c 0,-0.0165 -0.0165,-0.0363 -0.0165,-0.0528 0.1386,0.1716 0.2937,0.3432 0.429,0.5148 l -0.429,0.5874 0.4653,-0.1221 -0.6303,-0.2904 c 0.2574,0.5115 -0.2739,0.396 -0.4488,0.5676 l 0.4125,-0.9108 -0.7887,0.33 0.6699,0.3927 c -0.0165,-0.0165 -0.0561,-0.0363 -0.0693,-0.0528 l 0.4983,0.7029 0.0528,-0.3102 -0.4455,0.8085 c 0.0165,-0.0165 0.033,-0.0165 0.0528,-0.033 l -0.396,0.3762 0.33,-0.0693 -0.3102,-0.0561 0.3927,0.396 0.2211,-0.5115 0.0165,0.0165 0.8085,-0.1386 -0.396,-0.2244 0.1023,0.1386 -0.0693,-0.3597 -0.033,0.2211 0.0561,-0.1386 -0.1749,0.3102 0.1749,-0.1716 -0.3432,0.1914 0.4125,-0.0165 -0.0528,-0.033 0.2904,0.4125 -0.0165,-0.2244 -0.0858,0.3135 0.396,-0.8085 c 0,-0.0165 0.0165,-0.0528 0.0165,-0.0693 l 0.2409,-1.0296 c 0.0165,-0.1023 0,-0.2046 -0.0561,-0.3102 l -0.2178,-0.4125 c -0.0561,-0.0858 -0.1386,-0.1749 -0.2244,-0.2046 l -0.429,-0.2046 c -0.0165,0 -0.0528,-0.0165 -0.0693,-0.0165 l -0.2244,-0.0858 c -0.1881,-0.0561 -0.3795,0.0165 -0.4983,0.1551 l -0.2739,0.429 v 0 l -0.1221,0.1386 c -0.0693,0.0693 -0.099,0.1551 -0.1155,0.2574 l -0.1221,0.4983 c -0.396,1.3365 -0.429,2.7654 -1.0494,4.0557 v 0 c -0.0528,0.0858 -0.0165,0.1881 0.0693,0.2211 0.0495,0.0495 0.1518,0.0132 0.2046,-0.0561 z" />
  <path
     inkscape:connector-curvature="0"
     style="fill:#8f5946;stroke-width:2;stroke:#8f5946;stroke-opacity:1;stroke-miterlimit:4;stroke-dasharray:none"
     id="path121"
     d="m 385.50449,50.170755 c 0.6039,0.9471 1.5807,1.4256 2.5443,1.5939 16.6551,3.0624 30.6273,12.6489 38.8608,27.192 2.0295,3.5904 3.5739,7.4811 3.5046,11.55 -0.0528,2.6664 -0.858,5.2569 -1.221,7.9068 v 0 c -0.033,0.2376 0.1221,0.4818 0.3795,0.5115 0.2409,0.0561 0.4818,-0.1155 0.5148,-0.3564 0.6336,-3.8841 2.5773,-7.5636 1.5642,-11.6721 -2.3364,-9.4875 -8.0256,-16.9125 -15.279,-23.133 -5.9466,-5.0721 -12.3915,-8.976 -19.7307,-11.4279 -3.0954,-1.0296 -6.1875,-1.2936 -9.4512,-1.9932 -0.5148,-0.1221 -0.9636,-0.363 -1.4091,-0.6204 -0.1716,-0.1056 -0.396,-0.0561 -0.4983,0.1155 -0.1023,0.1749 -0.0528,0.396 0.1188,0.4983 z" />
  <path
     inkscape:connector-curvature="0"
     style="fill:#8f5946;stroke-width:2;stroke:#8f5946;stroke-opacity:1;stroke-miterlimit:4;stroke-dasharray:none"
     id="path123"
     d="m 428.59259,82.933155 c 0.8811,4.6926 5.0193,7.1148 8.8836,9.6426 7.5636,4.9665 11.4939,11.945995 16.7376,19.093795 5.6925,7.7682 9.3324,15.9852 11.1375,25.0437 0.2211,5.5836 1.4454,11.4807 -0.6039,16.83 -0.033,0.099 0.0165,0.2046 0.1221,0.2376 0.1023,0.0396 0.2046,-0.0165 0.2409,-0.1188 5.2074,-13.5564 0.2046,-27.9642 -7.755,-40.0653 -3.6267,-5.5176 -7.1346,-10.1574 -11.2068,-15.245995 -4.3824,-5.4681 -10.3818,-8.1807 -15.5364,-12.7182 -0.8085,-0.726 -1.254,-1.7886 -1.683,-2.8182 v 0 c -0.0363,-0.0825 -0.1386,-0.1386 -0.2244,-0.1023 -0.0957,0.0297 -0.1287,0.1155 -0.1122,0.2211 z" />
  <path
     inkscape:connector-curvature="0"
     style="fill:#8f5946;stroke-width:2;stroke:#8f5946;stroke-opacity:1;stroke-miterlimit:4;stroke-dasharray:none"
     id="path143"
     d="m 306.45629,265.51225 c 6.1875,-3.0591 13.167,-4.4319 20.0937,-3.5211 7.3557,0.9636 14.1108,3.6135 21.45,4.2636 11.946,1.0494 23.6313,0.8415 35.5938,2.2176 15.9852,1.8249 31.3665,5.0721 46.3914,10.3323 12.2727,2.4057 23.925,8.0751 36.5046,8.349 4.0029,0.1023 8.0454,-0.5511 11.7546,-2.3364 5.2239,-2.5278 8.8836,-6.8178 11.946,-11.8239 1.8744,-3.0591 3.0096,-6.3063 3.6597,-9.7449 0.0693,-0.3564 -0.1749,-0.7029 -0.5346,-0.7689 -0.3762,-0.0693 -0.7227,0.1716 -0.7887,0.5346 -2.1318,8.5932 -7.3227,16.8762 -15.5727,20.625 -6.6561,3.0096 -13.8864,2.4387 -20.9682,0.5841 -5.5176,-1.4256 -10.5006,-3.1449 -16.071,-4.4682 -12.5136,-2.9865 -23.4267,-7.524 -36.0954,-9.6261 -6.9102,-1.1352 -13.3221,-2.6466 -20.1795,-3.3 -5.2602,-0.495 -10.4148,-0.6864 -15.6585,-1.0461 -8.1279,-0.5313 -16.0017,-0.1716 -24.2682,-1.683 -6.0324,-1.0824 -11.517,-2.871 -17.4801,-3.3363 -6.8937,-0.5676 -13.7346,1.4784 -19.9221,4.455 -0.0858,0.0528 -0.1221,0.1518 -0.0858,0.2178 0.0627,0.0759 0.165,0.1122 0.231,0.0759 z" />
  <path
     inkscape:connector-curvature="0"
     style="fill:#8f5946;stroke-width:3.29999995"
     id="path147"
     d="m 352.65629,291.51955 c 4.5375,-2.2704 8.679,-5.0028 13.9227,-6.0654 3.4716,-0.7062 6.5472,-1.6335 9.9693,-2.079 6.8739,-0.8811 13.6455,-1.5675 19.899,-4.4847 0.1221,-0.033 0.1914,-0.1716 0.1386,-0.3102 -0.033,-0.1188 -0.1881,-0.1881 -0.3102,-0.1386 -6.8409,2.8182 -14.0943,2.1318 -21.483,3.7125 -4.2108,0.9108 -8.0256,1.9239 -11.9295,3.4386 -3.7455,1.4256 -6.7881,3.9369 -10.3455,5.6364 v 0 c -0.0858,0.033 -0.1221,0.1386 -0.0858,0.2244 0.0561,0.0825 0.1584,0.1155 0.2244,0.066 z" />
  <path
     inkscape:connector-curvature="0"
     style="fill:#8f5946;stroke-width:2;stroke:#8f5946;stroke-opacity:1;stroke-miterlimit:4;stroke-dasharray:none"
     id="path153"
     d="m 293.77439,317.76445 c 10.6557,-2.9403 21.0375,-6.0489 31.8318,-9.2136 6.5472,-1.9239 13.0284,-2.6796 19.6119,-4.5705 4.8477,-1.3926 9.3324,-3.1119 13.3386,-6.2733 5.0325,-3.9864 9.2796,-7.8375 14.7477,-11.2596 4.521,-2.8017 9.3489,-3.9006 14.3154,-4.983 0.1716,-0.033 0.2937,-0.2244 0.2409,-0.396 -0.0363,-0.1716 -0.2046,-0.2739 -0.3795,-0.2409 -5.1216,1.155 -10.4841,1.2771 -15.1602,4.521 -2.6301,1.8216 -5.2239,3.0426 -7.5108,5.1546 -2.3034,2.1318 -4.5045,3.9864 -7.0653,5.874 -9.8472,7.2699 -21.4665,8.0124 -32.6238,10.5534 -10.5039,3.4716 -21.2124,6.2733 -31.4193,10.5204 -0.0858,0.0165 -0.1386,0.099 -0.1221,0.1914 0.0231,0.0891 0.1089,0.1386 0.1947,0.1221 z" />
  <path
     inkscape:connector-curvature="0"
     style="fill:#8f5946;stroke-width:3.29999995"
     id="path159"
     d="m 224.74829,327.11335 c 4.4517,-0.7722 9.0189,-0.858 13.5564,-0.4818 8.6955,0.726 17.2557,0.5346 26.004,-0.6006 8.4546,-1.0989 16.2063,-3.4881 24.4068,-5.7915 9.7812,-2.7489 18.4074,-7.1313 28.5648,-8.679 9.3852,-1.4454 18.2688,-0.9636 27.6177,-2.3694 11.3124,-1.7061 21.9186,-4.3197 32.3664,-8.5635 12.342,-5.0193 24.7665,-9.1575 37.0029,-14.1636 11.8767,-3.5904 24.6972,-5.445 36.8511,-2.046 7.4943,0.3432 14.9523,2.9733 22.4301,1.65 0.1023,0 0.1716,-0.099 0.1716,-0.2211 -0.0165,-0.1023 -0.1188,-0.1716 -0.2178,-0.1716 -5.775,0.7689 -11.2596,-0.9471 -17.0676,-1.9635 -5.1546,-0.8943 -9.9198,-2.145 -14.9886,-2.5443 -9.471,-0.7227 -18.8034,0.792 -27.7068,4.0227 -12.2199,4.4517 -24.1494,8.7483 -36.1812,13.6983 -8.9199,3.6564 -17.754,5.9301 -27.4989,7.821 -16.3977,3.2142 -32.3136,1.0989 -47.7312,7.1115 -13.8204,5.379 -28.0335,9.4182 -42.6789,11.2596 -7.9563,0.0165 -15.8631,0.7227 -23.8887,-0.1551 -3.8148,-0.396 -7.5273,0.5511 -11.0847,1.8381 -0.1023,0.0198 -0.1716,0.1221 -0.1551,0.2244 0.0165,0.1023 0.1221,0.1716 0.2244,0.1551 z" />
  <path
     inkscape:connector-curvature="0"
     style="fill:#8f5946;stroke-width:3.29999995"
     id="path161"
     d="m 279.57779,322.16335 c 3.3363,-0.6204 6.9597,-2.3892 10.1574,-0.6369 5.6925,3.1119 11.2926,6.0489 17.721,6.6165 7.425,0.6534 14.7477,0.9108 22.1727,1.2375 5.3988,0.2409 10.692,1.0989 16.1436,1.7061 3.8511,0.429 7.6296,0.3564 11.4279,0.3267 7.4085,-0.033 14.7114,-1.8216 21.6216,-4.6563 4.9335,-2.0262 9.2994,-4.5375 13.8864,-7.7682 7.6131,-5.3955 14.6256,-10.1574 23.133,-13.1835 7.1511,-2.5608 13.992,-5.1546 21.3972,-7.2204 4.917,-1.353 9.8472,-1.7028 14.5926,-3.399 2.3199,-0.8415 0.858,-3.4551 0.1023,-4.9863 -0.0165,-0.099 -0.1221,-0.1551 -0.2244,-0.1386 -0.1023,0.0396 -0.1551,0.1386 -0.1386,0.2244 0.4455,1.4256 1.6665,3.6102 -0.2574,4.3494 -3.7125,1.4256 -7.5636,1.5114 -11.5665,2.3529 -8.5932,1.8051 -16.1898,4.4154 -24.1989,7.2864 -11.4312,4.1085 -20.3148,11.7381 -30.9045,17.9784 -6.8739,4.0557 -14.058,5.874 -21.879,7.2006 -5.5506,0.9471 -10.824,0.4125 -16.2756,0.1914 -5.6364,-0.2574 -11.2068,-1.1187 -16.8597,-1.5477 -4.125,-0.3102 -8.2137,-0.2409 -12.3387,-0.5148 -4.6398,-0.2937 -9.1443,-0.2376 -13.8534,-1.2903 -5.379,-1.2045 -9.5436,-4.2801 -14.6091,-5.9301 -3.1086,-1.0197 -6.2238,0.792 -9.2961,1.4949 v 0 c -0.0858,0 -0.1551,0.0825 -0.1386,0.1716 0.0132,0.1023 0.0957,0.1551 0.1848,0.1353 z" />
  <path
     inkscape:connector-curvature="0"
     style="fill:#8f5946;stroke-width:3.29999995"
     id="path163"
     d="m 273.26819,323.81335 c 4.521,-0.7392 8.8869,-2.5443 13.4739,-2.5773 0.8943,0 1.5312,1.0164 1.8546,1.9074 0.4653,1.2705 0.3762,2.6631 1.0461,3.8841 1.0791,1.9437 2.5575,3.4221 4.3989,4.6926 7.5075,5.1909 14.4903,8.646 21.9813,13.8699 6.93,4.8312 12.771,9.1443 19.8198,13.6125 8.7813,5.5704 18.3051,7.1511 28.149,7.7385 8.976,0.528 17.9949,0.3729 26.73,-2.3925 2.6301,-0.825 4.554,-2.7159 6.9432,-3.9699 4.8114,-2.5278 9.7449,-4.7751 13.167,-9.0387 4.3659,-1.5312 8.1642,-4.8114 9.1971,-9.4347 1.32,-1.3233 3.0261,-2.1153 4.3659,-3.4551 1.5807,-1.5477 1.7688,-3.7125 2.5443,-5.6364 4.1778,-1.4091 7.2204,-4.7586 9.4512,-8.4414 4.6926,-3.9501 8.3193,-8.7318 12.6159,-13.2693 3.0261,-3.1779 4.4154,-7.3557 4.8477,-11.6523 0.4653,-4.8807 -1.3233,-9.57 -3.1449,-14.0778 -2.9403,-4.0722 -8.3358,-4.3989 -12.9096,-5.0193 v 0 c -0.1221,0 -0.2244,0.0858 -0.2244,0.2046 0,0.1188 0.0858,0.2178 0.2046,0.2178 3.4551,0.6699 6.4977,2.5443 9.867,3.4749 3.6432,3.8841 4.3824,9.7614 4.8114,14.9028 -0.6204,3.9369 -1.8909,7.7682 -4.5045,10.8801 -2.871,3.3693 -5.775,6.2733 -8.8176,9.471 -2.6664,2.7819 -4.8972,5.4813 -7.4085,8.4216 -0.9108,1.0494 -1.9602,1.9635 -3.2472,2.5146 -1.0626,0.4455 -2.2011,0.8052 -2.8512,1.7655 -1.1385,1.7193 -0.8943,3.8874 -2.475,5.2932 -1.1847,1.0989 -2.5113,1.8414 -3.7983,2.8545 -0.3597,0.2739 -0.6534,0.6204 -0.7557,1.0626 -0.9966,4.488 -4.5705,7.1148 -8.5041,8.613 -3.7125,4.3461 -8.7648,6.7023 -13.8204,9.3654 -0.858,0.4455 -1.6335,1.1154 -2.4915,1.6335 -9.0057,5.4153 -19.5261,4.5375 -29.3733,4.1415 -9.6591,-0.3795 -19.0443,-2.0625 -27.7068,-7.425 -8.0784,-5.0028 -14.6322,-10.296 -22.6347,-15.5199 -6.6825,-4.3626 -12.8403,-7.5636 -19.404,-12.1836 -1.5972,-1.1154 -3.0096,-2.3925 -3.696,-4.1415 -0.7557,-1.9239 -0.7392,-4.2636 -2.5113,-5.742 -1.4949,-1.2375 -3.3165,-0.7029 -5.0028,-0.2904 -3.6135,0.8943 -6.8211,2.3364 -10.2762,3.4386 -0.0858,0.0165 -0.1386,0.099 -0.1221,0.1881 0.0396,0.1023 0.1254,0.1551 0.2112,0.1188 z" />
  <path
     inkscape:connector-curvature="0"
     style="fill:#8f5946;stroke-width:3.29999995"
     id="path165"
     d="m 346.46879,330.24175 c 1.9767,0.7887 4.1085,0.9966 6.171,0.7392 4.8114,-0.6006 9.4314,-1.7193 14.2428,-1.3233 3.6432,1.3959 7.0125,3.3 10.626,4.851 3.0591,1.32 6.1314,1.8546 9.4677,2.508 5.9334,1.1682 11.451,1.7358 17.3448,0.9273 1.0989,-0.1386 2.1813,0.033 3.2802,-0.0858 6.0687,-0.7227 11.946,-1.6665 17.5461,-4.1415 3.4221,-1.5312 5.9301,-4.3494 8.8176,-6.6165 0.0693,-0.0693 0.0693,-0.1716 0,-0.2409 -0.0528,-0.0693 -0.1716,-0.0858 -0.2409,-0.0165 -9.2136,8.1642 -21.9615,9.4182 -33.6864,9.9693 -10.6557,0.4983 -21.0177,-2.2506 -30.5778,-7.425 -0.7887,-0.429 -1.6335,-0.5313 -2.475,-0.6666 -7.0653,-1.0989 -13.596,3.3 -20.3841,1.2375 -0.0858,-0.0561 -0.1716,0 -0.2244,0.0693 -0.0264,0.0792 0.007,0.1815 0.0924,0.2145 z" />
  <path
     inkscape:connector-curvature="0"
     style="fill:#8f5946;stroke-width:3.29999995"
     id="path167"
     d="m 294.92609,319.68835 c 21.1233,1.617 42.1278,4.983 63.3864,4.1415 9.1443,-0.363 18.1137,-1.3431 27.1029,-3.9039 7.8375,-2.2539 14.6091,-6.171 21.483,-10.0914 0.1023,-0.0528 0.1386,-0.1914 0.0858,-0.2937 -0.0528,-0.1023 -0.1716,-0.1386 -0.2739,-0.0825 -6.9597,3.6102 -13.9227,6.9927 -21.5523,9.2961 -8.9892,2.7159 -18.0642,3.5739 -27.258,3.9699 -7.0488,0.3102 -14.025,0.3432 -21.0903,-0.1881 -14.025,-1.0857 -27.8949,-2.1021 -41.8374,-3.1614 -0.0825,-0.0165 -0.1716,0.033 -0.1881,0.1386 -0.0132,0.0891 0.0561,0.1749 0.1419,0.1749 z" />
  <path
     inkscape:connector-curvature="0"
     style="fill:#8f5946;stroke-width:3.29999995"
     id="path169"
     d="m 301.66139,318.60595 c 14.2296,0.1881 28.4625,0.1188 42.6954,0.1881 6.0324,0.0396 11.9295,-0.3267 18.051,-1.254 12.1704,-1.8546 23.7864,-3.6267 35.4189,-6.699 10.1046,-3.7323 20.6811,-5.9796 30.7296,-9.867 0.1023,-0.0561 0.1551,-0.1716 0.1023,-0.2739 -0.0363,-0.1221 -0.1749,-0.1551 -0.2739,-0.1221 -10.9197,3.3 -21.9846,5.8971 -32.7624,9.6426 -10.9626,2.6631 -21.879,4.6563 -33.2376,6.1347 -9.6954,1.254 -19.1697,1.9074 -28.842,1.4553 -10.6425,-0.4818 -21.2454,0.6072 -31.8846,0.4521 -0.1023,0 -0.1716,0.0825 -0.1716,0.1716 0,0.0825 0.0726,0.1716 0.1749,0.1716 z" />
  <path
     inkscape:connector-curvature="0"
     style="fill:#8f5946;stroke-width:3.29999995"
     id="path171"
     d="m 309.29429,316.01215 c 1.2903,-0.4818 2.6466,-0.4653 3.9666,-0.5148 10.6722,-0.495 21.2454,-0.5676 31.9374,-1.32 13.8204,-0.9636 26.9346,-3.1779 40.7352,-6.4779 13.3023,-3.201 25.3176,-7.5108 37.983,-11.9295 8.9364,-3.0954 18.2886,-4.1085 27.6738,-3.9534 0.33,0 0.6039,-0.2739 0.6039,-0.6006 0,-0.33 -0.2739,-0.6039 -0.6039,-0.6039 -9.1971,-0.099 -18.3546,1.2936 -27.2613,3.5937 -12.9591,5.0028 -25.7136,9.2796 -39.6528,12.5466 -13.4211,3.1614 -26.0733,5.2602 -39.501,6.4614 -12.078,1.0857 -24.0636,0.9801 -35.9865,2.475 -0.0858,0.0363 -0.1188,0.1386 -0.1023,0.2211 0.0363,0.0858 0.1221,0.1188 0.2079,0.1023 z" />
  <path
     inkscape:connector-curvature="0"
     style="fill:#8f5946;stroke-width:3.29999995"
     id="path173"
     d="m 342.13919,309.13495 c 10.3686,-1.5939 20.6943,-2.3364 31.251,-3.5739 10.4346,-1.221 20.0739,-4.3824 29.7165,-8.2335 10.1574,-4.0689 20.1102,-7.3557 31.1454,-9.2136 5.2635,-0.8778 10.2432,-1.254 15.5034,-0.033 0.396,0.0858 0.8943,0.2574 1.0296,0.7887 0.2046,0.2607 0.5874,0.2937 0.8448,0.0825 0.2541,-0.2046 0.2904,-0.5841 0.0693,-0.8415 -0.5148,-1.1979 -1.8744,-1.4751 -3.0261,-1.6335 -11.121,-1.5477 -21.5523,1.3959 -32.0364,4.6068 -8.9562,2.7324 -17.1039,6.567 -26.0238,9.3852 -15.9654,5.0193 -32.4324,5.1909 -48.5727,8.3358 v 0 c -0.0858,0.033 -0.1386,0.1221 -0.1023,0.2046 0.0132,0.0924 0.099,0.1419 0.2013,0.1254 z" />
  <path
     inkscape:connector-curvature="0"
     style="fill:#8f5946;stroke-width:3.29999995"
     id="path175"
     d="m 366.92549,329.48605 c 1.8216,-0.2739 3.5904,-0.8943 5.4615,-0.8085 8.6097,3.5574 18.051,3.4221 27.1887,3.201 4.8972,-0.1221 9.7284,-0.4125 14.6619,-1.0494 7.7517,-0.9966 15.9852,-1.5312 22.4301,-6.1347 0.1881,-0.1914 0.1881,-0.495 0,-0.7062 -0.1914,-0.1881 -0.4983,-0.2046 -0.7029,-0.0165 -11.3322,5.8443 -24.4233,5.4153 -36.7818,6.7551 -9.0585,0.0165 -17.9949,-0.1551 -27.0336,-2.5575 -1.7688,-0.4818 -3.4914,0.7029 -5.2932,0.9966 -0.1023,0.0363 -0.1551,0.1221 -0.1221,0.2046 0.0165,0.0792 0.1023,0.132 0.1914,0.1155 z" />
  <path
     inkscape:connector-curvature="0"
     style="fill:#8f5946;stroke-width:3.29999995"
     id="path177"
     d="m 373.64429,328.21225 c 2.2374,-0.825 4.4847,-1.9932 6.8739,-1.5444 11.1573,2.046 21.6084,1.5279 32.5347,0.1881 11.3091,-1.3596 22.9449,-3.6267 32.0364,-10.6722 0.2211,-0.1716 0.2409,-0.495 0.0528,-0.7227 -0.1716,-0.2046 -0.495,-0.2211 -0.7062,-0.0528 -9.2136,6.4053 -20.295,8.9892 -31.4028,10.296 -10.9296,1.2903 -21.483,1.9239 -32.5512,0.2739 -2.4585,-0.3795 -4.62,1.1814 -6.9432,1.9239 v 0 c -0.0858,0.0165 -0.1188,0.1188 -0.1023,0.2046 0.0363,0.0891 0.1221,0.1419 0.2079,0.1056 z" />
  <path
     inkscape:connector-curvature="0"
     style="fill:#8f5946;stroke-width:3.29999995"
     id="path179"
     d="m 382.60049,324.51955 c 1.5114,-0.8943 3.0426,-1.8909 4.7751,-2.0295 5.2404,-0.3564 10.3983,0.8085 15.675,0.33 3.2835,-0.3135 6.4284,-0.792 9.7614,-1.2936 4.7586,-0.6864 9.2499,-1.4751 13.8039,-2.904 7.92,-2.475 16.104,-4.2966 22.8756,-9.108 0.1716,-0.1551 0.1947,-0.4125 0.0363,-0.5841 -0.1386,-0.1749 -0.3927,-0.1947 -0.5676,-0.0396 -9.5238,4.851 -19.371,8.0949 -30.2676,10.3125 -5.4846,1.122 -10.5336,1.8546 -15.9324,2.3595 -4.8642,0.4818 -9.6954,-0.0396 -14.5596,0.2046 -2.1615,0.1023 -3.9006,1.5279 -5.775,2.4585 -0.0825,0.0528 -0.099,0.1551 -0.0693,0.2244 0.0528,0.0858 0.1551,0.1188 0.2442,0.0693 z" />
  <path
     inkscape:connector-curvature="0"
     style="fill:#8f5946;stroke-width:3.29999995"
     id="path181"
     d="m 389.91989,320.65195 c 4.0392,-3.4716 9.5205,-3.1779 14.5761,-3.8676 5.2239,-0.7227 10.0881,-1.7358 15.1404,-3.1977 10.7943,-3.1614 21.1596,-6.7386 32.1915,-7.821 0.2904,0 0.5148,-0.2409 0.5148,-0.5346 0,-0.2937 -0.2409,-0.5346 -0.5346,-0.5346 -11.1375,0.7557 -21.5523,4.488 -32.3796,7.6494 -3.0756,0.9075 -5.9928,1.65 -9.1575,2.4057 -7.0983,1.7193 -14.7675,0.9636 -20.5425,5.6364 -0.0825,0.0528 -0.0825,0.1551 -0.033,0.2244 0.0528,0.0891 0.1551,0.0891 0.2244,0.0396 z" />
  <path
     inkscape:connector-curvature="0"
     style="fill:#8f5946;stroke-width:3.29999995"
     id="path183"
     d="m 396.22949,316.26955 c 9.9693,-5.1909 20.8824,-7.4943 31.7988,-10.692 8.1477,-2.3892 16.1568,-4.1778 24.4398,-5.2569 0.3267,0 0.5841,-0.2607 0.5841,-0.5841 0,-0.33 -0.2574,-0.5841 -0.5841,-0.5841 -8.4447,1.0296 -16.6221,2.8677 -24.8721,5.3625 -10.8636,3.3 -21.6744,6.0687 -31.5216,11.4642 v 0 c -0.0858,0.033 -0.1188,0.1386 -0.0693,0.2244 0.033,0.0825 0.1386,0.1155 0.2244,0.066 z" />
  <path
     inkscape:connector-curvature="0"
     style="fill:#8f5946;stroke-width:3.29999995"
     id="path185"
     d="m 319.67609,328.76335 c 4.158,0.6006 8.3028,0.5148 12.4608,1.65 6.1875,1.6665 11.8074,3.4551 18.1665,4.8114 7.6626,1.65 14.949,1.8051 22.5126,2.1681 4.8114,0.2178 9.6459,0.1386 14.421,-0.5874 0.2739,0 0.4983,-0.2211 0.4818,-0.5115 0,-0.2739 -0.2211,-0.4983 -0.5148,-0.4818 -12.2199,0.8085 -24.1428,0.4818 -36.5739,-1.7721 -5.9994,-1.0989 -11.3784,-2.6301 -17.2392,-4.1778 -4.5705,-1.221 -9.0915,-0.9438 -13.6686,-1.4091 -0.0825,-0.0165 -0.1716,0.033 -0.1881,0.1221 -0.0132,0.1023 0.0561,0.1881 0.1419,0.1881 z" />
  <path
     inkscape:connector-curvature="0"
     style="fill:#8f5946;stroke-width:3.29999995"
     id="path187"
     d="m 297.31529,327.47635 c 2.9898,2.5443 6.9432,3.003 10.7613,3.8841 10.8471,2.475 20.5029,4.8477 31.4886,7.0818 6.0489,1.2375 11.5137,2.2374 17.5296,3.1779 11.4642,1.7721 22.5159,1.4784 33.792,2.1483 12.1176,-0.7722 24.9711,-2.4057 34.8909,-10.0716 0.0825,-0.0693 0.0825,-0.1914 0.0165,-0.2574 -0.0693,-0.0858 -0.1749,-0.0858 -0.2574,-0.0165 -10.1574,6.7386 -22.704,8.2863 -34.5972,9.1443 -9.6261,-0.6699 -19.1631,-0.2376 -28.8915,-1.32 -11.1903,-1.254 -21.5193,-3.4749 -32.7756,-5.9499 -7.4415,-1.6302 -14.058,-2.97 -21.5358,-4.5375 -3.6432,-0.7557 -7.3557,-1.0989 -10.1937,-3.5376 v 0 c -0.0693,-0.0561 -0.1881,-0.0561 -0.2409,0.0165 -0.0561,0.0627 -0.0561,0.1683 0.0132,0.2376 z" />
  <path
     inkscape:connector-curvature="0"
     style="fill:#8f5946;stroke-width:3.29999995"
     id="path189"
     d="m 302.96819,332.99395 c 9.7812,3.795 19.7307,5.5506 30.3534,7.821 10.3686,2.2176 19.8,4.4682 30.0432,5.5011 11.6028,1.1814 22.8756,2.0955 34.5642,0.5676 9.9693,-1.2936 19.6977,-4.0557 27.2943,-10.6425 0.0825,-0.0825 0.099,-0.2046 0.033,-0.3102 -0.0858,-0.0858 -0.2211,-0.1023 -0.3102,-0.0165 -10.1046,7.4415 -22.7436,9.6954 -34.9635,10.3818 -11.0979,0.6204 -21.9318,-0.2937 -33.1188,-1.9767 -12.7314,-1.9074 -24.3012,-4.521 -37.1415,-7.029 -5.8575,-1.1319 -11.2761,-2.3892 -16.6221,-4.587 -0.0825,-0.0561 -0.1881,0 -0.2178,0.0825 -0.033,0.0693 0,0.1716 0.0858,0.2079 z" />
  <path
     inkscape:connector-curvature="0"
     style="fill:#8f5946;stroke-width:3.29999995"
     id="path191"
     d="m 318.47159,341.91385 c 17.7936,5.6727 36.3,7.5636 54.9846,9.3489 6.171,0.5841 12.2199,0.4125 18.3909,-0.1221 8.3721,-0.7425 16.5858,-2.0097 24.4398,-5.1744 1.3761,-0.5511 2.5443,-1.4619 3.6762,-2.4057 0.2409,-0.1221 0.3432,-0.4323 0.2046,-0.6699 -0.1221,-0.2409 -0.429,-0.3432 -0.6699,-0.2046 -9.6261,5.3955 -20.8131,6.8574 -31.6767,7.4811 -7.7154,0.429 -15.2625,0.3432 -23.0637,-0.792 -15.7608,-2.3034 -31.2642,-2.7159 -46.1472,-7.7682 -0.0825,-0.033 -0.1716,0 -0.2211,0.0858 -0.0363,0.0825 -0.003,0.1683 0.0825,0.2211 z" />
  <path
     inkscape:connector-curvature="0"
     style="fill:#8f5946;stroke-width:3.29999995"
     id="path193"
     d="m 331.67159,350.31895 c 4.1646,1.9239 8.5635,2.9568 13.167,3.6267 10.5006,1.5279 20.5722,3.5046 31.0068,3.1944 12.9591,-0.3729 26.4528,-1.1154 38.3427,-6.8376 0.3597,-0.1914 0.4983,-0.6369 0.3135,-0.9834 -0.1914,-0.3564 -0.6369,-0.495 -0.9999,-0.3102 -13.0977,5.7222 -27.7068,7.0686 -41.8506,6.9432 -8.679,-0.0858 -17.1204,-1.3431 -25.8852,-2.5311 -4.8279,-0.6501 -9.5568,-1.3365 -13.9557,-3.399 v 0 c -0.0825,-0.0561 -0.1716,0 -0.2211,0.0693 -0.0363,0.0891 -0.003,0.1914 0.0825,0.2277 z" />
  <path
     inkscape:connector-curvature="0"
     style="fill:#8f5946;stroke-width:3.29999995"
     id="path195"
     d="m 340.95449,356.65825 c 10.8075,2.5773 21.8064,5.0523 32.9835,4.5903 6.5142,-0.2574 12.9261,-0.9471 19.47,-1.6335 4.9335,-0.5115 9.405,-2.2341 13.3386,-5.1381 0.1551,-0.0858 0.2046,-0.2739 0.1221,-0.429 -0.0825,-0.1386 -0.2739,-0.1914 -0.429,-0.1023 -10.0188,5.5704 -21.9318,4.6563 -32.9472,6.237 -10.9296,0.1023 -21.8064,-1.5477 -32.4654,-3.8511 v 0 c -0.0825,-0.0165 -0.1716,0.0396 -0.2046,0.1221 -0.0231,0.0858 0.0462,0.1881 0.132,0.2046 z" />
  <path
     inkscape:connector-curvature="0"
     style="fill:#8f5946;stroke-width:3.29999995"
     id="path197"
     d="m 153.36929,245.98945 c -6.3624,7.0125 -15.0414,12.5136 -18.3909,21.7437 -1.155,3.1779 -2.1318,6.3261 -2.6994,9.7284 -0.4818,2.7852 -0.3564,5.4846 -0.0858,8.217 0.4488,4.5375 2.0295,8.679 4.2999,12.7017 5.2404,9.3489 14.2626,14.883 24.4068,17.5494 11.1936,2.9568 21.3114,7.0125 32.0925,10.7415 9.2466,3.1944 18.7836,3.8841 28.5318,2.2671 10.6392,-1.7688 20.8131,-1.65 31.2642,-1.6335 5.0358,0.0165 9.9396,-0.0825 15.0249,-1.2903 6.2205,-1.4619 11.979,-2.7324 18.0477,-4.4847 7.7847,-2.2341 14.9523,-5.3625 22.2585,-8.4678 0.2046,-0.0693 0.3102,-0.2937 0.2409,-0.4983 -0.0693,-0.1881 -0.2739,-0.3102 -0.4818,-0.2409 -14.1801,5.5836 -28.3404,10.1739 -43.7943,12.6885 -9.5733,1.5642 -18.7704,0.2904 -28.2084,0.7557 -6.9927,0.3597 -13.7676,1.9404 -20.7636,2.3034 -4.8114,0.2409 -9.4314,0.0165 -14.3517,-0.9636 -11.4114,-2.3034 -20.7108,-7.5273 -31.7625,-10.4346 -8.8011,-2.3199 -17.2029,-4.6233 -24.2154,-10.6557 -8.646,-7.4415 -13.233,-18.4767 -10.692,-29.8716 0.7062,-3.1284 1.2771,-6.1017 2.5443,-8.9727 3.0261,-6.7551 9.0057,-10.9461 13.6125,-16.8267 1.1154,-1.4454 2.0625,-2.8875 3.3693,-4.1085 0.0693,-0.0693 0.0693,-0.1749 0,-0.2409 -0.0759,-0.0759 -0.1782,-0.0759 -0.2475,-0.007 z" />
  <path
     inkscape:connector-curvature="0"
     style="fill:#8f5946;stroke-width:2;stroke:#8f5946;stroke-opacity:1;stroke-miterlimit:4;stroke-dasharray:none"
     id="path199"
     d="m 133.92899,293.14975 c 1.8051,3.729 3.2835,7.7517 6.4614,10.5864 8.8176,7.8903 20.3841,9.2994 31.1619,12.3222 13.4376,6.1512 27.258,13.299 42.4479,12.6489 8.3193,-0.3597 16.4307,-1.7523 24.8061,-2.6169 6.6528,-0.6831 13.1142,0.5544 19.7142,0.1584 7.7154,-0.4686 15.3648,-1.155 22.7436,-3.696 10.7943,-3.7125 21.1596,-7.9596 32.0166,-11.1738 0.1386,-0.0528 0.2046,-0.2046 0.1749,-0.3432 -0.0561,-0.1386 -0.2046,-0.2244 -0.3432,-0.1716 -8.4909,2.079 -16.6386,5.3064 -25.0602,7.5966 -9.4182,4.5012 -19.8693,5.4483 -30.1818,6.2733 -5.049,0.4125 -9.9528,-0.792 -15.0051,-0.4521 -4.2801,0.2937 -8.4414,0.7062 -12.7314,1.2045 -5.4318,0.6072 -10.7085,1.4454 -16.1271,1.7193 -8.745,0.4455 -17.2227,-2.0625 -25.3341,-5.1744 -6.2238,-2.3892 -11.9625,-5.6529 -18.1665,-7.9926 -10.1904,-2.3925 -20.4864,-4.3659 -29.1654,-11.2068 -3.3363,-2.6136 -5.5011,-6.0654 -7.1148,-9.8307 -0.0363,-0.0858 -0.1386,-0.1188 -0.2211,-0.0858 -0.0924,0.066 -0.1254,0.1485 -0.0759,0.2343 z" />
  <path
     inkscape:connector-curvature="0"
     style="fill:#8f5946;stroke-width:3.29999995"
     id="path201"
     d="m 149.26079,309.61675 c 6.8541,3.333 13.6125,6.3789 21.4335,8.0289 4.0392,0.8415 7.2039,3.1779 11.1177,4.2273 2.3529,0.6336 4.5573,1.1682 7.0125,1.6665 0.726,0.1551 1.2573,0.5841 1.9074,0.8415 0.1023,0.0528 0.2211,0 0.2739,-0.1023 0.0396,-0.099 0,-0.2211 -0.099,-0.2574 -6.4449,-2.7687 -12.8733,-5.445 -19.5459,-7.8177 -1.7193,-0.6204 -3.5904,-0.6864 -5.2932,-1.2936 -5.6034,-2.0064 -11.3619,-3.0591 -16.7046,-5.6034 -0.0825,-0.0165 -0.1716,0.0198 -0.2046,0.1023 -0.0297,0.0858 0.0165,0.1914 0.1023,0.2079 z" />
  <path
     inkscape:connector-curvature="0"
     style="fill:#8f5946;stroke-width:3.29999995"
     id="path207"
     d="m 238.77329,326.01445 c 1.65,-0.2244 4.158,-0.3795 4.7256,1.5312 0.825,2.8182 0.3795,5.775 1.9074,8.4216 2.7489,4.6926 6.3261,8.3523 11.0187,11.1771 3.8511,2.3166 7.821,3.4881 11.979,4.8642 3.7653,1.221 7.1841,2.871 10.7085,4.7949 3.5904,1.9602 5.8773,5.1216 9.3852,7.3557 2.3925,1.5312 5.0061,1.8546 7.6659,2.5806 2.0625,0.5643 3.7125,1.9569 4.4352,4.0392 0.0561,0.0858 0.1551,0.1221 0.2244,0.0693 0.0858,-0.033 0.1188,-0.1386 0.0858,-0.2244 -0.9273,-2.3727 -2.9436,-3.9699 -5.1414,-5.0325 -1.8909,-0.9108 -3.9204,-1.3761 -5.775,-2.376 -3.8841,-2.079 -6.3096,-5.7552 -10.2267,-7.854 -1.8909,-1.0131 -3.7818,-1.8216 -5.7057,-2.7489 -4.1943,-2.0229 -8.6625,-2.9403 -12.8865,-4.7949 -7.0125,-3.0756 -13.992,-8.3193 -15.5034,-16.3779 -0.3597,-1.9404 0.0363,-4.4517 -1.7688,-5.5176 -1.5312,-0.8943 -3.4716,-0.7029 -5.1909,-0.2409 -0.1023,0.0198 -0.1716,0.1188 -0.1551,0.2244 0.0165,0.1023 0.1221,0.1716 0.2244,0.1518 v -0.0396 h -0.007 z" />
  <path
     inkscape:connector-curvature="0"
     style="fill:#8f5946;stroke-width:3.29999995"
     id="path209"
     d="m 282.87779,359.06395 c 1.9635,2.5608 4.0722,4.9896 6.3789,7.2534 2.7126,6.0819 4.4682,12.7347 3.8346,19.404 -0.6534,6.9597 -1.4784,13.8072 -4.0062,20.3511 -5.4186,14.0811 -9.2664,28.2051 -11.0847,43.2795 -0.7227,5.9796 -0.7029,11.8602 -0.6534,17.8233 0,0.099 0.0858,0.1716 0.1716,0.1716 0.0858,0 0.1749,-0.0693 0.1749,-0.1716 -0.396,-11.6556 2.4915,-22.572 4.7091,-34.3431 1.8744,-10.0188 5.742,-18.5955 8.7648,-28.0665 1.9932,-6.2733 2.871,-12.5499 3.5046,-19.0443 0.6369,-6.5307 -1.0989,-12.87 -3.5409,-18.9057 -1.4586,-3.6432 -5.379,-5.2239 -7.9761,-7.9596 v 0 c -0.0693,-0.0693 -0.1716,-0.0693 -0.2376,-0.0165 -0.066,0.0528 -0.0924,0.1551 -0.0396,0.2244 z" />
  <path
     inkscape:connector-curvature="0"
     style="fill:#8f5946;stroke-width:3.29999995"
     id="path211"
     d="m 276.58799,422.55595 c 0,-0.5148 -0.0858,-1.0131 0.0165,-1.5312 0.6534,-3.333 1.6665,-6.2205 2.3034,-9.537 0.9636,-5.0193 0.6204,-9.6624 -0.4818,-14.6619 -1.7193,-7.821 -3.9006,-15.0546 -3.8148,-22.8096 0.0561,-5.9466 2.4222,-11.8404 6.6693,-16.1898 0.2904,-0.3102 0.2739,-0.7854 -0.0396,-1.0824 -0.3267,-0.2904 -0.8052,-0.2739 -1.0956,0.0561 -4.5045,4.6761 -6.9795,10.9296 -7.0818,17.3085 -0.0858,4.4814 0.4983,8.8803 1.6335,13.3716 1.0824,4.2966 2.1483,8.217 2.904,12.5994 0.6369,3.6729 0.8943,7.0818 0.4125,10.7415 -0.5148,3.9864 -1.7193,7.7517 -1.7721,11.7381 0,0.0858 0.0858,0.1551 0.1716,0.1551 0.0858,-0.003 0.1749,-0.0726 0.1749,-0.1584 z" />
  <path
     inkscape:connector-curvature="0"
     style="fill:#8f5946;stroke-width:3.29999995"
     id="path213"
     d="m 254.67269,344.69575 c -3.729,-3.0261 -7.5636,-6.5307 -8.8011,-11.3949 -0.396,-1.5114 -0.6006,-3.4881 0.825,-4.3824 1.8744,-1.1517 3.9534,-1.8546 6.1182,-1.9932 0.3729,0.0165 0.6864,-0.2739 0.7029,-0.6534 0.0165,-0.3762 -0.2904,-0.6864 -0.6534,-0.7029 -2.475,0.0165 -4.8642,0.8943 -7.0653,2.079 -0.8646,0.4653 -1.254,1.4289 -1.3926,2.3232 -1.0197,6.8178 5.2041,11.4939 10.0881,15.0018 0.0693,0.0528 0.1716,0.0363 0.2244,-0.0561 0.0561,-0.066 0.0198,-0.1683 -0.0462,-0.2211 z" />
  <path
     inkscape:connector-curvature="0"
     style="fill:#8f5946;stroke-width:3.29999995"
     id="path215"
     d="m 236.91869,326.30815 c 2.5311,-0.2739 5.0358,1.0824 5.9994,3.4881 1.6335,4.0722 3.729,7.9761 6.996,10.9494 0.0825,0.0693 0.2211,0.0495 0.2904,-0.0363 0.0693,-0.0858 0.0693,-0.2046 -0.0165,-0.2904 -0.7722,-0.6204 -1.3761,-1.3398 -1.9239,-2.2011 -2.376,-3.7125 -2.8545,-8.0454 -5.8443,-11.1936 -1.4256,-1.5114 -3.6102,-1.0824 -5.5011,-1.0626 -0.0825,0 -0.1551,0.0825 -0.1551,0.1716 0,0.0858 0.0693,0.1749 0.1551,0.1749 z" />
  <path
     inkscape:connector-curvature="0"
     style="fill:#8f5946;stroke-width:3.29999995"
     id="path217"
     d="m 300.77039,335.43265 c 0.7689,1.7886 2.5443,2.9568 2.8479,4.9896 1.0494,6.8574 0.8943,13.4904 0.8943,20.2653 -1.2936,6.9267 -1.683,14.0943 -4.6596,20.6085 -7.9233,17.358 -15.4704,34.1517 -18.9387,53.4006 -0.5346,2.9733 -0.8943,5.7915 -1.3068,8.7021 0,0.099 0.0528,0.1881 0.1551,0.1881 0.0825,0.0165 0.1716,-0.0528 0.1881,-0.1386 1.5114,-9.2796 3.5409,-18.4437 6.9597,-27.2778 2.6961,-6.996 5.4846,-13.7874 8.2665,-20.7471 2.4915,-6.2436 5.9961,-11.8074 7.7814,-18.3711 1.4949,-5.4846 2.2209,-10.8801 3.0954,-16.3614 -0.1881,-7.3062 0.7227,-14.7642 -1.5114,-21.879 -0.4983,-1.5807 -2.0955,-2.6796 -3.5409,-3.5904 -0.0528,-0.0693 -0.1716,-0.0693 -0.2211,-0.0165 -0.0627,0.0561 -0.0792,0.1584 -0.01,0.2277 z" />
  <path
     inkscape:connector-curvature="0"
     style="fill:#8f5946;stroke-width:3.29999995"
     id="path219"
     d="m 263.09429,472.89745 c 0.5313,-7.0125 -0.9999,-13.9227 -0.4983,-20.9352 0.5346,-7.9563 1.5642,-15.6915 2.4585,-23.6841 0.5148,-4.5771 0.4653,-9.1146 0.1023,-13.6686 -0.4488,-5.6727 -0.6534,-11.1705 -1.5312,-16.8762 -0.9636,-6.105 -2.079,-11.6523 -3.3825,-17.7738 -2.3199,-10.8801 -0.7557,-21.054 0.9966,-31.449 0.0165,-0.4323 -0.3267,-0.792 -0.7557,-0.8085 -0.4125,0 -0.7722,0.3267 -0.792,0.7557 -1.5675,9.1608 -3.1284,18.2193 -1.5477,27.7398 1.2738,7.5801 2.7291,14.4705 4.0062,22.0341 0.9438,5.5704 1.1682,10.8801 1.5807,16.3812 0.9471,12.342 -0.9801,24.4563 -1.8711,36.7818 -0.5313,7.2204 1.4091,14.2857 0.924,21.45 v 0 c -0.0165,0.0825 0.0396,0.1716 0.1221,0.1914 0.1023,0.0165 0.1881,-0.0528 0.1881,-0.1386 z" />
  <path
     inkscape:connector-curvature="0"
     style="fill:#8f5946;stroke-width:3.29999995"
     id="path221"
     d="m 254.13809,344.50765 c 1.3233,1.6005 3.1449,2.8182 4.0722,4.6596 0.8778,1.7061 1.221,3.7521 0.7557,5.6925 v 0 c -0.0528,0.2046 0.0858,0.429 0.297,0.4818 0.2178,0.0363 0.429,-0.0825 0.4818,-0.3102 0.7722,-1.9569 0.6534,-4.1415 -0.3102,-5.9301 -1.1352,-2.0955 -3.4188,-3.1284 -5.0688,-4.8114 -0.0693,-0.0693 -0.1716,-0.0693 -0.2244,0 -0.0726,0.0462 -0.0726,0.1485 -0.003,0.2178 z" />
  <path
     inkscape:connector-curvature="0"
     style="fill:#8f5946;stroke-width:3.29999995"
     id="path223"
     d="m 294.17039,495.84565 c 0.4455,-2.7159 0.6303,-5.3625 1.0428,-8.1477 0.3432,-2.3034 0.5346,-4.521 0.6699,-6.8211 0.7392,-11.8239 2.0625,-23.496 3.8148,-35.145 2.8182,-9.9198 4.8477,-20.097 8.646,-29.7 2.3166,-8.6625 5.5011,-16.9125 8.4546,-25.4595 4.2273,-12.2166 10.2267,-23.628 12.6324,-36.2604 0,-0.429 -0.3432,-0.7722 -0.7557,-0.7722 -0.429,-0.0165 -0.7689,0.3267 -0.7854,0.7557 -1.65,9.1905 -5.6199,17.6682 -9.0222,26.4 -5.3988,13.8204 -9.8835,27.4428 -14.3187,41.6625 -3.5046,11.2761 -6.8211,22.2354 -7.9398,33.9801 -1.0131,10.6557 -1.8216,21.1068 -2.3727,31.7064 -0.0528,0.8811 -0.2046,1.7523 -0.2739,2.6301 -0.0858,0.9438 0.0858,1.9074 0.1023,2.8512 0.0165,0.7557 0.0165,1.5114 -0.2046,2.2572 -0.0165,0.0825 0.0363,0.1716 0.1188,0.1881 0.0858,0.01 0.1716,-0.0396 0.1914,-0.1254 z" />
  <path
     inkscape:connector-curvature="0"
     style="fill:#8f5946;stroke-width:3.29999995"
     id="path225"
     d="m 316.99319,388.23265 c 1.3068,-4.6926 3.7488,-8.8803 5.346,-13.5102 1.9074,-5.5143 3.4023,-10.8768 4.9335,-16.5825 0.7557,-2.7885 -0.2937,-5.3625 -1.9602,-7.4943 -0.1023,-0.3102 -0.4488,-0.4818 -0.7557,-0.3795 -0.3135,0.1188 -0.4818,0.4488 -0.3762,0.7557 0.396,1.4454 1.7523,2.4057 1.7688,3.9204 0.099,6.6858 -2.8182,12.804 -4.4847,19.4271 -1.221,4.8279 -3.4386,9.075 -4.7784,13.7676 -0.033,0.0825 0.0165,0.1716 0.1023,0.2046 0.0858,0.01 0.1716,-0.0231 0.2046,-0.1089 z" />
  <path
     inkscape:connector-curvature="0"
     style="fill:#8f5946;stroke-width:3.29999995"
     id="path227"
     d="m 306.54539,589.27525 c 0.0693,-0.4818 0.0528,-0.9636 -0.0693,-1.4322 -0.6006,-2.1153 -1.221,-4.125 -1.5807,-6.27 -1.4124,-8.547 -4.0722,-16.2459 -4.9896,-24.75 -0.8943,-8.2698 -2.1153,-16.2459 -2.7852,-24.4959 -0.6699,-8.2863 -1.8711,-16.4439 -1.3761,-24.7302 0.4653,-7.5306 -0.7392,-14.9193 -0.4983,-22.3971 0.3762,-11.8404 1.4454,-23.5818 2.9898,-35.3199 0.0165,-0.0858 -0.0363,-0.1716 -0.1386,-0.1947 -0.0858,-0.0165 -0.1716,0.0396 -0.1881,0.1221 -1.155,7.392 -1.7061,14.6454 -2.904,22.2222 -0.7062,4.4517 -0.7557,8.7483 -1.0659,13.167 -0.5511,7.4943 1.0131,14.949 0.1386,22.374 0.2739,16.6188 2.2011,32.7459 4.6761,49.5198 0.5148,3.5541 0.9075,6.8904 1.8546,10.3818 2.0097,7.4415 3.1284,14.7114 5.5011,21.879 0.0363,0.1551 0.1749,0.2574 0.33,0.2211 0.1551,-0.033 0.2574,-0.1716 0.2178,-0.33 z" />
  <path
     inkscape:connector-curvature="0"
     style="fill:#8f5946;stroke-width:3.29999995"
     id="path229"
     d="m 276.02039,589.00135 c -2.475,-12.9261 -6.2073,-25.6443 -6.8409,-38.9136 -0.1716,-3.4584 -1.0461,-6.8046 -1.4091,-10.296 -1.3959,-12.9096 -3.2307,-25.476 -3.6795,-38.3295 -0.1023,-2.904 -0.1716,-5.808 -0.2409,-8.712 -0.2574,-8.613 0.1551,-17.2095 -0.2739,-25.8324 -0.429,-8.6097 0.2409,-17.2425 0.4653,-25.8357 0.1023,-4.4847 0.1386,-8.8539 0.396,-13.3518 0,-0.1221 -0.0825,-0.2409 -0.2046,-0.2409 -0.1188,-0.0165 -0.2211,0.0693 -0.2409,0.1881 -0.7227,6.8937 -1.7028,13.8534 -1.5972,20.8296 0.1023,5.775 -0.4818,11.2926 -0.3432,17.0676 0.1716,7.5636 0.4983,15.1239 0.3267,22.704 -0.1551,7.6659 0.0561,15.2625 0.8646,22.9614 1.353,13.1307 2.5443,25.9875 4.9104,38.8443 0.7062,13.2825 4.1646,26.1954 7.5636,38.9796 0.0165,0.0858 0.1023,0.1386 0.1914,0.1188 0.0825,-0.0198 0.1287,-0.0957 0.1122,-0.1815 z" />
  <path
     inkscape:connector-curvature="0"
     style="fill:#8f5946;stroke-width:2;stroke:#8f5946;stroke-opacity:1;stroke-miterlimit:4;stroke-dasharray:none"
     id="path231"
     d="m 289.26989,18.857055 c 1.5477,2.3562 4.4352,0.825 6.3954,-0.1188 4.1085,-1.9767 8.58,-1.2903 13.0284,-0.6336 9.2664,1.3926 15.4539,8.4711 24.0801,11.154 4.026,1.2375 8.1279,0.6501 12.3915,1.4454 5.4813,1.0164 10.1574,2.8512 14.8335,5.9664 8.976,5.9631 17.8068,10.0386 26.4693,15.5001 4.62,4.5936 8.4546,9.9165 12.0153,15.3648 0.0561,0.0858 0.1551,0.1221 0.2409,0.0693 0.0858,-0.0561 0.1221,-0.1584 0.0693,-0.2574 -3.5046,-5.4846 -6.3591,-11.517 -11.0517,-16.1436 -8.6097,-5.6529 -17.5494,-9.6096 -26.5551,-15.6387 -4.5903,-3.0789 -9.1443,-4.95 -14.4903,-6.1347 -4.6068,-1.0296 -8.9562,-0.5148 -13.4937,-1.6335 -5.4813,-1.3398 -9.3489,-5.2767 -14.2791,-7.6989 -7.3425,-3.5904 -15.8994,-5.775 -23.7072,-2.7324 -1.8381,0.7029 -3.795,2.1483 -5.6727,0.8085 v 0 c -0.2904,-0.1221 -0.6204,0.0165 -0.7227,0.3069 -0.1188,0.2937 0.0165,0.6204 0.3102,0.726 z" />
  <path
     inkscape:connector-curvature="0"
     style="fill:#8f5946;stroke-width:2;stroke:#8f5946;stroke-opacity:1;stroke-miterlimit:4;stroke-dasharray:none"
     id="path233"
     d="m 464.63519,132.39685 c 0.33,2.6136 1.3398,5.0721 1.5279,7.7154 0.1914,2.475 2.1186,4.1943 4.0029,5.7057 4.2636,3.4188 8.5932,5.9136 11.8239,10.4709 3.0459,4.3131 4.8807,8.9364 5.28,14.025 0.6864,8.778 -1.155,17.4405 -3.9072,25.7301 -0.0528,0.1386 0.0198,0.2904 0.1386,0.3267 0.1386,0.0495 0.2739,-0.0165 0.33,-0.1386 5.9961,-12.9063 8.4414,-28.908 -0.9801,-41.3358 -3.2637,-4.3131 -7.3887,-6.9102 -11.6688,-10.1937 -1.1847,-0.8943 -2.2869,-1.8381 -2.9568,-3.0756 -1.5939,-2.9205 -2.3199,-6.1347 -3.2835,-9.2796 v 0 c 0,-0.0825 -0.0825,-0.1551 -0.1716,-0.1386 -0.1023,0.0165 -0.1518,0.1023 -0.1353,0.1881 z" />
  <path
     inkscape:connector-curvature="0"
     style="fill:#8f5946;stroke-width:2;stroke:#8f5946;stroke-opacity:1;stroke-miterlimit:4;stroke-dasharray:none"
     id="path235"
     d="m 488.26649,171.13885 c -0.4653,4.7751 -1.221,9.6756 1.7523,14.0943 5.346,7.887 9.6954,15.5694 10.3653,24.7665 0.6534,9.0057 -0.7689,17.8926 -3.3,26.6904 -1.5114,5.2239 -3.6267,9.7614 -6.8376,14.3847 -4.2273,6.0852 -8.5635,11.7051 -15.4539,14.1966 -5.445,1.98 -11.1903,2.5311 -16.929,2.8182 -1.65,0.0825 -3.2835,0.396 -4.917,0.7194 v 0 c -0.2046,0.0165 -0.3729,0.1914 -0.3564,0.396 0.0165,0.2046 0.1914,0.3564 0.396,0.3564 9.8604,-0.5346 20.6943,0.3135 28.908,-6.6 11.7876,-9.9528 17.7705,-24.024 19.4865,-39.0291 0.9273,-8.1807 1.1847,-16.2294 -1.6137,-24.0999 -2.2539,-6.2865 -6.3426,-11.3091 -9.2796,-17.2227 -1.7886,-3.5904 -1.6335,-7.5801 -1.8678,-11.4807 v 0 c 0,-0.0825 -0.0858,-0.1551 -0.1749,-0.1551 -0.0891,0.003 -0.1782,0.0759 -0.1782,0.165 z" />
  <path
     inkscape:connector-curvature="0"
     style="fill:#8f5946;stroke-width:3.29999995"
     id="path237"
     d="m 485.61989,278.42185 c 8.9034,-8.4051 9.8142,-21.3972 10.5534,-32.9835 0.0693,-1.1352 0.1386,-2.3199 0.5115,-3.4221 0.1023,-0.2904 -0.0528,-0.6204 -0.3564,-0.7227 -0.2904,-0.1023 -0.6204,0.0693 -0.7227,0.3564 -0.5544,1.2045 -0.9471,2.475 -1.0164,3.7818 -0.3267,5.8773 -0.9075,11.4642 -2.0064,17.4273 -0.9471,5.2074 -3.3198,9.504 -5.8971,14.0415 -0.2904,0.5346 -0.7557,0.9075 -1.2738,1.2375 -0.0693,0.0693 -0.0693,0.1716 -0.0165,0.2376 0.0561,0.0759 0.1551,0.099 0.2244,0.0462 z" />
  <path
     inkscape:connector-curvature="0"
     style="fill:#8f5946;stroke-width:3.29999995"
     id="path241"
     d="m 241.90169,195.38725 c 6.4614,-0.7722 12.8898,-2.1318 18.975,-4.5705 1.7886,-0.726 3.7686,-2.1186 4.1085,-4.2801 l 0.0561,-0.825 c 0,-0.1749 -0.0561,-0.33 -0.1551,-0.4686 l -0.2739,-0.3432 c -0.8085,-1.3068 -2.1186,-2.0625 -3.3363,-2.9271 v 0 c -0.1551,-0.1386 -0.3762,-0.1386 -0.5115,0.0198 -0.1386,0.1551 -0.1221,0.3762 0.0165,0.5115 0.9636,0.8943 1.9074,1.8447 2.4915,3.0426 l 0.4818,0.5709 -0.1551,-0.4488 0.1023,0.6534 c -0.5511,1.5642 -1.9437,2.6631 -3.3363,3.2142 -5.9961,2.4222 -12.1836,4.3296 -18.5097,5.5374 -0.0858,0 -0.1551,0.0825 -0.1386,0.1881 0.0132,0.0924 0.099,0.1452 0.1848,0.1254 z" />
  <flowRoot
     xml:space="preserve"
     id="flowRoot5042"
     style="font-style:normal;font-weight:normal;font-size:40px;line-height:1.25;font-family:sans-serif;letter-spacing:0px;word-spacing:0px;fill:#000000;fill-opacity:1;stroke:none"><flowRegion
       id="flowRegion5044"><rect
         id="rect5046"
         width="103.9604"
         height="49.009899"
         x="47.524754"
         y="103.9604" /></flowRegion><flowPara
       id="flowPara5048" /></flowRoot>  <text
     xml:space="preserve"
     style="font-style:normal;font-weight:normal;font-size:40px;line-height:1.25;font-family:sans-serif;letter-spacing:0px;word-spacing:0px;fill:#000000;fill-opacity:1;stroke:none"
     x="82.425743"
     y="117.32673"
     id="text5052"><tspan
       sodipodi:role="line"
       id="tspan5050"
       x="82.425743"
       y="153.81995" /></text>
  <text
     xml:space="preserve"
     style="font-style:normal;font-weight:normal;font-size:40px;line-height:1.25;font-family:sans-serif;letter-spacing:0px;word-spacing:0px;fill:#000000;fill-opacity:1;stroke:none"
     x="93.564354"
     y="131.43564"
     id="text5056"><tspan
       sodipodi:role="line"
       id="tspan5054"
       x="93.564354"
       y="167.92885" /></text>
  <text
     xml:space="preserve"
     style="font-style:normal;font-weight:normal;font-size:40px;line-height:1.25;font-family:sans-serif;letter-spacing:0px;word-spacing:0px;fill:#000000;fill-opacity:1;stroke:none"
     x="84.653465"
     y="153.71288"
     id="text5060"><tspan
       sodipodi:role="line"
       id="tspan5058"
       x="84.653465"
       y="190.20609" /></text>
  <flowRoot
     xml:space="preserve"
     id="flowRoot5070"
     style="fill:black;fill-opacity:1;stroke:none;font-family:sans-serif;font-style:normal;font-weight:normal;font-size:12px;line-height:1.25;letter-spacing:0px;word-spacing:0px;-inkscape-font-specification:'sans-serif, Normal';font-stretch:normal;font-variant:normal;text-anchor:start;text-align:start;writing-mode:lr;font-variant-ligatures:normal;font-variant-caps:normal;font-variant-numeric:normal;font-feature-settings:normal"><flowRegion
       id="flowRegion5072"><rect
         id="rect5074"
         width="92.821785"
         height="39.356434"
         x="78.712868"
         y="113.61386" /></flowRegion><flowPara
       id="flowPara5076" /></flowRoot>  <flowRoot
     xml:space="preserve"
     id="flowRoot5078"
     style="fill:black;fill-opacity:1;stroke:none;font-family:sans-serif;font-style:normal;font-weight:normal;font-size:12px;line-height:1.25;letter-spacing:0px;word-spacing:0px;-inkscape-font-specification:'sans-serif, Normal';font-stretch:normal;font-variant:normal;text-anchor:start;text-align:start;writing-mode:lr;font-variant-ligatures:normal;font-variant-caps:normal;font-variant-numeric:normal;font-feature-settings:normal"><flowRegion
       id="flowRegion5080"><rect
         id="rect5082"
         width="95.67836"
         height="34.046989"
         x="76.485146"
         y="115.09901" /></flowRegion><flowPara
       id="flowPara5084" /></flowRoot>  <flowRoot
     xml:space="preserve"
     id="flowRoot901"
     style="fill:black;fill-opacity:1;stroke:none;font-family:Arial;font-style:normal;font-weight:bold;font-size:17.33333333px;line-height:1.25;letter-spacing:0px;word-spacing:0px;-inkscape-font-specification:'Arial, Bold';font-stretch:normal;font-variant:normal;text-anchor:middle;text-align:center;writing-mode:lr;font-variant-ligatures:normal;font-variant-caps:normal;font-variant-numeric:normal;font-feature-settings:normal;"><flowRegion
       id="flowRegion903"
       style="font-size:17.33333333px;"><rect
         id="rect905"
         width="95.0495"
         height="33.41584"
         x="60.891087"
         y="140.34654"
         style="font-size:17.33333333px;" /></flowRegion><flowPara
       id="flowPara907" /></flowRoot>  <flowRoot
     xml:space="preserve"
     id="flowRoot911"
     style="fill:black;fill-opacity:1;stroke:none;font-family:Arial;font-style:normal;font-weight:bold;font-size:16px;line-height:1.25;letter-spacing:0px;word-spacing:0px;-inkscape-font-specification:'Arial, Bold';font-stretch:normal;font-variant:normal;text-anchor:middle;text-align:center;writing-mode:lr;font-variant-ligatures:normal;font-variant-caps:normal;font-variant-numeric:normal;font-feature-settings:normal;"><flowRegion
       id="flowRegion913"
       style="font-size:16px;"><rect
         id="rect915"
         width="68.316833"
         height="33.41584"
         x="83.168312"
         y="134.40594"
         style="font-size:16px;" /></flowRegion><flowPara
       id="flowPara917" /></flowRoot>  <flowRoot
     xml:space="preserve"
     id="flowRoot923"
     style="fill:black;fill-opacity:1;stroke:none;font-family:Arial;font-style:normal;font-weight:bold;font-size:16px;line-height:1.25;letter-spacing:0px;word-spacing:0px;-inkscape-font-specification:'Arial, Bold';font-stretch:normal;font-variant:normal;text-anchor:middle;text-align:center;writing-mode:lr;font-variant-ligatures:normal;font-variant-caps:normal;font-variant-numeric:normal;font-feature-settings:normal"><flowRegion
       id="flowRegion925"><rect
         id="rect927"
         width="53.465343"
         height="27.475246"
         x="69.059402"
         y="125.49506" /></flowRegion><flowPara
       id="flowPara929" /></flowRoot>  <flowRoot
     xml:space="preserve"
     id="flowRoot931"
     style="fill:black;fill-opacity:1;stroke:none;font-family:Arial;font-style:normal;font-weight:bold;font-size:16px;line-height:1.25;letter-spacing:0px;word-spacing:0px;-inkscape-font-specification:'Arial, Bold';font-stretch:normal;font-variant:normal;text-anchor:middle;text-align:center;writing-mode:lr;font-variant-ligatures:normal;font-variant-caps:normal;font-variant-numeric:normal;font-feature-settings:normal"><flowRegion
       id="flowRegion933"><rect
         id="rect935"
         width="2.2277226"
         height="47.52475"
         x="114.35643"
         y="126.98021" /></flowRegion><flowPara
       id="flowPara937" /></flowRoot>  <flowRoot
     xml:space="preserve"
     id="flowRoot945"
     style="font-style:normal;font-variant:normal;font-weight:bold;font-stretch:normal;font-size:16px;line-height:1.25;font-family:Arial;-inkscape-font-specification:'Arial, Bold';font-variant-ligatures:normal;font-variant-caps:normal;font-variant-numeric:normal;font-feature-settings:normal;text-align:center;letter-spacing:0px;word-spacing:0px;writing-mode:lr-tb;text-anchor:middle;fill:#000000;fill-opacity:1;stroke:none"><flowRegion
       id="flowRegion947"><rect
         id="rect949"
         width="40.841583"
         height="22.277227"
         x="67.574257"
         y="208.66338" /></flowRegion><flowPara
       id="flowPara951">vmPFC</flowPara></flowRoot>  <path
     style="fill:none;stroke:#000000;stroke-width:1px;stroke-linecap:butt;stroke-linejoin:miter;stroke-opacity:1"
     d="m 276.98019,187.12872 c 0.9901,0 0.9901,0 0,0 z"
     id="path945"
     inkscape:connector-curvature="0" />
  <flowRoot
     xml:space="preserve"
     id="flowRoot935"
     style="font-style:normal;font-variant:normal;font-weight:bold;font-stretch:normal;font-size:16px;line-height:1.25;font-family:Arial;-inkscape-font-specification:'Arial, Bold';font-variant-ligatures:normal;font-variant-caps:normal;font-variant-numeric:normal;font-feature-settings:normal;text-align:center;letter-spacing:0px;word-spacing:0px;writing-mode:lr-tb;text-anchor:middle;fill:#000000;fill-opacity:1;stroke:none"><flowRegion
       id="flowRegion937"><rect
         id="rect939"
         width="39.032913"
         height="16.484627"
         x="303.14258"
         y="139.16402" /></flowRegion><flowPara
       id="flowPara941">PCC</flowPara></flowRoot>  <polygon
     points="294,21 302,19 323,26 326,52 310,92 266,143 254,157 261,178 262,190 237,197 239,179 230,163 229,147 242,132 288,83 300,53 302,33 301,33 301,33 301,33 300,32 300,32"
     stroke="#000000"
     id="polygon1"
     stroke-width="3px"
     fill="tomato"
     transform="" />
</svg>
